M48
;Layer_Color=6321
;FILE_FORMAT=2:5
INCH,LZ
;TYPE=PLATED
T1F00S00C0.02000
T2F00S00C0.02800
T3F00S00C0.04000
;TYPE=NON_PLATED
T4F00S00C0.04331
T5F00S00C0.04488
T6F00S00C0.05512
T7F00S00C0.06299
T8F00S00C0.12500
%
T01
X03Y1331878
X031
X0305Y1336878
Y138
X03Y1385
X031
X0295Y13925
X02775
X027Y13825
X0315Y138
X032Y1385
X033
X0325Y138
X034Y1365
Y135
X033Y1331878
X0325Y1336878
X0315
X032Y1331878
X03575
X03625Y1336878
X03675Y1331878
X03725Y1336878
X03775Y1331878
X03875
X03825Y1336878
X04025Y13495
Y13645
X041Y13775
X0405Y1385
X04175Y13875
X0425Y139
X043Y13875
X0435Y139
X044Y13875
X0445Y139
X045Y13875
X0455Y139
X046Y13875
X0455Y133
X0445
X0435
X043Y1325
X042
X0415Y133
X044Y1325
X045
X046
X0465Y133
X04625Y13025
X04575Y12975
X04325Y12925
X0435Y12775
X03435Y12575
X0316
X03575Y1385
X03625Y138
X03675Y1385
X03775
X03725Y138
X03825
X03875Y1385
X0475Y13775
X0485Y138
X04925Y13775
X05Y13875
X05075Y139
X05125Y13875
X05175Y139
X05225Y13875
X05275Y139
X05325Y13875
X05375Y139
X05425Y13875
X05475Y139
X05575Y13775
X05675Y1377
X0575Y13775
Y1385
X0566Y1386
X05825Y13875
X059Y139
X0595Y13875
X06Y139
X0605Y13875
X061Y139
X0615Y13875
X062Y139
Y133
X061
X06
X059
X058
X0585Y1325
X0595
X0605
X0615
X05675Y13375
Y13525
Y1362
X056Y1365
X05525Y1325
X05425
X05475Y133
X05375
X05275
X05175
X05075
X04975
X05025Y1325
X05125
X05225
X05325
X0485Y133
Y13375
X04775Y13325
X047Y1325
X04925Y1345
X0485Y13525
X04775Y13675
X04825Y13925
X063
X0625Y13875
X064Y13775
X065Y13745
X06575Y13775
X0665Y13875
X06725Y139
X06775Y13875
X06825Y139
X06875Y13875
X06925Y139
X06975Y13875
X07025Y139
X07075Y13875
X07125Y13925
X073
X07325Y1377
X07225Y13775
X07325Y1362
Y135
Y1335
X07175Y1325
X07125Y133
X07075Y1325
X07025Y133
X06975Y1325
X06925Y133
X06875Y1325
X06825Y133
X06775Y1325
X06725Y133
X06675Y1325
X06625Y133
X065Y1335
Y135
Y13595
X06475Y13925
X0635Y1325
X063Y133
X0625Y1325
X071Y13625
X0715Y12575
X06875
X0640118Y1517854
X0640039Y1537539
X0640118Y1547382
X061Y15475
X0615Y156
X05925Y1545
X05725Y14825
Y14725
X06125
X0615Y14825
X05225Y14875
Y15025
X05025Y15075
Y14875
X04955Y14745
X05155
X04425Y149
X0445Y1495
Y1505
X04525Y1515
X0445Y1525
X041825
X0395
X04Y1505
X04025Y15
Y149
X03825Y1505
X03675Y15375
Y155
X0405Y15525
X042
X04175Y156
X044248Y155252
X03175Y153
X03425Y149
X03525Y14775
X033
Y14275
X03425
X03175
X0405Y141
X02675Y14725
X02725Y15075
Y15525
X03Y154
X03025Y16375
X03Y16625
X031
X0315Y16375
X03475Y15675
X037Y159
X039748Y156498
X041Y1565
X05025Y1575
X051Y15675
X05275
X053561Y157561
X0525Y16
X05075
X05025Y1615
X0505Y1625
Y16325
Y164
X05075Y16525
X05Y16625
X054
X0535Y16525
X0535197Y1632303
X0535Y16225
X05325Y1615
X05575Y16175
X0549Y1643
X04725Y16125
X0585Y15625
X071Y1655
Y168
X0735
Y166
T02
X027Y1345
X05675Y13175
X03675Y1565
T03
X062Y11375
Y11475
X041
Y11375
Y1166378
Y119
Y12525
X04
Y12625
X039
Y12525
X042
Y12625
X041
X043
X044
X045
X046
Y12525
X045
X044
X043
X047
X048
X049
X05
X051
X052
X053
X054
X055
X056
X057
X058
X059
X06
X061
X062
Y12625
X061
X06
X059
X058
X057
X056
X055
X054
X053
X052
X051
X05
X049
X048
X047
X063
Y12525
X0745Y1345
Y1365
X067Y1445
Y1455
X066
Y1445
X065
Y1455
X064
Y1445
X063
Y1455
X062
Y1445
X061
Y1455
X06
Y1445
X059
Y1455
X058
Y1445
X057
Y1455
X056
Y1445
X055
Y1455
X054
Y1445
X053
Y1455
X052
Y1445
X051
Y1455
X05
Y1445
X049
Y1455
X048
Y1445
X047
Y1455
X046
Y1445
X045
Y1455
X044
Y1445
X043
Y1455
X042
Y1445
X041
Y1455
X04
Y1445
X039
Y1455
X038
Y1445
X037
Y1455
X036
Y1445
X02775Y15675
Y15775
X02675
Y15675
Y1625
Y1635
Y1645
Y1655
Y1665
Y1675
Y1685
Y1695
Y1705
X02875Y1605
X02975
X03075
X03175
X03375Y1625
Y1635
Y1645
Y1655
Y1665
Y1675
Y1685
Y1695
Y1705
X036Y1695
X037
X038
X039
X04
X041
X042
X043
X044
X045
X046
Y1685
X045
X044
X043
X042
X041
X04
X039
X038
X037
X036
X047
X048
X049
X05
X051
X052
X053
X054
X055
X056
X057
X058
X059
X06
X061
X062
Y1695
X061
X06
X059
X058
X057
X056
X055
X054
X053
X052
X051
X05
X049
X048
X047
X063
X064
X065
X066
X067
Y1685
X066
X065
X064
X063
X071Y164
X072
X073
X074
Y163
X073
X072
X071
T04
X0666486Y1494724
T05
X0282067Y14625
T06
X0311595Y14625
T07
X0666486Y157691
T08
X0735Y12325
X0275
X03025Y17
X0735
M30
