M48
;Layer_Color=6321
;FILE_FORMAT=2:5
INCH,LZ
;TYPE=PLATED
T1F00S00C0.02000
T2F00S00C0.02800
T3F00S00C0.04000
T4F00S00C0.10000
;TYPE=NON_PLATED
T5F00S00C0.04331
T6F00S00C0.06299
T7F00S00C0.12500
%
T01
X03Y1331878
X0305Y1336878
X031Y1331878
Y1385
X0305Y138
X03Y1385
X0295Y13925
X02775
X027Y13825
X0315Y138
X0325
X033Y1385
X032
X03575
X03675
X03725Y138
X03825
X03875Y1385
X03775
X03625Y138
X034Y1365
Y135
X0325Y1336878
X032Y1331878
X0315Y1336878
X033Y1331878
X03575
X03675
X03775
X03825Y1336878
X03725
X03625
X03875Y1331878
X0415Y133
X042Y1325
X043
X044
X045
X046
X0465Y133
X0455
X0445
X0435
X04325Y12925
X0435Y12775
X04575Y12975
X04625Y13025
X046Y13875
X0455Y139
X045Y13875
X0445Y139
X044Y13875
X0435Y139
X043Y13875
X0425Y139
X04175Y13875
X0405Y1385
X041Y13775
X04025Y13645
Y13495
X03435Y12575
X0316
X047Y1325
X04775Y13325
X0485Y133
Y13375
Y13525
X04925Y1345
X04975Y133
X05075
X05175
X05275
X05375
X05325Y1325
X05225
X05125
X05025
X05425
X05475Y133
X05525Y1325
X05675Y13375
Y13525
Y1362
X056Y1365
X05575Y13775
X05675Y1377
X0575Y13775
Y1385
X05825Y13875
X059Y139
X0595Y13875
X06Y139
X0605Y13875
X061Y139
X0615Y13875
X062Y139
X0566Y1386
X05475Y139
X05425Y13875
X05375Y139
X05325Y13875
X05275Y139
X05225Y13875
X05175Y139
X05125Y13875
X05075Y139
X05Y13875
X04925Y13775
X0485Y138
X0475Y13775
X04775Y13675
X04825Y13925
X058Y133
X059
X06
X061
X062
X0615Y1325
X0605
X0595
X0585
X0625
X063Y133
X0635Y1325
X065Y1335
Y135
Y13595
Y13745
X06575Y13775
X0665Y13875
X06725Y139
X06775Y13875
X06825Y139
X06875Y13875
X06925Y139
X06975Y13875
X07025Y139
X07075Y13875
X07125Y13925
X073
X07325Y1377
X07225Y13775
X07325Y1362
Y135
Y1335
X07125Y133
X07025
X06925
X06825
X06725
X06625
X06675Y1325
X06775
X06875
X06975
X07075
X07175
X071Y13625
X064Y13775
X06475Y13925
X063
X0625Y13875
X06875Y12575
X0715
X0640118Y1517854
X0640039Y1537539
X0640118Y1547382
X061Y15475
X0615Y156
X05925Y1545
X05725Y14825
Y14725
X06125
X0615Y14825
X05225Y14875
Y15025
X05025Y15075
Y14875
X04955Y14745
X05155
X04425Y149
X0445Y1495
Y1505
X04525Y1515
X0445Y1525
X041825
X0395
X04Y1505
X04025Y15
Y149
X03825
Y1505
X03525Y14775
X03425Y15225
X0405Y15525
X042
X04175Y156
X044248Y155252
X0405Y141
X03425Y14275
X033
X03175
X03025Y16375
X03Y16625
X031
X0315Y16375
X037Y159
X03475Y15675
X051
X05025Y1575
X05075Y16
X0525
X05325Y1615
X0535Y16225
X0535197Y1632303
X0535Y16525
X054Y16625
X0549Y1643
X05575Y16175
X05025Y1615
X0505Y1625
Y16325
Y164
X05075Y16525
X05Y16625
X04725Y16125
X05275Y15675
X053561Y157561
X0585Y15625
X071Y1655
Y168
X0735
Y166
T02
X027Y1345
X05675Y13175
X03675Y1565
T03
X062Y11375
Y11475
X041
Y11375
Y1166378
Y119
Y12525
Y12625
X042
X043
Y12525
X044
Y12625
X045
Y12525
X046
Y12625
X042Y12525
X04
X039
Y12625
X04
X047
Y12525
X048
Y12625
X049
Y12525
X05
Y12625
X051
Y12525
X052
Y12625
X053
Y12525
X054
Y12625
X055
Y12525
X056
Y12625
X057
Y12525
X058
Y12625
X059
Y12525
X06
Y12625
X061
Y12525
X062
Y12625
X063
Y12525
X0745Y1345
Y1365
X067Y1445
X066
X065
X064
X063
Y1455
X064
X065
X066
X067
X062
X061
X06
X059
X058
X057
X056
X055
X054
X053
X052
X051
X05
X049
X048
X047
Y1445
X048
X049
X05
X051
X052
X053
X054
X055
X056
X057
X058
X059
X06
X061
X062
X046
X045
X044
X043
X042
X041
X04
X039
X038
X037
X036
Y1455
X037
X038
X039
X04
X041
X042
X043
X044
X045
X046
X0325Y147
Y148
Y149
Y15
Y151
Y152
Y153
Y154
X02775Y15675
X02675
Y15775
X02775
X02875Y1605
X02975
X03075
X02675Y1625
Y1635
Y1645
Y1655
Y1665
Y1675
Y1685
Y1695
Y1705
X03375
Y1695
Y1685
Y1675
Y1665
Y1655
Y1645
Y1635
Y1625
X03175Y1605
X036Y1685
Y1695
X037
Y1685
X038
Y1695
X039
Y1685
X04
Y1695
X041
Y1685
X042
Y1695
X043
Y1685
X044
Y1695
X045
Y1685
X046
Y1695
X047
Y1685
X048
Y1695
X049
Y1685
X05
Y1695
X051
Y1685
X052
Y1695
X053
Y1685
X054
Y1695
X055
Y1685
X056
Y1695
X057
Y1685
X058
Y1695
X059
Y1685
X06
Y1695
X061
Y1685
X062
Y1695
X063
Y1685
X064
Y1695
X065
Y1685
X066
Y1695
X067
Y1685
X071Y164
Y163
X072
Y164
X073
Y163
X074
Y164
T04
X02725Y154
X0275Y147
T05
X0666486Y1494724
T06
X0666486Y157691
T07
X0735Y12325
X0275
X03025Y17
X0735
M30
