G04*
G04 #@! TF.GenerationSoftware,Altium Limited,CircuitStudio,1.5.2 (30)*
G04*
G04 Layer_Color=10092543*
%FSLAX25Y25*%
%MOIN*%
G70*
G01*
G75*
%ADD32C,0.02000*%
%ADD33C,0.01000*%
%ADD34C,0.01200*%
%ADD36C,0.00800*%
%ADD58C,0.00787*%
D32*
X260000Y1479998D02*
X269997D01*
X337500Y1462498D02*
X347497D01*
X342498Y1467496D02*
Y1457499D01*
D33*
X472500Y1361000D02*
G03*
X472500Y1356000I0J-2500D01*
G01*
X720000Y1361000D02*
G03*
X720000Y1356000I0J-2500D01*
G01*
X555000Y1361000D02*
G03*
X555000Y1356000I0J-2500D01*
G01*
X637500Y1361000D02*
G03*
X637500Y1356000I0J-2500D01*
G01*
X267949Y1457373D02*
G03*
X312675Y1437459I29079J5127D01*
G01*
X313539Y1486979D02*
G03*
X267949Y1467627I-16512J-24479D01*
G01*
X306500Y1547500D02*
G03*
X311500Y1547500I2500J0D01*
G01*
X315000Y1700000D02*
G03*
X315000Y1700000I-12500J0D01*
G01*
X287500Y1232500D02*
G03*
X287500Y1232500I-12500J0D01*
G01*
X747500D02*
G03*
X747500Y1232500I-12500J0D01*
G01*
X747500Y1700000D02*
G03*
X747500Y1700000I-12500J0D01*
G01*
X472500Y1361000D02*
Y1371500D01*
Y1345500D02*
Y1356000D01*
X412500Y1345500D02*
X472500D01*
X412500D02*
Y1371500D01*
X472500D01*
X720000Y1361000D02*
Y1371500D01*
Y1345500D02*
Y1356000D01*
X660000Y1345500D02*
X720000D01*
X660000D02*
Y1371500D01*
X720000D01*
X555000Y1361000D02*
Y1371500D01*
Y1345500D02*
Y1356000D01*
X495000Y1345500D02*
X555000D01*
X495000D02*
Y1371500D01*
X555000D01*
X637500Y1361000D02*
Y1371500D01*
Y1345500D02*
Y1356000D01*
X577500Y1345500D02*
X637500D01*
X577500D02*
Y1371500D01*
X637500D01*
X375000Y1440000D02*
X385000D01*
Y1472500D01*
X375000D02*
X385000D01*
X365000Y1460000D02*
Y1472500D01*
X375000D01*
Y1440000D02*
Y1472500D01*
X365000Y1440000D02*
X375000D01*
X365000D02*
Y1460000D01*
X355000Y1440000D02*
Y1460000D01*
Y1440000D02*
X365000D01*
X355000Y1472500D02*
X365000D01*
X355000Y1460000D02*
Y1472500D01*
X385000Y1667500D02*
Y1680000D01*
X375000Y1667500D02*
X385000D01*
X375000Y1700000D02*
X385000D01*
Y1680000D02*
Y1700000D01*
X375000Y1680000D02*
Y1700000D01*
X365000D02*
X375000D01*
X365000Y1667500D02*
Y1700000D01*
Y1667500D02*
X375000D01*
Y1680000D01*
X355000Y1667500D02*
X365000D01*
X355000D02*
Y1700000D01*
X365000D01*
X675000Y1680000D02*
Y1700000D01*
X665000D02*
X675000D01*
X665000Y1667500D02*
Y1700000D01*
Y1667500D02*
X675000D01*
Y1680000D01*
X655000Y1667500D02*
X665000D01*
X655000D02*
Y1700000D01*
X665000D01*
Y1440000D02*
X675000D01*
Y1472500D01*
X665000D02*
X675000D01*
X655000Y1460000D02*
Y1472500D01*
X665000D01*
Y1440000D02*
Y1472500D01*
X655000Y1440000D02*
X665000D01*
X655000D02*
Y1460000D01*
X681260Y1438307D02*
Y1702480D01*
X350157D02*
X681260D01*
X350157Y1438307D02*
X681260D01*
X350157D02*
Y1702480D01*
X326555Y1469980D02*
Y1492028D01*
X312675Y1437459D02*
X317555Y1432579D01*
X313563Y1486909D02*
X318681Y1492028D01*
X317555Y1432579D02*
X326555D01*
X318681Y1492028D02*
X326555D01*
Y1432579D02*
Y1454626D01*
X296000Y1547500D02*
X306500D01*
X311500D02*
X322000D01*
Y1505630D02*
Y1547500D01*
X296000Y1505630D02*
Y1547500D01*
Y1505630D02*
X322000D01*
X630000Y1112500D02*
X640000D01*
X390000D02*
X400000D01*
Y1072500D02*
Y1112500D01*
X630000Y1072500D02*
Y1112500D01*
X627500Y1070000D02*
X630000Y1072500D01*
X400000D02*
X402500Y1070000D01*
X696397Y1622500D02*
Y1720000D01*
Y1622500D02*
X753897D01*
X696397Y1720000D02*
X753897D01*
Y1622500D02*
Y1720000D01*
X701397Y1700000D02*
X731397D01*
X701397D02*
Y1717500D01*
X706397D01*
Y1705000D02*
Y1717500D01*
Y1705000D02*
X711397D01*
Y1717500D01*
X716397D01*
Y1705000D02*
Y1717500D01*
Y1705000D02*
X721397D01*
Y1717500D01*
X726397D01*
Y1705000D02*
Y1717500D01*
Y1705000D02*
X731397D01*
Y1717500D01*
X746397D01*
X688041Y1584390D02*
X696014Y1592362D01*
X673376Y1584390D02*
X688041D01*
X696014Y1592362D02*
X739321D01*
X669439Y1487638D02*
X739813D01*
X755463D02*
Y1592362D01*
X286500Y1723500D02*
X318500D01*
Y1701500D02*
Y1723500D01*
X286500Y1701500D02*
Y1723500D01*
Y1701500D02*
X318500D01*
X260000Y1720000D02*
X345000D01*
Y1600000D02*
Y1720000D01*
X260000Y1600000D02*
Y1720000D01*
Y1600000D02*
X345000D01*
X360000Y1425000D02*
Y1435000D01*
X337500Y1445000D02*
X347500D01*
X282500Y1572500D02*
Y1582500D01*
X262500D02*
X282500D01*
X262500Y1572500D02*
Y1582500D01*
Y1572500D02*
X282500D01*
X262500Y1562500D02*
X282500D01*
X262500D02*
Y1572500D01*
X282500D01*
Y1562500D02*
Y1572500D01*
X410000Y1172500D02*
Y1185000D01*
X745000Y1350000D02*
Y1360000D01*
X350700Y1711998D02*
Y1707000D01*
X351700Y1706000D01*
X353699D01*
X354699Y1707000D01*
Y1711998D01*
X356698Y1706000D02*
X358697D01*
X357698D01*
Y1711998D01*
X356698Y1710998D01*
X305000Y1558498D02*
Y1553500D01*
X306000Y1552500D01*
X307999D01*
X308999Y1553500D01*
Y1558498D01*
X314997D02*
X310998D01*
Y1555499D01*
X312997Y1556499D01*
X313997D01*
X314997Y1555499D01*
Y1553500D01*
X313997Y1552500D01*
X311998D01*
X310998Y1553500D01*
X512500Y1673498D02*
Y1668500D01*
X513500Y1667500D01*
X515499D01*
X516499Y1668500D01*
Y1673498D01*
X522497Y1667500D02*
X518498D01*
X522497Y1671499D01*
Y1672498D01*
X521497Y1673498D01*
X519498D01*
X518498Y1672498D01*
X680000Y1713498D02*
Y1708500D01*
X681000Y1707500D01*
X682999D01*
X683999Y1708500D01*
Y1713498D01*
X688997Y1707500D02*
Y1713498D01*
X685998Y1710499D01*
X689997D01*
X426102Y1569297D02*
Y1565965D01*
X426768Y1565298D01*
X428101D01*
X428767Y1565965D01*
Y1569297D01*
X430100Y1565298D02*
X431433D01*
X430767D01*
Y1569297D01*
X430100Y1568631D01*
X433432D02*
X434099Y1569297D01*
X435432D01*
X436098Y1568631D01*
Y1567964D01*
X435432Y1567298D01*
X434765D01*
X435432D01*
X436098Y1566631D01*
Y1565965D01*
X435432Y1565298D01*
X434099D01*
X433432Y1565965D01*
X287500Y1420000D02*
Y1425998D01*
X290499D01*
X291499Y1424998D01*
Y1422999D01*
X290499Y1421999D01*
X287500D01*
X289499D02*
X291499Y1420000D01*
X293498Y1425998D02*
X297497D01*
X295497D01*
Y1420000D01*
X303495Y1424998D02*
X302495Y1425998D01*
X300496D01*
X299496Y1424998D01*
Y1421000D01*
X300496Y1420000D01*
X302495D01*
X303495Y1421000D01*
X755000Y1212500D02*
Y1720000D01*
X640000Y1112500D02*
Y1212500D01*
X390000Y1112500D02*
Y1212500D01*
X640000D02*
X755000D01*
X255000D02*
X390000D01*
X400000Y1072500D02*
X402500Y1070000D01*
X627500D02*
X630000Y1072500D01*
X255000Y1212500D02*
Y1720000D01*
X755000D01*
X390000Y1112500D02*
X400000D01*
Y1072500D02*
Y1112500D01*
X402500Y1070000D02*
X627500D01*
X630000Y1072500D02*
Y1112500D01*
X640000D01*
D34*
X276000Y1519000D02*
Y1523500D01*
X269000Y1519000D02*
Y1523500D01*
Y1511000D02*
Y1516000D01*
X276000Y1511000D02*
Y1516000D01*
X269000Y1523500D02*
X276000D01*
X269000Y1511000D02*
X276000D01*
X269000Y1536500D02*
Y1541000D01*
X276000Y1536500D02*
Y1541000D01*
Y1544000D02*
Y1549000D01*
X269000Y1544000D02*
Y1549000D01*
Y1536500D02*
X276000D01*
X269000Y1549000D02*
X276000D01*
X280500Y1384000D02*
Y1388500D01*
X292000Y1384000D02*
Y1388500D01*
X280500Y1384000D02*
X282500D01*
X286000Y1393000D02*
X286500D01*
X290000Y1384000D02*
X292000D01*
X625000Y1257500D02*
X635000D01*
X625000D02*
Y1267500D01*
X385000D02*
X635000D01*
X385000Y1247500D02*
Y1267500D01*
Y1247500D02*
X635000D01*
Y1267500D01*
X588000Y1547500D02*
Y1555000D01*
X597000Y1547500D02*
Y1555000D01*
Y1559000D02*
Y1566500D01*
X588000Y1559000D02*
Y1566500D01*
Y1547500D02*
X597000D01*
X588000Y1566500D02*
X597000D01*
X546500Y1471000D02*
X553500D01*
X546500Y1483500D02*
X553500D01*
Y1471000D02*
Y1476000D01*
X546500Y1471000D02*
Y1476000D01*
Y1479000D02*
Y1483500D01*
X553500Y1479000D02*
Y1483500D01*
X731500Y1676500D02*
X738500D01*
X731500Y1664000D02*
X738500D01*
X731500Y1671500D02*
Y1676500D01*
X738500Y1671500D02*
Y1676500D01*
Y1664000D02*
Y1668500D01*
X731500Y1664000D02*
Y1668500D01*
X705500Y1676500D02*
X714500D01*
X705500Y1657500D02*
X714500D01*
X705500Y1669000D02*
Y1676500D01*
X714500Y1669000D02*
Y1676500D01*
Y1657500D02*
Y1665000D01*
X705500Y1657500D02*
Y1665000D01*
X572500Y1390500D02*
X580000D01*
X572500Y1399500D02*
X580000D01*
X561000D02*
X568500D01*
X561000Y1390500D02*
X568500D01*
X580000D02*
Y1399500D01*
X561000Y1390500D02*
Y1399500D01*
X332500Y1253000D02*
X340000D01*
X332500Y1262000D02*
X340000D01*
X321000D02*
X328500D01*
X321000Y1253000D02*
X328500D01*
X340000D02*
Y1262000D01*
X321000Y1253000D02*
Y1262000D01*
X400500Y1387500D02*
Y1395000D01*
X409500Y1387500D02*
Y1395000D01*
Y1399000D02*
Y1406500D01*
X400500Y1399000D02*
Y1406500D01*
Y1387500D02*
X409500D01*
X400500Y1406500D02*
X409500D01*
X692500Y1262000D02*
X700000D01*
X692500Y1253000D02*
X700000D01*
X704000D02*
X711500D01*
X704000Y1262000D02*
X711500D01*
X692500Y1253000D02*
Y1262000D01*
X711500Y1253000D02*
Y1262000D01*
X466000Y1389000D02*
Y1396000D01*
X478500Y1389000D02*
Y1396000D01*
X466000Y1389000D02*
X471000D01*
X466000Y1396000D02*
X471000D01*
X474000D02*
X478500D01*
X474000Y1389000D02*
X478500D01*
X713500D02*
Y1396000D01*
X726000Y1389000D02*
Y1396000D01*
X713500Y1389000D02*
X718500D01*
X713500Y1396000D02*
X718500D01*
X721500D02*
X726000D01*
X721500Y1389000D02*
X726000D01*
X631000D02*
Y1396000D01*
X643500Y1389000D02*
Y1396000D01*
X631000Y1389000D02*
X636000D01*
X631000Y1396000D02*
X636000D01*
X639000D02*
X643500D01*
X639000Y1389000D02*
X643500D01*
X646500Y1361000D02*
X653500D01*
X646500Y1373500D02*
X653500D01*
Y1361000D02*
Y1366000D01*
X646500Y1361000D02*
Y1366000D01*
Y1369000D02*
Y1373500D01*
X653500Y1369000D02*
Y1373500D01*
X646500Y1349000D02*
X653500D01*
X646500Y1336500D02*
X653500D01*
X646500Y1344000D02*
Y1349000D01*
X653500Y1344000D02*
Y1349000D01*
Y1336500D02*
Y1341000D01*
X646500Y1336500D02*
Y1341000D01*
X564000Y1363500D02*
X571000D01*
X564000Y1376000D02*
X571000D01*
Y1363500D02*
Y1368500D01*
X564000Y1363500D02*
Y1368500D01*
Y1371500D02*
Y1376000D01*
X571000Y1371500D02*
Y1376000D01*
X564000Y1351500D02*
X571000D01*
X564000Y1339000D02*
X571000D01*
X564000Y1346500D02*
Y1351500D01*
X571000Y1346500D02*
Y1351500D01*
Y1339000D02*
Y1343500D01*
X564000Y1339000D02*
Y1343500D01*
X481500Y1363500D02*
X488500D01*
X481500Y1376000D02*
X488500D01*
Y1363500D02*
Y1368500D01*
X481500Y1363500D02*
Y1368500D01*
Y1371500D02*
Y1376000D01*
X488500Y1371500D02*
Y1376000D01*
X481500Y1351500D02*
X488500D01*
X481500Y1339000D02*
X488500D01*
X481500Y1346500D02*
Y1351500D01*
X488500Y1346500D02*
Y1351500D01*
Y1339000D02*
Y1343500D01*
X481500Y1339000D02*
Y1343500D01*
X476000Y1321500D02*
Y1328500D01*
X488500Y1321500D02*
Y1328500D01*
X476000Y1321500D02*
X481000D01*
X476000Y1328500D02*
X481000D01*
X484000D02*
X488500D01*
X484000Y1321500D02*
X488500D01*
X736500Y1311500D02*
Y1318500D01*
X724000Y1311500D02*
Y1318500D01*
X731500D02*
X736500D01*
X731500Y1311500D02*
X736500D01*
X724000D02*
X728500D01*
X724000Y1318500D02*
X728500D01*
X554000Y1309000D02*
Y1316000D01*
X541500Y1309000D02*
Y1316000D01*
X549000D02*
X554000D01*
X549000Y1309000D02*
X554000D01*
X541500D02*
X546000D01*
X541500Y1316000D02*
X546000D01*
X729000Y1363500D02*
X736000D01*
X729000Y1376000D02*
X736000D01*
Y1363500D02*
Y1368500D01*
X729000Y1363500D02*
Y1368500D01*
Y1371500D02*
Y1376000D01*
X736000Y1371500D02*
Y1376000D01*
X729000Y1349000D02*
X736000D01*
X729000Y1336500D02*
X736000D01*
X729000Y1344000D02*
Y1349000D01*
X736000Y1344000D02*
Y1349000D01*
Y1336500D02*
Y1341000D01*
X729000Y1336500D02*
Y1341000D01*
X399000Y1363500D02*
X406000D01*
X399000Y1351000D02*
X406000D01*
X399000Y1358500D02*
Y1363500D01*
X406000Y1358500D02*
Y1363500D01*
Y1351000D02*
Y1355500D01*
X399000Y1351000D02*
Y1355500D01*
X336500Y1364000D02*
X343500D01*
X336500Y1351500D02*
X343500D01*
X336500Y1359000D02*
Y1364000D01*
X343500Y1359000D02*
Y1364000D01*
Y1351500D02*
Y1356000D01*
X336500Y1351500D02*
Y1356000D01*
X266500Y1351000D02*
X273500D01*
X266500Y1363500D02*
X273500D01*
Y1351000D02*
Y1356000D01*
X266500Y1351000D02*
Y1356000D01*
Y1359000D02*
Y1363500D01*
X273500Y1359000D02*
Y1363500D01*
X266500Y1368500D02*
X273500D01*
X266500Y1381000D02*
X273500D01*
Y1368500D02*
Y1373500D01*
X266500Y1368500D02*
Y1373500D01*
Y1376500D02*
Y1381000D01*
X273500Y1376500D02*
Y1381000D01*
X339000Y1398500D02*
X346000D01*
X339000Y1411000D02*
X346000D01*
Y1398500D02*
Y1403500D01*
X339000Y1398500D02*
Y1403500D01*
Y1406500D02*
Y1411000D01*
X346000Y1406500D02*
Y1411000D01*
X314000Y1398500D02*
X321000D01*
X314000Y1411000D02*
X321000D01*
Y1398500D02*
Y1403500D01*
X314000Y1398500D02*
Y1403500D01*
Y1406500D02*
Y1411000D01*
X321000Y1406500D02*
Y1411000D01*
X326500Y1398500D02*
X333500D01*
X326500Y1411000D02*
X333500D01*
Y1398500D02*
Y1403500D01*
X326500Y1398500D02*
Y1403500D01*
Y1406500D02*
Y1411000D01*
X333500Y1406500D02*
Y1411000D01*
X411500Y1521500D02*
Y1528500D01*
X399000Y1521500D02*
Y1528500D01*
X406500D02*
X411500D01*
X406500Y1521500D02*
X411500D01*
X399000D02*
X403500D01*
X399000Y1528500D02*
X403500D01*
X435000Y1520500D02*
X442500D01*
X435000Y1529500D02*
X442500D01*
X423500D02*
X431000D01*
X423500Y1520500D02*
X431000D01*
X442500D02*
Y1529500D01*
X423500Y1520500D02*
Y1529500D01*
X386500Y1496000D02*
X393500D01*
X386500Y1508500D02*
X393500D01*
Y1496000D02*
Y1501000D01*
X386500Y1496000D02*
Y1501000D01*
Y1504000D02*
Y1508500D01*
X393500Y1504000D02*
Y1508500D01*
X449000Y1511500D02*
X456000D01*
X449000Y1499000D02*
X456000D01*
X449000Y1506500D02*
Y1511500D01*
X456000Y1506500D02*
Y1511500D01*
Y1499000D02*
Y1503500D01*
X449000Y1499000D02*
Y1503500D01*
X298500Y1640500D02*
Y1649500D01*
X317500Y1640500D02*
Y1649500D01*
X298500Y1640500D02*
X306000D01*
X298500Y1649500D02*
X306000D01*
X310000D02*
X317500D01*
X310000Y1640500D02*
X317500D01*
X298500Y1666500D02*
Y1673500D01*
X311000Y1666500D02*
Y1673500D01*
X298500Y1666500D02*
X303500D01*
X298500Y1673500D02*
X303500D01*
X306500D02*
X311000D01*
X306500Y1666500D02*
X311000D01*
X364000Y1534000D02*
Y1541000D01*
X351500Y1534000D02*
Y1541000D01*
X359000D02*
X364000D01*
X359000Y1534000D02*
X364000D01*
X351500D02*
X356000D01*
X351500Y1541000D02*
X356000D01*
X364000Y1546500D02*
Y1553500D01*
X351500Y1546500D02*
Y1553500D01*
X359000D02*
X364000D01*
X359000Y1546500D02*
X364000D01*
X351500D02*
X356000D01*
X351500Y1553500D02*
X356000D01*
X578500Y1479000D02*
Y1486000D01*
X591000Y1479000D02*
Y1486000D01*
X578500Y1479000D02*
X583500D01*
X578500Y1486000D02*
X583500D01*
X586500D02*
X591000D01*
X586500Y1479000D02*
X591000D01*
X578500Y1469000D02*
Y1476000D01*
X591000Y1469000D02*
Y1476000D01*
X578500Y1469000D02*
X583500D01*
X578500Y1476000D02*
X583500D01*
X586500D02*
X591000D01*
X586500Y1469000D02*
X591000D01*
X606500Y1551000D02*
X613500D01*
X606500Y1563500D02*
X613500D01*
Y1551000D02*
Y1556000D01*
X606500Y1551000D02*
Y1556000D01*
Y1559000D02*
Y1563500D01*
X613500Y1559000D02*
Y1563500D01*
X499000Y1471000D02*
X506000D01*
X499000Y1483500D02*
X506000D01*
Y1471000D02*
Y1476000D01*
X499000Y1471000D02*
Y1476000D01*
Y1479000D02*
Y1483500D01*
X506000Y1479000D02*
Y1483500D01*
X364000Y1574000D02*
Y1581000D01*
X351500Y1574000D02*
Y1581000D01*
X359000D02*
X364000D01*
X359000Y1574000D02*
X364000D01*
X351500D02*
X356000D01*
X351500Y1581000D02*
X356000D01*
X364000Y1564000D02*
Y1571000D01*
X351500Y1564000D02*
Y1571000D01*
X359000D02*
X364000D01*
X359000Y1564000D02*
X364000D01*
X351500D02*
X356000D01*
X351500Y1571000D02*
X356000D01*
X519000Y1471000D02*
X526000D01*
X519000Y1483500D02*
X526000D01*
Y1471000D02*
Y1476000D01*
X519000Y1471000D02*
Y1476000D01*
Y1479000D02*
Y1483500D01*
X526000Y1479000D02*
Y1483500D01*
X654000Y1301500D02*
Y1306000D01*
X661000Y1301500D02*
Y1306000D01*
Y1309000D02*
Y1314000D01*
X654000Y1309000D02*
Y1314000D01*
Y1301500D02*
X661000D01*
X654000Y1314000D02*
X661000D01*
X706500Y1301500D02*
Y1306000D01*
X713500Y1301500D02*
Y1306000D01*
Y1309000D02*
Y1314000D01*
X706500Y1309000D02*
Y1314000D01*
Y1301500D02*
X713500D01*
X706500Y1314000D02*
X713500D01*
X699000Y1301500D02*
Y1306000D01*
X706000Y1301500D02*
Y1306000D01*
Y1309000D02*
Y1314000D01*
X699000Y1309000D02*
Y1314000D01*
Y1301500D02*
X706000D01*
X699000Y1314000D02*
X706000D01*
X661500Y1301500D02*
Y1306000D01*
X668500Y1301500D02*
Y1306000D01*
Y1309000D02*
Y1314000D01*
X661500Y1309000D02*
Y1314000D01*
Y1301500D02*
X668500D01*
X661500Y1314000D02*
X668500D01*
X669000Y1301500D02*
Y1306000D01*
X676000Y1301500D02*
Y1306000D01*
Y1309000D02*
Y1314000D01*
X669000Y1309000D02*
Y1314000D01*
Y1301500D02*
X676000D01*
X669000Y1314000D02*
X676000D01*
X676500Y1301500D02*
Y1306000D01*
X683500Y1301500D02*
Y1306000D01*
Y1309000D02*
Y1314000D01*
X676500Y1309000D02*
Y1314000D01*
Y1301500D02*
X683500D01*
X676500Y1314000D02*
X683500D01*
X684000Y1301500D02*
Y1306000D01*
X691000Y1301500D02*
Y1306000D01*
Y1309000D02*
Y1314000D01*
X684000Y1309000D02*
Y1314000D01*
Y1301500D02*
X691000D01*
X684000Y1314000D02*
X691000D01*
X691500Y1301500D02*
Y1306000D01*
X698500Y1301500D02*
Y1306000D01*
Y1309000D02*
Y1314000D01*
X691500Y1309000D02*
Y1314000D01*
Y1301500D02*
X698500D01*
X691500Y1314000D02*
X698500D01*
D36*
X412800Y1390699D02*
Y1387366D01*
X413466Y1386700D01*
X414799D01*
X415466Y1387366D01*
Y1390699D01*
X419464D02*
X418132Y1390032D01*
X416799Y1388699D01*
Y1387366D01*
X417465Y1386700D01*
X418798D01*
X419464Y1387366D01*
Y1388033D01*
X418798Y1388699D01*
X416799D01*
X660300Y1390699D02*
Y1387366D01*
X660966Y1386700D01*
X662299D01*
X662966Y1387366D01*
Y1390699D01*
X664299D02*
X666964D01*
Y1390032D01*
X664299Y1387366D01*
Y1386700D01*
X495300Y1390699D02*
Y1387366D01*
X495966Y1386700D01*
X497299D01*
X497966Y1387366D01*
Y1390699D01*
X499299Y1390032D02*
X499965Y1390699D01*
X501298D01*
X501965Y1390032D01*
Y1389366D01*
X501298Y1388699D01*
X501965Y1388033D01*
Y1387366D01*
X501298Y1386700D01*
X499965D01*
X499299Y1387366D01*
Y1388033D01*
X499965Y1388699D01*
X499299Y1389366D01*
Y1390032D01*
X499965Y1388699D02*
X501298D01*
X577800Y1390699D02*
Y1387366D01*
X578466Y1386700D01*
X579799D01*
X580466Y1387366D01*
Y1390699D01*
X581799Y1387366D02*
X582465Y1386700D01*
X583798D01*
X584465Y1387366D01*
Y1390032D01*
X583798Y1390699D01*
X582465D01*
X581799Y1390032D01*
Y1389366D01*
X582465Y1388699D01*
X584465D01*
X369168Y1460000D02*
X368501Y1460666D01*
Y1461999D01*
X369168Y1462666D01*
X369834D01*
X370501Y1461999D01*
Y1461333D01*
Y1461999D01*
X371167Y1462666D01*
X371834D01*
X372500Y1461999D01*
Y1460666D01*
X371834Y1460000D01*
X368501Y1463999D02*
X371167D01*
X372500Y1465332D01*
X371167Y1466665D01*
X368501D01*
X369168Y1467997D02*
X368501Y1468664D01*
Y1469997D01*
X369168Y1470663D01*
X369834D01*
X370501Y1469997D01*
Y1469330D01*
Y1469997D01*
X371167Y1470663D01*
X371834D01*
X372500Y1469997D01*
Y1468664D01*
X371834Y1467997D01*
X379168Y1462666D02*
X378501Y1461999D01*
Y1460666D01*
X379168Y1460000D01*
X381834D01*
X382500Y1460666D01*
Y1461999D01*
X381834Y1462666D01*
X380501D01*
Y1461333D01*
X382500Y1463999D02*
X378501D01*
X382500Y1466665D01*
X378501D01*
Y1467997D02*
X382500D01*
Y1469997D01*
X381834Y1470663D01*
X379168D01*
X378501Y1469997D01*
Y1467997D01*
X359168Y1462666D02*
X358501Y1461999D01*
Y1460666D01*
X359168Y1460000D01*
X361834D01*
X362500Y1460666D01*
Y1461999D01*
X361834Y1462666D01*
X360501D01*
Y1461333D01*
X362500Y1463999D02*
X358501D01*
X362500Y1466665D01*
X358501D01*
Y1467997D02*
X362500D01*
Y1469997D01*
X361834Y1470663D01*
X359168D01*
X358501Y1469997D01*
Y1467997D01*
X380832Y1677334D02*
X381499Y1678001D01*
Y1679334D01*
X380832Y1680000D01*
X378166D01*
X377500Y1679334D01*
Y1678001D01*
X378166Y1677334D01*
X379499D01*
Y1678667D01*
X377500Y1676001D02*
X381499D01*
X377500Y1673335D01*
X381499D01*
Y1672003D02*
X377500D01*
Y1670003D01*
X378166Y1669337D01*
X380832D01*
X381499Y1670003D01*
Y1672003D01*
X360832Y1677334D02*
X361499Y1678001D01*
Y1679334D01*
X360832Y1680000D01*
X358166D01*
X357500Y1679334D01*
Y1678001D01*
X358166Y1677334D01*
X359499D01*
Y1678667D01*
X357500Y1676001D02*
X361499D01*
X357500Y1673335D01*
X361499D01*
Y1672003D02*
X357500D01*
Y1670003D01*
X358166Y1669337D01*
X360832D01*
X361499Y1670003D01*
Y1672003D01*
X370832Y1680000D02*
X371499Y1679334D01*
Y1678001D01*
X370832Y1677334D01*
X370166D01*
X369499Y1678001D01*
Y1678667D01*
Y1678001D01*
X368833Y1677334D01*
X368166D01*
X367500Y1678001D01*
Y1679334D01*
X368166Y1680000D01*
X371499Y1676001D02*
X368833D01*
X367500Y1674668D01*
X368833Y1673335D01*
X371499D01*
X370832Y1672003D02*
X371499Y1671336D01*
Y1670003D01*
X370832Y1669337D01*
X370166D01*
X369499Y1670003D01*
Y1670670D01*
Y1670003D01*
X368833Y1669337D01*
X368166D01*
X367500Y1670003D01*
Y1671336D01*
X368166Y1672003D01*
X660832Y1677334D02*
X661499Y1678001D01*
Y1679334D01*
X660832Y1680000D01*
X658166D01*
X657500Y1679334D01*
Y1678001D01*
X658166Y1677334D01*
X659499D01*
Y1678667D01*
X657500Y1676001D02*
X661499D01*
X657500Y1673335D01*
X661499D01*
Y1672003D02*
X657500D01*
Y1670003D01*
X658166Y1669337D01*
X660832D01*
X661499Y1670003D01*
Y1672003D01*
X669499Y1680000D02*
Y1677334D01*
X670832Y1678667D02*
X668166D01*
X671499Y1673335D02*
Y1676001D01*
X669499D01*
X670166Y1674668D01*
Y1674002D01*
X669499Y1673335D01*
X668166D01*
X667500Y1674002D01*
Y1675335D01*
X668166Y1676001D01*
X671499Y1672003D02*
X668833D01*
X667500Y1670670D01*
X668833Y1669337D01*
X671499D01*
X670501Y1460000D02*
Y1462666D01*
X669168Y1461333D02*
X671834D01*
X668501Y1466665D02*
Y1463999D01*
X670501D01*
X669834Y1465332D01*
Y1465998D01*
X670501Y1466665D01*
X671834D01*
X672500Y1465998D01*
Y1464665D01*
X671834Y1463999D01*
X668501Y1467997D02*
X671167D01*
X672500Y1469330D01*
X671167Y1470663D01*
X668501D01*
X659168Y1462666D02*
X658501Y1461999D01*
Y1460666D01*
X659168Y1460000D01*
X661834D01*
X662500Y1460666D01*
Y1461999D01*
X661834Y1462666D01*
X660501D01*
Y1461333D01*
X662500Y1463999D02*
X658501D01*
X662500Y1466665D01*
X658501D01*
Y1467997D02*
X662500D01*
Y1469997D01*
X661834Y1470663D01*
X659168D01*
X658501Y1469997D01*
Y1467997D01*
X265000Y1510000D02*
X261001D01*
Y1511999D01*
X261668Y1512666D01*
X263001D01*
X263667Y1511999D01*
Y1510000D01*
Y1511333D02*
X265000Y1512666D01*
Y1513999D02*
Y1515332D01*
Y1514665D01*
X261001D01*
X261668Y1513999D01*
Y1517331D02*
X261001Y1517997D01*
Y1519330D01*
X261668Y1519997D01*
X262334D01*
X263001Y1519330D01*
Y1518664D01*
Y1519330D01*
X263667Y1519997D01*
X264334D01*
X265000Y1519330D01*
Y1517997D01*
X264334Y1517331D01*
X261001Y1521330D02*
Y1523995D01*
X261668D01*
X264334Y1521330D01*
X265000D01*
X267500Y1535000D02*
X263501D01*
Y1536999D01*
X264168Y1537666D01*
X265501D01*
X266167Y1536999D01*
Y1535000D01*
Y1536333D02*
X267500Y1537666D01*
Y1538999D02*
Y1540332D01*
Y1539665D01*
X263501D01*
X264168Y1538999D01*
Y1542331D02*
X263501Y1542997D01*
Y1544330D01*
X264168Y1544997D01*
X264834D01*
X265501Y1544330D01*
Y1543664D01*
Y1544330D01*
X266167Y1544997D01*
X266834D01*
X267500Y1544330D01*
Y1542997D01*
X266834Y1542331D01*
X263501Y1548995D02*
X264168Y1547663D01*
X265501Y1546330D01*
X266834D01*
X267500Y1546996D01*
Y1548329D01*
X266834Y1548995D01*
X266167D01*
X265501Y1548329D01*
Y1546330D01*
X332500Y1486499D02*
Y1482500D01*
X334499D01*
X335166Y1483167D01*
Y1483833D01*
X334499Y1484499D01*
X332500D01*
X334499D01*
X335166Y1485166D01*
Y1485832D01*
X334499Y1486499D01*
X332500D01*
X336499D02*
X339164D01*
X337832D01*
Y1482500D01*
X340497D02*
X341830D01*
X341164D01*
Y1486499D01*
X340497Y1485832D01*
X542500Y1470000D02*
X538501D01*
Y1471999D01*
X539168Y1472666D01*
X540501D01*
X541167Y1471999D01*
Y1470000D01*
Y1471333D02*
X542500Y1472666D01*
Y1473999D02*
Y1475332D01*
Y1474665D01*
X538501D01*
X539168Y1473999D01*
X542500Y1479997D02*
Y1477331D01*
X539834Y1479997D01*
X539168D01*
X538501Y1479330D01*
Y1477997D01*
X539168Y1477331D01*
X538501Y1481330D02*
Y1483996D01*
X539168D01*
X541834Y1481330D01*
X542500D01*
X515000Y1480000D02*
X511001D01*
Y1481999D01*
X511668Y1482666D01*
X513001D01*
X513667Y1481999D01*
Y1480000D01*
Y1481333D02*
X515000Y1482666D01*
Y1483999D02*
Y1485332D01*
Y1484665D01*
X511001D01*
X511668Y1483999D01*
X515000Y1489997D02*
Y1487331D01*
X512334Y1489997D01*
X511668D01*
X511001Y1489330D01*
Y1487997D01*
X511668Y1487331D01*
Y1491330D02*
X511001Y1491996D01*
Y1493329D01*
X511668Y1493995D01*
X512334D01*
X513001Y1493329D01*
X513667Y1493995D01*
X514334D01*
X515000Y1493329D01*
Y1491996D01*
X514334Y1491330D01*
X513667D01*
X513001Y1491996D01*
X512334Y1491330D01*
X511668D01*
X513001Y1491996D02*
Y1493329D01*
X495000Y1480000D02*
X491001D01*
Y1481999D01*
X491668Y1482666D01*
X493001D01*
X493667Y1481999D01*
Y1480000D01*
Y1481333D02*
X495000Y1482666D01*
Y1483999D02*
Y1485332D01*
Y1484665D01*
X491001D01*
X491668Y1483999D01*
X495000Y1489997D02*
Y1487331D01*
X492334Y1489997D01*
X491668D01*
X491001Y1489330D01*
Y1487997D01*
X491668Y1487331D01*
X494334Y1491330D02*
X495000Y1491996D01*
Y1493329D01*
X494334Y1493995D01*
X491668D01*
X491001Y1493329D01*
Y1491996D01*
X491668Y1491330D01*
X492334D01*
X493001Y1491996D01*
Y1493995D01*
X620832Y1559834D02*
X621499Y1560501D01*
Y1561833D01*
X620832Y1562500D01*
X618166D01*
X617500Y1561833D01*
Y1560501D01*
X618166Y1559834D01*
X617500Y1558501D02*
Y1557168D01*
Y1557835D01*
X621499D01*
X620832Y1558501D01*
Y1555169D02*
X621499Y1554503D01*
Y1553170D01*
X620832Y1552503D01*
X618166D01*
X617500Y1553170D01*
Y1554503D01*
X618166Y1555169D01*
X620832D01*
Y1551170D02*
X621499Y1550504D01*
Y1549171D01*
X620832Y1548505D01*
X618166D01*
X617500Y1549171D01*
Y1550504D01*
X618166Y1551170D01*
X620832D01*
X680166Y1593999D02*
X678833D01*
X679499D01*
Y1590666D01*
X678833Y1590000D01*
X678166D01*
X677500Y1590666D01*
X681499Y1590000D02*
X682832D01*
X682165D01*
Y1593999D01*
X681499Y1593332D01*
X577500Y1462500D02*
Y1466499D01*
X579499D01*
X580166Y1465832D01*
Y1464499D01*
X579499Y1463833D01*
X577500D01*
X578833D02*
X580166Y1462500D01*
X581499D02*
X582832D01*
X582165D01*
Y1466499D01*
X581499Y1465832D01*
X584831D02*
X585497Y1466499D01*
X586830D01*
X587497Y1465832D01*
Y1465166D01*
X586830Y1464499D01*
X586164D01*
X586830D01*
X587497Y1463833D01*
Y1463167D01*
X586830Y1462500D01*
X585497D01*
X584831Y1463167D01*
X588830Y1465832D02*
X589496Y1466499D01*
X590829D01*
X591496Y1465832D01*
Y1463167D01*
X590829Y1462500D01*
X589496D01*
X588830Y1463167D01*
Y1465832D01*
X577500Y1490000D02*
Y1493999D01*
X579499D01*
X580166Y1493332D01*
Y1491999D01*
X579499Y1491333D01*
X577500D01*
X578833D02*
X580166Y1490000D01*
X581499D02*
X582832D01*
X582165D01*
Y1493999D01*
X581499Y1493332D01*
X584831D02*
X585497Y1493999D01*
X586830D01*
X587497Y1493332D01*
Y1492666D01*
X586830Y1491999D01*
X586164D01*
X586830D01*
X587497Y1491333D01*
Y1490666D01*
X586830Y1490000D01*
X585497D01*
X584831Y1490666D01*
X588830Y1490000D02*
X590163D01*
X589496D01*
Y1493999D01*
X588830Y1493332D01*
X603332Y1559834D02*
X603999Y1560501D01*
Y1561833D01*
X603332Y1562500D01*
X600666D01*
X600000Y1561833D01*
Y1560501D01*
X600666Y1559834D01*
X600000Y1558501D02*
Y1557168D01*
Y1557835D01*
X603999D01*
X603332Y1558501D01*
Y1555169D02*
X603999Y1554503D01*
Y1553170D01*
X603332Y1552503D01*
X600666D01*
X600000Y1553170D01*
Y1554503D01*
X600666Y1555169D01*
X603332D01*
X600000Y1551170D02*
Y1549837D01*
Y1550504D01*
X603999D01*
X603332Y1551170D01*
X350000Y1555000D02*
Y1558999D01*
X351999D01*
X352666Y1558332D01*
Y1556999D01*
X351999Y1556333D01*
X350000D01*
X351333D02*
X352666Y1555000D01*
X353999D02*
X355332D01*
X354665D01*
Y1558999D01*
X353999Y1558332D01*
X359997Y1555000D02*
X357331D01*
X359997Y1557666D01*
Y1558332D01*
X359330Y1558999D01*
X357997D01*
X357331Y1558332D01*
X363996Y1558999D02*
X361330D01*
Y1556999D01*
X362663Y1557666D01*
X363329D01*
X363996Y1556999D01*
Y1555667D01*
X363329Y1555000D01*
X361996D01*
X361330Y1555667D01*
X350000Y1527500D02*
Y1531499D01*
X351999D01*
X352666Y1530832D01*
Y1529499D01*
X351999Y1528833D01*
X350000D01*
X351333D02*
X352666Y1527500D01*
X353999D02*
X355332D01*
X354665D01*
Y1531499D01*
X353999Y1530832D01*
X359997Y1527500D02*
X357331D01*
X359997Y1530166D01*
Y1530832D01*
X359330Y1531499D01*
X357997D01*
X357331Y1530832D01*
X363996Y1531499D02*
X362663Y1530832D01*
X361330Y1529499D01*
Y1528166D01*
X361996Y1527500D01*
X363329D01*
X363996Y1528166D01*
Y1528833D01*
X363329Y1529499D01*
X361330D01*
X282500Y1593999D02*
Y1590666D01*
X283166Y1590000D01*
X284499D01*
X285166Y1590666D01*
Y1593999D01*
X286499Y1593332D02*
X287165Y1593999D01*
X288498D01*
X289164Y1593332D01*
Y1592666D01*
X288498Y1591999D01*
X287832D01*
X288498D01*
X289164Y1591333D01*
Y1590666D01*
X288498Y1590000D01*
X287165D01*
X286499Y1590666D01*
X301366Y1680232D02*
X300699Y1680899D01*
X299366D01*
X298700Y1680232D01*
Y1677566D01*
X299366Y1676900D01*
X300699D01*
X301366Y1677566D01*
X302699Y1676900D02*
X304032D01*
X303365D01*
Y1680899D01*
X302699Y1680232D01*
X306031Y1676900D02*
X307364D01*
X306697D01*
Y1680899D01*
X306031Y1680232D01*
X312029Y1680899D02*
X310696Y1680232D01*
X309363Y1678899D01*
Y1677566D01*
X310030Y1676900D01*
X311363D01*
X312029Y1677566D01*
Y1678233D01*
X311363Y1678899D01*
X309363D01*
X301366Y1656232D02*
X300699Y1656899D01*
X299366D01*
X298700Y1656232D01*
Y1653566D01*
X299366Y1652900D01*
X300699D01*
X301366Y1653566D01*
X302699Y1652900D02*
X304032D01*
X303365D01*
Y1656899D01*
X302699Y1656232D01*
X306031Y1652900D02*
X307364D01*
X306697D01*
Y1656899D01*
X306031Y1656232D01*
X312029Y1656899D02*
X309363D01*
Y1654899D01*
X310696Y1655566D01*
X311363D01*
X312029Y1654899D01*
Y1653566D01*
X311363Y1652900D01*
X310030D01*
X309363Y1653566D01*
X432500Y1512500D02*
Y1516499D01*
X434499D01*
X435166Y1515832D01*
Y1514499D01*
X434499Y1513833D01*
X432500D01*
X433833D02*
X435166Y1512500D01*
X436499D02*
X437832D01*
X437165D01*
Y1516499D01*
X436499Y1515832D01*
X439831D02*
X440497Y1516499D01*
X441830D01*
X442497Y1515832D01*
Y1515166D01*
X441830Y1514499D01*
X441164D01*
X441830D01*
X442497Y1513833D01*
Y1513167D01*
X441830Y1512500D01*
X440497D01*
X439831Y1513167D01*
X443830Y1515832D02*
X444496Y1516499D01*
X445829D01*
X446495Y1515832D01*
Y1515166D01*
X445829Y1514499D01*
X445163D01*
X445829D01*
X446495Y1513833D01*
Y1513167D01*
X445829Y1512500D01*
X444496D01*
X443830Y1513167D01*
X386700Y1511900D02*
Y1515899D01*
X388699D01*
X389366Y1515232D01*
Y1513899D01*
X388699Y1513233D01*
X386700D01*
X388033D02*
X389366Y1511900D01*
X390699D02*
X392032D01*
X391365D01*
Y1515899D01*
X390699Y1515232D01*
X394031D02*
X394697Y1515899D01*
X396030D01*
X396697Y1515232D01*
Y1514566D01*
X396030Y1513899D01*
X395364D01*
X396030D01*
X396697Y1513233D01*
Y1512566D01*
X396030Y1511900D01*
X394697D01*
X394031Y1512566D01*
X400696Y1511900D02*
X398030D01*
X400696Y1514566D01*
Y1515232D01*
X400029Y1515899D01*
X398696D01*
X398030Y1515232D01*
X408900Y1514799D02*
Y1511467D01*
X409566Y1510800D01*
X410899D01*
X411566Y1511467D01*
Y1514799D01*
X412899Y1510800D02*
X414232D01*
X413565D01*
Y1514799D01*
X412899Y1514132D01*
X416231D02*
X416897Y1514799D01*
X418230D01*
X418897Y1514132D01*
Y1511467D01*
X418230Y1510800D01*
X416897D01*
X416231Y1511467D01*
Y1514132D01*
X420230D02*
X420896Y1514799D01*
X422229D01*
X422895Y1514132D01*
Y1511467D01*
X422229Y1510800D01*
X420896D01*
X420230Y1511467D01*
Y1514132D01*
X426366Y1536232D02*
X425699Y1536899D01*
X424366D01*
X423700Y1536232D01*
Y1533566D01*
X424366Y1532900D01*
X425699D01*
X426366Y1533566D01*
X427699Y1532900D02*
X429032D01*
X428365D01*
Y1536899D01*
X427699Y1536232D01*
X431031D02*
X431697Y1536899D01*
X433030D01*
X433697Y1536232D01*
Y1533566D01*
X433030Y1532900D01*
X431697D01*
X431031Y1533566D01*
Y1536232D01*
X437029Y1532900D02*
Y1536899D01*
X435030Y1534899D01*
X437696D01*
X401866Y1535232D02*
X401199Y1535899D01*
X399866D01*
X399200Y1535232D01*
Y1532567D01*
X399866Y1531900D01*
X401199D01*
X401866Y1532567D01*
X403199Y1531900D02*
X404532D01*
X403865D01*
Y1535899D01*
X403199Y1535232D01*
X406531D02*
X407197Y1535899D01*
X408530D01*
X409197Y1535232D01*
Y1532567D01*
X408530Y1531900D01*
X407197D01*
X406531Y1532567D01*
Y1535232D01*
X410530D02*
X411196Y1535899D01*
X412529D01*
X413196Y1535232D01*
Y1534566D01*
X412529Y1533899D01*
X411863D01*
X412529D01*
X413196Y1533233D01*
Y1532567D01*
X412529Y1531900D01*
X411196D01*
X410530Y1532567D01*
X327500Y1422500D02*
X331499D01*
Y1420501D01*
X330832Y1419834D01*
X329499D01*
X328833Y1420501D01*
Y1422500D01*
Y1421167D02*
X327500Y1419834D01*
Y1418501D02*
Y1417168D01*
Y1417835D01*
X331499D01*
X330832Y1418501D01*
Y1415169D02*
X331499Y1414503D01*
Y1413170D01*
X330832Y1412503D01*
X328166D01*
X327500Y1413170D01*
Y1414503D01*
X328166Y1415169D01*
X330832D01*
X280700Y1401499D02*
Y1397500D01*
X282699D01*
X283366Y1398166D01*
Y1400832D01*
X282699Y1401499D01*
X280700D01*
X284699Y1397500D02*
X286032D01*
X285365D01*
Y1401499D01*
X284699Y1400832D01*
X315000Y1422500D02*
X318999D01*
Y1420501D01*
X318332Y1419834D01*
X316999D01*
X316333Y1420501D01*
Y1422500D01*
Y1421167D02*
X315000Y1419834D01*
Y1418501D02*
Y1417168D01*
Y1417835D01*
X318999D01*
X318332Y1418501D01*
X315000Y1415169D02*
Y1413836D01*
Y1414503D01*
X318999D01*
X318332Y1415169D01*
X340000Y1420000D02*
X343999D01*
Y1418001D01*
X343332Y1417334D01*
X341999D01*
X341333Y1418001D01*
Y1420000D01*
Y1418667D02*
X340000Y1417334D01*
X340666Y1416001D02*
X340000Y1415335D01*
Y1414002D01*
X340666Y1413336D01*
X343332D01*
X343999Y1414002D01*
Y1415335D01*
X343332Y1416001D01*
X342666D01*
X341999Y1415335D01*
Y1413336D01*
X277500Y1377500D02*
X281499D01*
Y1375501D01*
X280832Y1374834D01*
X279499D01*
X278833Y1375501D01*
Y1377500D01*
Y1376167D02*
X277500Y1374834D01*
X280832Y1373501D02*
X281499Y1372835D01*
Y1371502D01*
X280832Y1370835D01*
X280166D01*
X279499Y1371502D01*
X278833Y1370835D01*
X278166D01*
X277500Y1371502D01*
Y1372835D01*
X278166Y1373501D01*
X278833D01*
X279499Y1372835D01*
X280166Y1373501D01*
X280832D01*
X279499Y1372835D02*
Y1371502D01*
X277500Y1360000D02*
X281499D01*
Y1358001D01*
X280832Y1357334D01*
X279499D01*
X278833Y1358001D01*
Y1360000D01*
Y1358667D02*
X277500Y1357334D01*
X281499Y1356001D02*
Y1353335D01*
X280832D01*
X278166Y1356001D01*
X277500D01*
X293999Y1362500D02*
X290666D01*
X290000Y1361833D01*
Y1360501D01*
X290666Y1359834D01*
X293999D01*
X290000Y1358501D02*
Y1357168D01*
Y1357835D01*
X293999D01*
X293332Y1358501D01*
X290000Y1355169D02*
Y1353836D01*
Y1354503D01*
X293999D01*
X293332Y1355169D01*
X396499Y1362500D02*
X393166D01*
X392500Y1361833D01*
Y1360501D01*
X393166Y1359834D01*
X396499D01*
X392500Y1358501D02*
Y1357168D01*
Y1357835D01*
X396499D01*
X395832Y1358501D01*
Y1355169D02*
X396499Y1354503D01*
Y1353170D01*
X395832Y1352503D01*
X393166D01*
X392500Y1353170D01*
Y1354503D01*
X393166Y1355169D01*
X395832D01*
X339366Y1370732D02*
X338699Y1371399D01*
X337366D01*
X336700Y1370732D01*
Y1368067D01*
X337366Y1367400D01*
X338699D01*
X339366Y1368067D01*
X340699Y1367400D02*
X342032D01*
X341365D01*
Y1371399D01*
X340699Y1370732D01*
X346030Y1367400D02*
Y1371399D01*
X344031Y1369399D01*
X346697D01*
X403332Y1377334D02*
X403999Y1378001D01*
Y1379333D01*
X403332Y1380000D01*
X400666D01*
X400000Y1379333D01*
Y1378001D01*
X400666Y1377334D01*
X400000Y1376001D02*
Y1374668D01*
Y1375335D01*
X403999D01*
X403332Y1376001D01*
Y1372669D02*
X403999Y1372003D01*
Y1370670D01*
X403332Y1370003D01*
X402666D01*
X401999Y1370670D01*
Y1371336D01*
Y1370670D01*
X401333Y1370003D01*
X400666D01*
X400000Y1370670D01*
Y1372003D01*
X400666Y1372669D01*
X740832Y1329834D02*
X741499Y1330501D01*
Y1331833D01*
X740832Y1332500D01*
X738166D01*
X737500Y1331833D01*
Y1330501D01*
X738166Y1329834D01*
X737500Y1325836D02*
Y1328501D01*
X740166Y1325836D01*
X740832D01*
X741499Y1326502D01*
Y1327835D01*
X740832Y1328501D01*
X743332Y1369834D02*
X743999Y1370501D01*
Y1371834D01*
X743332Y1372500D01*
X740666D01*
X740000Y1371834D01*
Y1370501D01*
X740666Y1369834D01*
X740000Y1368501D02*
Y1367168D01*
Y1367835D01*
X743999D01*
X743332Y1368501D01*
X545000Y1305000D02*
X548999D01*
Y1303001D01*
X548332Y1302334D01*
X546999D01*
X546333Y1303001D01*
Y1305000D01*
Y1303667D02*
X545000Y1302334D01*
X548999Y1298335D02*
Y1301001D01*
X546999D01*
X547666Y1299668D01*
Y1299002D01*
X546999Y1298335D01*
X545666D01*
X545000Y1299002D01*
Y1300335D01*
X545666Y1301001D01*
X724200Y1321900D02*
Y1325899D01*
X726199D01*
X726866Y1325232D01*
Y1323899D01*
X726199Y1323233D01*
X724200D01*
X725533D02*
X726866Y1321900D01*
X728199Y1325232D02*
X728865Y1325899D01*
X730198D01*
X730864Y1325232D01*
Y1324566D01*
X730198Y1323899D01*
X729532D01*
X730198D01*
X730864Y1323233D01*
Y1322567D01*
X730198Y1321900D01*
X728865D01*
X728199Y1322567D01*
X491900Y1328300D02*
X495899D01*
Y1326301D01*
X495232Y1325634D01*
X493899D01*
X493233Y1326301D01*
Y1328300D01*
Y1326967D02*
X491900Y1325634D01*
Y1324301D02*
Y1322968D01*
Y1323635D01*
X495899D01*
X495232Y1324301D01*
X476668Y1342666D02*
X476001Y1341999D01*
Y1340666D01*
X476668Y1340000D01*
X479334D01*
X480000Y1340666D01*
Y1341999D01*
X479334Y1342666D01*
X476668Y1343999D02*
X476001Y1344665D01*
Y1345998D01*
X476668Y1346665D01*
X477334D01*
X478001Y1345998D01*
X478667Y1346665D01*
X479334D01*
X480000Y1345998D01*
Y1344665D01*
X479334Y1343999D01*
X478667D01*
X478001Y1344665D01*
X477334Y1343999D01*
X476668D01*
X478001Y1344665D02*
Y1345998D01*
X485166Y1388332D02*
X484499Y1388999D01*
X483166D01*
X482500Y1388332D01*
Y1385666D01*
X483166Y1385000D01*
X484499D01*
X485166Y1385666D01*
X486499Y1388999D02*
X489164D01*
Y1388332D01*
X486499Y1385666D01*
Y1385000D01*
X566866Y1358232D02*
X566199Y1358899D01*
X564866D01*
X564200Y1358232D01*
Y1355567D01*
X564866Y1354900D01*
X566199D01*
X566866Y1355567D01*
X570864Y1358899D02*
X569532Y1358232D01*
X568199Y1356899D01*
Y1355567D01*
X568865Y1354900D01*
X570198D01*
X570864Y1355567D01*
Y1356233D01*
X570198Y1356899D01*
X568199D01*
X567666Y1383332D02*
X566999Y1383999D01*
X565666D01*
X565000Y1383332D01*
Y1380667D01*
X565666Y1380000D01*
X566999D01*
X567666Y1380667D01*
X571664Y1383999D02*
X568999D01*
Y1381999D01*
X570332Y1382666D01*
X570998D01*
X571664Y1381999D01*
Y1380667D01*
X570998Y1380000D01*
X569665D01*
X568999Y1380667D01*
X649366Y1355732D02*
X648699Y1356399D01*
X647366D01*
X646700Y1355732D01*
Y1353067D01*
X647366Y1352400D01*
X648699D01*
X649366Y1353067D01*
X652698Y1352400D02*
Y1356399D01*
X650699Y1354399D01*
X653365D01*
X649366Y1380232D02*
X648699Y1380899D01*
X647366D01*
X646700Y1380232D01*
Y1377567D01*
X647366Y1376900D01*
X648699D01*
X649366Y1377567D01*
X650699Y1380232D02*
X651365Y1380899D01*
X652698D01*
X653365Y1380232D01*
Y1379566D01*
X652698Y1378899D01*
X652032D01*
X652698D01*
X653365Y1378233D01*
Y1377567D01*
X652698Y1376900D01*
X651365D01*
X650699Y1377567D01*
X637500Y1255000D02*
Y1258999D01*
X639499D01*
X640166Y1258332D01*
Y1256999D01*
X639499Y1256333D01*
X637500D01*
X644165Y1255000D02*
X641499D01*
X644165Y1257666D01*
Y1258332D01*
X643498Y1258999D01*
X642165D01*
X641499Y1258332D01*
X635000Y1397500D02*
Y1401499D01*
X636999D01*
X637666Y1400832D01*
Y1399499D01*
X636999Y1398833D01*
X635000D01*
X636333D02*
X637666Y1397500D01*
X641665Y1401499D02*
X640332Y1400832D01*
X638999Y1399499D01*
Y1398166D01*
X639665Y1397500D01*
X640998D01*
X641665Y1398166D01*
Y1398833D01*
X640998Y1399499D01*
X638999D01*
X717500Y1397500D02*
Y1401499D01*
X719499D01*
X720166Y1400832D01*
Y1399499D01*
X719499Y1398833D01*
X717500D01*
X718833D02*
X720166Y1397500D01*
X723498D02*
Y1401499D01*
X721499Y1399499D01*
X724164D01*
X470000Y1397500D02*
Y1401499D01*
X471999D01*
X472666Y1400832D01*
Y1399499D01*
X471999Y1398833D01*
X470000D01*
X471333D02*
X472666Y1397500D01*
X476664D02*
X473999D01*
X476664Y1400166D01*
Y1400832D01*
X475998Y1401499D01*
X474665D01*
X473999Y1400832D01*
X700166Y1250832D02*
X699499Y1251499D01*
X698166D01*
X697500Y1250832D01*
Y1248166D01*
X698166Y1247500D01*
X699499D01*
X700166Y1248166D01*
X701499Y1247500D02*
X702832D01*
X702165D01*
Y1251499D01*
X701499Y1250832D01*
X707497Y1247500D02*
X704831D01*
X707497Y1250166D01*
Y1250832D01*
X706830Y1251499D01*
X705497D01*
X704831Y1250832D01*
X415832Y1399834D02*
X416499Y1400501D01*
Y1401834D01*
X415832Y1402500D01*
X413166D01*
X412500Y1401834D01*
Y1400501D01*
X413166Y1399834D01*
X412500Y1398501D02*
Y1397168D01*
Y1397835D01*
X416499D01*
X415832Y1398501D01*
X412500Y1395169D02*
Y1393836D01*
Y1394503D01*
X416499D01*
X415832Y1395169D01*
X327666Y1248332D02*
X326999Y1248999D01*
X325666D01*
X325000Y1248332D01*
Y1245667D01*
X325666Y1245000D01*
X326999D01*
X327666Y1245667D01*
X328999Y1245000D02*
X330332D01*
X329665D01*
Y1248999D01*
X328999Y1248332D01*
X332331D02*
X332997Y1248999D01*
X334330D01*
X334997Y1248332D01*
Y1245667D01*
X334330Y1245000D01*
X332997D01*
X332331Y1245667D01*
Y1248332D01*
X567666Y1405832D02*
X566999Y1406499D01*
X565666D01*
X565000Y1405832D01*
Y1403166D01*
X565666Y1402500D01*
X566999D01*
X567666Y1403166D01*
X568999D02*
X569665Y1402500D01*
X570998D01*
X571664Y1403166D01*
Y1405832D01*
X570998Y1406499D01*
X569665D01*
X568999Y1405832D01*
Y1405166D01*
X569665Y1404499D01*
X571664D01*
X492500Y1125000D02*
Y1128999D01*
X494499D01*
X495166Y1128332D01*
Y1126999D01*
X494499Y1126333D01*
X492500D01*
X496499Y1125000D02*
X497832D01*
X497165D01*
Y1128999D01*
X496499Y1128332D01*
X719168Y1662666D02*
X718501Y1661999D01*
Y1660666D01*
X719168Y1660000D01*
X721834D01*
X722500Y1660666D01*
Y1661999D01*
X721834Y1662666D01*
X722500Y1663999D02*
Y1665332D01*
Y1664665D01*
X718501D01*
X719168Y1663999D01*
X722500Y1667331D02*
Y1668664D01*
Y1667997D01*
X718501D01*
X719168Y1667331D01*
X718501Y1670663D02*
Y1673329D01*
X719168D01*
X721834Y1670663D01*
X722500D01*
X741668Y1667666D02*
X741001Y1666999D01*
Y1665666D01*
X741668Y1665000D01*
X744334D01*
X745000Y1665666D01*
Y1666999D01*
X744334Y1667666D01*
X745000Y1668999D02*
Y1670332D01*
Y1669665D01*
X741001D01*
X741668Y1668999D01*
X745000Y1672331D02*
Y1673664D01*
Y1672997D01*
X741001D01*
X741668Y1672331D01*
Y1675663D02*
X741001Y1676330D01*
Y1677663D01*
X741668Y1678329D01*
X742334D01*
X743001Y1677663D01*
X743667Y1678329D01*
X744334D01*
X745000Y1677663D01*
Y1676330D01*
X744334Y1675663D01*
X743667D01*
X743001Y1676330D01*
X742334Y1675663D01*
X741668D01*
X743001Y1676330D02*
Y1677663D01*
X367500Y1575000D02*
Y1578999D01*
X369499D01*
X370166Y1578332D01*
Y1576999D01*
X369499Y1576333D01*
X367500D01*
X368833D02*
X370166Y1575000D01*
X371499D02*
X372832D01*
X372165D01*
Y1578999D01*
X371499Y1578332D01*
X374831D02*
X375497Y1578999D01*
X376830D01*
X377497Y1578332D01*
Y1577666D01*
X376830Y1576999D01*
X376164D01*
X376830D01*
X377497Y1576333D01*
Y1575667D01*
X376830Y1575000D01*
X375497D01*
X374831Y1575667D01*
X380829Y1575000D02*
Y1578999D01*
X378830Y1576999D01*
X381495D01*
X372500Y1565000D02*
Y1568999D01*
X374499D01*
X375166Y1568332D01*
Y1566999D01*
X374499Y1566333D01*
X372500D01*
X373833D02*
X375166Y1565000D01*
X376499D02*
X377832D01*
X377165D01*
Y1568999D01*
X376499Y1568332D01*
X379831D02*
X380497Y1568999D01*
X381830D01*
X382497Y1568332D01*
Y1567666D01*
X381830Y1566999D01*
X381164D01*
X381830D01*
X382497Y1566333D01*
Y1565666D01*
X381830Y1565000D01*
X380497D01*
X379831Y1565666D01*
X386495Y1568999D02*
X383830D01*
Y1566999D01*
X385163Y1567666D01*
X385829D01*
X386495Y1566999D01*
Y1565666D01*
X385829Y1565000D01*
X384496D01*
X383830Y1565666D01*
X285000Y1580000D02*
X288999D01*
Y1578001D01*
X288332Y1577334D01*
X286999D01*
X286333Y1578001D01*
Y1580000D01*
X288999Y1573335D02*
X288332Y1574668D01*
X286999Y1576001D01*
X285666D01*
X285000Y1575335D01*
Y1574002D01*
X285666Y1573335D01*
X286333D01*
X286999Y1574002D01*
Y1576001D01*
X285000Y1570000D02*
X288999D01*
Y1568001D01*
X288332Y1567334D01*
X286999D01*
X286333Y1568001D01*
Y1570000D01*
X288999Y1563336D02*
Y1566001D01*
X286999D01*
X287666Y1564668D01*
Y1564002D01*
X286999Y1563336D01*
X285666D01*
X285000Y1564002D01*
Y1565335D01*
X285666Y1566001D01*
X712500Y1285000D02*
X708501D01*
Y1286999D01*
X709168Y1287666D01*
X710501D01*
X711167Y1286999D01*
Y1285000D01*
Y1286333D02*
X712500Y1287666D01*
Y1288999D02*
Y1290332D01*
Y1289665D01*
X708501D01*
X709168Y1288999D01*
Y1292331D02*
X708501Y1292997D01*
Y1294330D01*
X709168Y1294997D01*
X711834D01*
X712500Y1294330D01*
Y1292997D01*
X711834Y1292331D01*
X709168D01*
Y1296330D02*
X708501Y1296996D01*
Y1298329D01*
X709168Y1298995D01*
X711834D01*
X712500Y1298329D01*
Y1296996D01*
X711834Y1296330D01*
X709168D01*
X705000Y1285000D02*
X701001D01*
Y1286999D01*
X701668Y1287666D01*
X703001D01*
X703667Y1286999D01*
Y1285000D01*
Y1286333D02*
X705000Y1287666D01*
Y1288999D02*
Y1290332D01*
Y1289665D01*
X701001D01*
X701668Y1288999D01*
Y1292331D02*
X701001Y1292997D01*
Y1294330D01*
X701668Y1294997D01*
X704334D01*
X705000Y1294330D01*
Y1292997D01*
X704334Y1292331D01*
X701668D01*
X705000Y1296330D02*
Y1297663D01*
Y1296996D01*
X701001D01*
X701668Y1296330D01*
X697500Y1285000D02*
X693501D01*
Y1286999D01*
X694168Y1287666D01*
X695501D01*
X696167Y1286999D01*
Y1285000D01*
Y1286333D02*
X697500Y1287666D01*
Y1288999D02*
Y1290332D01*
Y1289665D01*
X693501D01*
X694168Y1288999D01*
Y1292331D02*
X693501Y1292997D01*
Y1294330D01*
X694168Y1294997D01*
X696834D01*
X697500Y1294330D01*
Y1292997D01*
X696834Y1292331D01*
X694168D01*
X697500Y1298995D02*
Y1296330D01*
X694834Y1298995D01*
X694168D01*
X693501Y1298329D01*
Y1296996D01*
X694168Y1296330D01*
X690000Y1285000D02*
X686001D01*
Y1286999D01*
X686668Y1287666D01*
X688001D01*
X688667Y1286999D01*
Y1285000D01*
Y1286333D02*
X690000Y1287666D01*
Y1288999D02*
Y1290332D01*
Y1289665D01*
X686001D01*
X686668Y1288999D01*
Y1292331D02*
X686001Y1292997D01*
Y1294330D01*
X686668Y1294997D01*
X689334D01*
X690000Y1294330D01*
Y1292997D01*
X689334Y1292331D01*
X686668D01*
Y1296330D02*
X686001Y1296996D01*
Y1298329D01*
X686668Y1298995D01*
X687334D01*
X688001Y1298329D01*
Y1297663D01*
Y1298329D01*
X688667Y1298995D01*
X689334D01*
X690000Y1298329D01*
Y1296996D01*
X689334Y1296330D01*
X682500Y1285000D02*
X678501D01*
Y1286999D01*
X679168Y1287666D01*
X680501D01*
X681167Y1286999D01*
Y1285000D01*
Y1286333D02*
X682500Y1287666D01*
Y1288999D02*
Y1290332D01*
Y1289665D01*
X678501D01*
X679168Y1288999D01*
Y1292331D02*
X678501Y1292997D01*
Y1294330D01*
X679168Y1294997D01*
X681834D01*
X682500Y1294330D01*
Y1292997D01*
X681834Y1292331D01*
X679168D01*
X682500Y1298329D02*
X678501D01*
X680501Y1296330D01*
Y1298995D01*
X675000Y1285000D02*
X671001D01*
Y1286999D01*
X671668Y1287666D01*
X673001D01*
X673667Y1286999D01*
Y1285000D01*
Y1286333D02*
X675000Y1287666D01*
Y1288999D02*
Y1290332D01*
Y1289665D01*
X671001D01*
X671668Y1288999D01*
Y1292331D02*
X671001Y1292997D01*
Y1294330D01*
X671668Y1294997D01*
X674334D01*
X675000Y1294330D01*
Y1292997D01*
X674334Y1292331D01*
X671668D01*
X671001Y1298995D02*
Y1296330D01*
X673001D01*
X672334Y1297663D01*
Y1298329D01*
X673001Y1298995D01*
X674334D01*
X675000Y1298329D01*
Y1296996D01*
X674334Y1296330D01*
X667500Y1285000D02*
X663501D01*
Y1286999D01*
X664168Y1287666D01*
X665501D01*
X666167Y1286999D01*
Y1285000D01*
Y1286333D02*
X667500Y1287666D01*
Y1288999D02*
Y1290332D01*
Y1289665D01*
X663501D01*
X664168Y1288999D01*
Y1292331D02*
X663501Y1292997D01*
Y1294330D01*
X664168Y1294997D01*
X666834D01*
X667500Y1294330D01*
Y1292997D01*
X666834Y1292331D01*
X664168D01*
X663501Y1298995D02*
X664168Y1297663D01*
X665501Y1296330D01*
X666834D01*
X667500Y1296996D01*
Y1298329D01*
X666834Y1298995D01*
X666167D01*
X665501Y1298329D01*
Y1296330D01*
X660000Y1285000D02*
X656001D01*
Y1286999D01*
X656668Y1287666D01*
X658001D01*
X658667Y1286999D01*
Y1285000D01*
Y1286333D02*
X660000Y1287666D01*
Y1288999D02*
Y1290332D01*
Y1289665D01*
X656001D01*
X656668Y1288999D01*
Y1292331D02*
X656001Y1292997D01*
Y1294330D01*
X656668Y1294997D01*
X659334D01*
X660000Y1294330D01*
Y1292997D01*
X659334Y1292331D01*
X656668D01*
X656001Y1296330D02*
Y1298995D01*
X656668D01*
X659334Y1296330D01*
X660000D01*
X820000Y1199998D02*
X824998D01*
X822499D01*
Y1192500D01*
X828747D02*
X831246D01*
X832496Y1193750D01*
Y1196249D01*
X831246Y1197498D01*
X828747D01*
X827498Y1196249D01*
Y1193750D01*
X828747Y1192500D01*
X834995Y1190001D02*
Y1197498D01*
X838744D01*
X839993Y1196249D01*
Y1193750D01*
X838744Y1192500D01*
X834995D01*
X853739Y1199998D02*
X851240D01*
X849990Y1198748D01*
Y1193750D01*
X851240Y1192500D01*
X853739D01*
X854989Y1193750D01*
Y1198748D01*
X853739Y1199998D01*
X857488Y1197498D02*
X859987Y1192500D01*
X862486Y1197498D01*
X868734Y1192500D02*
X866235D01*
X864985Y1193750D01*
Y1196249D01*
X866235Y1197498D01*
X868734D01*
X869984Y1196249D01*
Y1194999D01*
X864985D01*
X872483Y1197498D02*
Y1192500D01*
Y1194999D01*
X873733Y1196249D01*
X874982Y1197498D01*
X876232D01*
X879981Y1192500D02*
X882480D01*
X881230D01*
Y1199998D01*
X879981D01*
X887478Y1197498D02*
X889977D01*
X891227Y1196249D01*
Y1192500D01*
X887478D01*
X886229Y1193750D01*
X887478Y1194999D01*
X891227D01*
X893726Y1197498D02*
Y1193750D01*
X894976Y1192500D01*
X898725D01*
Y1191250D01*
X897475Y1190001D01*
X896225D01*
X898725Y1192500D02*
Y1197498D01*
X445000Y1562500D02*
Y1567498D01*
X446666Y1565832D01*
X448332Y1567498D01*
Y1562500D01*
X449998D02*
Y1565832D01*
X451664Y1567498D01*
X453331Y1565832D01*
Y1562500D01*
Y1564999D01*
X449998D01*
X458329Y1566665D02*
X457496Y1567498D01*
X455830D01*
X454997Y1566665D01*
Y1563333D01*
X455830Y1562500D01*
X457496D01*
X458329Y1563333D01*
X701499Y1477498D02*
X700499Y1478498D01*
X698500D01*
X697500Y1477498D01*
Y1476499D01*
X698500Y1475499D01*
X700499D01*
X701499Y1474499D01*
Y1473500D01*
X700499Y1472500D01*
X698500D01*
X697500Y1473500D01*
X703498Y1478498D02*
Y1472500D01*
X706497D01*
X707497Y1473500D01*
Y1477498D01*
X706497Y1478498D01*
X703498D01*
X719493Y1477498D02*
X718493Y1478498D01*
X716494D01*
X715494Y1477498D01*
Y1473500D01*
X716494Y1472500D01*
X718493D01*
X719493Y1473500D01*
X722492Y1476499D02*
X724491D01*
X725491Y1475499D01*
Y1472500D01*
X722492D01*
X721492Y1473500D01*
X722492Y1474499D01*
X725491D01*
X727490Y1476499D02*
Y1472500D01*
Y1474499D01*
X728490Y1475499D01*
X729490Y1476499D01*
X730489D01*
X737487Y1478498D02*
Y1472500D01*
X734488D01*
X733488Y1473500D01*
Y1475499D01*
X734488Y1476499D01*
X737487D01*
X423999Y1172498D02*
X422999Y1173498D01*
X421000D01*
X420000Y1172498D01*
Y1168500D01*
X421000Y1167500D01*
X422999D01*
X423999Y1168500D01*
X429997Y1173498D02*
X427997Y1172498D01*
X425998Y1170499D01*
Y1168500D01*
X426998Y1167500D01*
X428997D01*
X429997Y1168500D01*
Y1169499D01*
X428997Y1170499D01*
X425998D01*
X434995Y1167500D02*
Y1173498D01*
X431996Y1170499D01*
X435995D01*
X443992D02*
X447991D01*
X445992Y1172498D02*
Y1168500D01*
X453989Y1173498D02*
X449990D01*
Y1170499D01*
X451990Y1171499D01*
X452989D01*
X453989Y1170499D01*
Y1168500D01*
X452989Y1167500D01*
X450990D01*
X449990Y1168500D01*
X455988Y1173498D02*
Y1169499D01*
X457988Y1167500D01*
X459987Y1169499D01*
Y1173498D01*
X741502Y1268999D02*
Y1265000D01*
X744501D01*
Y1266999D01*
Y1265000D01*
X747500D01*
Y1270998D02*
X741502D01*
Y1273997D01*
X742502Y1274997D01*
X744501D01*
X745501Y1273997D01*
Y1270998D01*
X742502Y1280995D02*
X741502Y1279995D01*
Y1277996D01*
X742502Y1276996D01*
X746500D01*
X747500Y1277996D01*
Y1279995D01*
X746500Y1280995D01*
X744501D01*
Y1278996D01*
X747500Y1282994D02*
X743501D01*
X741502Y1284993D01*
X743501Y1286993D01*
X747500D01*
X744501D01*
Y1282994D01*
Y1294990D02*
Y1298989D01*
X742502Y1296990D02*
X746500D01*
X741502Y1304987D02*
Y1300988D01*
X744501D01*
X743501Y1302988D01*
Y1303987D01*
X744501Y1304987D01*
X746500D01*
X747500Y1303987D01*
Y1301988D01*
X746500Y1300988D01*
X741502Y1306986D02*
X745501D01*
X747500Y1308986D01*
X745501Y1310985D01*
X741502D01*
X282502Y1643999D02*
X281502Y1642999D01*
Y1641000D01*
X282502Y1640000D01*
X283501D01*
X284501Y1641000D01*
Y1642999D01*
X285501Y1643999D01*
X286500D01*
X287500Y1642999D01*
Y1641000D01*
X286500Y1640000D01*
X287500Y1648997D02*
Y1646998D01*
X286500Y1645998D01*
X284501D01*
X283501Y1646998D01*
Y1648997D01*
X284501Y1649997D01*
X285501D01*
Y1645998D01*
X283501Y1651996D02*
X287500D01*
X285501D01*
X284501Y1652996D01*
X283501Y1653996D01*
Y1654995D01*
X287500Y1657994D02*
Y1659994D01*
Y1658994D01*
X283501D01*
Y1657994D01*
Y1663992D02*
Y1665992D01*
X284501Y1666991D01*
X287500D01*
Y1663992D01*
X286500Y1662993D01*
X285501Y1663992D01*
Y1666991D01*
X287500Y1668991D02*
Y1670990D01*
Y1669990D01*
X281502D01*
Y1668991D01*
X298332Y1574165D02*
X297499Y1574998D01*
X295833D01*
X295000Y1574165D01*
Y1570833D01*
X295833Y1570000D01*
X297499D01*
X298332Y1570833D01*
X300831Y1570000D02*
X302498D01*
X303331Y1570833D01*
Y1572499D01*
X302498Y1573332D01*
X300831D01*
X299998Y1572499D01*
Y1570833D01*
X300831Y1570000D01*
X304997Y1573332D02*
Y1570000D01*
Y1571666D01*
X305830Y1572499D01*
X306663Y1573332D01*
X307496D01*
X312494Y1570000D02*
X310828D01*
X309995Y1570833D01*
Y1572499D01*
X310828Y1573332D01*
X312494D01*
X313327Y1572499D01*
Y1571666D01*
X309995D01*
X323324Y1574165D02*
X322491Y1574998D01*
X320825D01*
X319992Y1574165D01*
Y1573332D01*
X320825Y1572499D01*
X322491D01*
X323324Y1571666D01*
Y1570833D01*
X322491Y1570000D01*
X320825D01*
X319992Y1570833D01*
X327489Y1570000D02*
X325823D01*
X324990Y1570833D01*
Y1572499D01*
X325823Y1573332D01*
X327489D01*
X328323Y1572499D01*
Y1571666D01*
X324990D01*
X329989Y1570000D02*
X331655D01*
X330822D01*
Y1574998D01*
X329989D01*
X430000Y1200000D02*
X427334D01*
Y1201999D01*
X428001Y1202666D01*
X430000D01*
Y1203999D02*
X426001D01*
Y1205998D01*
X426668Y1206664D01*
X428001D01*
X428667Y1205998D01*
Y1203999D01*
Y1205332D02*
X430000Y1206664D01*
X426001Y1209997D02*
Y1208664D01*
X426668Y1207997D01*
X429334D01*
X430000Y1208664D01*
Y1209997D01*
X429334Y1210663D01*
X426668D01*
X426001Y1209997D01*
X430000Y1211996D02*
X426001D01*
X427334Y1213329D01*
X426001Y1214662D01*
X430000D01*
X426001Y1215995D02*
X430000D01*
X428001D01*
Y1218661D01*
X426001D01*
X430000D01*
Y1219993D02*
X427334Y1222659D01*
X430000Y1223992D02*
X427334D01*
Y1225992D01*
X428001Y1226658D01*
X430000D01*
Y1227991D02*
X426001D01*
Y1229990D01*
X426668Y1230657D01*
X428001D01*
X428667Y1229990D01*
Y1227991D01*
Y1229324D02*
X430000Y1230657D01*
X426668Y1234655D02*
X426001Y1233989D01*
Y1232656D01*
X426668Y1231990D01*
X427334D01*
X428001Y1232656D01*
Y1233989D01*
X428667Y1234655D01*
X429334D01*
X430000Y1233989D01*
Y1232656D01*
X429334Y1231990D01*
X426001Y1235988D02*
Y1238654D01*
Y1237321D01*
X430000D01*
X440000Y1200000D02*
X437334D01*
Y1201999D01*
X438001Y1202666D01*
X440000D01*
X436001Y1203999D02*
Y1205332D01*
Y1204665D01*
X440000D01*
Y1203999D01*
Y1205332D01*
Y1207331D02*
X436001D01*
Y1209330D01*
X436668Y1209997D01*
X438001D01*
X438667Y1209330D01*
Y1207331D01*
Y1208664D02*
X440000Y1209997D01*
X439334Y1213995D02*
X436668D01*
X436001Y1213329D01*
Y1211996D01*
X436668Y1211330D01*
X439334D01*
X440000Y1211996D01*
Y1213329D01*
X438667Y1212663D02*
X440000Y1213995D01*
Y1213329D02*
X439334Y1213995D01*
X440000Y1215328D02*
X437334Y1217994D01*
X440000Y1219327D02*
X437334D01*
Y1221326D01*
X438001Y1221993D01*
X440000D01*
Y1223326D02*
X436001D01*
X440000Y1225992D01*
X436001D01*
X440000Y1227324D02*
X436001D01*
X437334Y1228657D01*
X436001Y1229990D01*
X440000D01*
X436001Y1231323D02*
Y1232656D01*
Y1231990D01*
X440000D01*
Y1231323D01*
Y1232656D01*
X450000Y1200000D02*
X446001D01*
Y1201999D01*
X446668Y1202666D01*
X448001D01*
X448667Y1201999D01*
Y1200000D01*
Y1201333D02*
X450000Y1202666D01*
Y1203999D02*
X447334D01*
Y1205998D01*
X448001Y1206664D01*
X450000D01*
X446001Y1207997D02*
X450000D01*
X448667Y1209330D01*
X450000Y1210663D01*
X446001D01*
X450000Y1211996D02*
X447334Y1214662D01*
X450000Y1215995D02*
X446001D01*
Y1217994D01*
X446668Y1218661D01*
X448001D01*
X448667Y1217994D01*
Y1215995D01*
X446001Y1219993D02*
X450000D01*
X448001D01*
Y1222659D01*
X446001D01*
X450000D01*
Y1226658D02*
Y1223992D01*
X447334Y1226658D01*
X446668D01*
X446001Y1225992D01*
Y1224659D01*
X446668Y1223992D01*
X456001Y1200000D02*
X460000D01*
Y1201999D01*
X459334Y1202666D01*
X456668D01*
X456001Y1201999D01*
Y1200000D01*
Y1205998D02*
Y1204665D01*
X456668Y1203999D01*
X459334D01*
X460000Y1204665D01*
Y1205998D01*
X459334Y1206664D01*
X456668D01*
X456001Y1205998D01*
Y1207997D02*
Y1210663D01*
Y1209330D01*
X460000D01*
X456668Y1214662D02*
X456001Y1213995D01*
Y1212663D01*
X456668Y1211996D01*
X459334D01*
X460000Y1212663D01*
Y1213995D01*
X459334Y1214662D01*
X456001Y1215995D02*
X460000D01*
Y1218661D01*
X456001Y1219993D02*
X460000D01*
X458667D01*
X456001Y1222659D01*
X458001Y1220660D01*
X460000Y1222659D01*
Y1223992D02*
X457334Y1226658D01*
X456668Y1230657D02*
X456001Y1229990D01*
Y1228657D01*
X456668Y1227991D01*
X459334D01*
X460000Y1228657D01*
Y1229990D01*
X459334Y1230657D01*
X460000Y1231990D02*
X457334D01*
X456001Y1233323D01*
X457334Y1234655D01*
X460000D01*
X458001D01*
Y1231990D01*
X460000Y1235988D02*
Y1237321D01*
Y1236655D01*
X456001D01*
X456668Y1235988D01*
X456001Y1241986D02*
Y1239321D01*
X458001D01*
X457334Y1240654D01*
Y1241320D01*
X458001Y1241986D01*
X459334D01*
X460000Y1241320D01*
Y1239987D01*
X459334Y1239321D01*
X470000Y1200000D02*
X467334D01*
Y1201999D01*
X468001Y1202666D01*
X470000D01*
X466001Y1203999D02*
Y1205332D01*
Y1204665D01*
X470000D01*
Y1203999D01*
Y1205332D01*
X466001Y1209330D02*
Y1207997D01*
X466668Y1207331D01*
X469334D01*
X470000Y1207997D01*
Y1209330D01*
X469334Y1209997D01*
X466668D01*
X466001Y1209330D01*
X470000Y1211330D02*
Y1212663D01*
Y1211996D01*
X466001D01*
X466668Y1211330D01*
X470000Y1214662D02*
X467334Y1217328D01*
X466668Y1221326D02*
X466001Y1220660D01*
Y1219327D01*
X466668Y1218661D01*
X469334D01*
X470000Y1219327D01*
Y1220660D01*
X469334Y1221326D01*
X470000Y1222659D02*
X467334D01*
X466001Y1223992D01*
X467334Y1225325D01*
X470000D01*
X468001D01*
Y1222659D01*
X470000Y1226658D02*
Y1227991D01*
Y1227324D01*
X466001D01*
X466668Y1226658D01*
X470000Y1231990D02*
X466001D01*
X468001Y1229990D01*
Y1232656D01*
X480000Y1200000D02*
X477334D01*
Y1201999D01*
X478001Y1202666D01*
X480000D01*
X476668Y1206664D02*
X476001Y1205998D01*
Y1204665D01*
X476668Y1203999D01*
X479334D01*
X480000Y1204665D01*
Y1205998D01*
X479334Y1206664D01*
X478001D01*
Y1205332D01*
X480000Y1207997D02*
X477334D01*
X476001Y1209330D01*
X477334Y1210663D01*
X480000D01*
X478001D01*
Y1207997D01*
X480000Y1211996D02*
X476001D01*
X477334Y1213329D01*
X476001Y1214662D01*
X480000D01*
X476001Y1218661D02*
Y1215995D01*
X480000D01*
Y1218661D01*
X478001Y1215995D02*
Y1217328D01*
X480000Y1219993D02*
X477334Y1222659D01*
X476668Y1226658D02*
X476001Y1225992D01*
Y1224659D01*
X476668Y1223992D01*
X479334D01*
X480000Y1224659D01*
Y1225992D01*
X479334Y1226658D01*
X480000Y1227991D02*
X477334D01*
X476001Y1229324D01*
X477334Y1230657D01*
X480000D01*
X478001D01*
Y1227991D01*
X480000Y1231990D02*
Y1233323D01*
Y1232656D01*
X476001D01*
X476668Y1231990D01*
Y1235322D02*
X476001Y1235988D01*
Y1237321D01*
X476668Y1237988D01*
X477334D01*
X478001Y1237321D01*
Y1236655D01*
Y1237321D01*
X478667Y1237988D01*
X479334D01*
X480000Y1237321D01*
Y1235988D01*
X479334Y1235322D01*
X490000Y1200000D02*
X487334D01*
Y1201999D01*
X488001Y1202666D01*
X490000D01*
X486001Y1206664D02*
Y1203999D01*
X490000D01*
Y1206664D01*
X488001Y1203999D02*
Y1205332D01*
X486001Y1207997D02*
X490000Y1210663D01*
X486001D02*
X490000Y1207997D01*
Y1211996D02*
X486001D01*
Y1213995D01*
X486668Y1214662D01*
X488001D01*
X488667Y1213995D01*
Y1211996D01*
Y1213329D02*
X490000Y1214662D01*
X486001Y1217994D02*
Y1216661D01*
X486668Y1215995D01*
X489334D01*
X490000Y1216661D01*
Y1217994D01*
X489334Y1218661D01*
X486668D01*
X486001Y1217994D01*
X490000Y1219993D02*
X486001D01*
X487334Y1221326D01*
X486001Y1222659D01*
X490000D01*
Y1223992D02*
X487334Y1226658D01*
X486668Y1230657D02*
X486001Y1229990D01*
Y1228657D01*
X486668Y1227991D01*
X489334D01*
X490000Y1228657D01*
Y1229990D01*
X489334Y1230657D01*
X490000Y1231990D02*
X487334D01*
X486001Y1233323D01*
X487334Y1234655D01*
X490000D01*
X488001D01*
Y1231990D01*
X490000Y1235988D02*
Y1237321D01*
Y1236655D01*
X486001D01*
X486668Y1235988D01*
X490000Y1241986D02*
Y1239321D01*
X487334Y1241986D01*
X486668D01*
X486001Y1241320D01*
Y1239987D01*
X486668Y1239321D01*
X500000Y1200000D02*
X497334D01*
Y1201999D01*
X498001Y1202666D01*
X500000D01*
X496001Y1203999D02*
Y1205332D01*
Y1204665D01*
X500000D01*
Y1203999D01*
Y1205332D01*
X496001Y1209330D02*
Y1207997D01*
X496668Y1207331D01*
X499334D01*
X500000Y1207997D01*
Y1209330D01*
X499334Y1209997D01*
X496668D01*
X496001Y1209330D01*
X500000Y1213995D02*
Y1211330D01*
X497334Y1213995D01*
X496668D01*
X496001Y1213329D01*
Y1211996D01*
X496668Y1211330D01*
X500000Y1215328D02*
X497334Y1217994D01*
X496668Y1221993D02*
X496001Y1221326D01*
Y1219993D01*
X496668Y1219327D01*
X499334D01*
X500000Y1219993D01*
Y1221326D01*
X499334Y1221993D01*
X500000Y1223326D02*
X497334D01*
X496001Y1224659D01*
X497334Y1225992D01*
X500000D01*
X498001D01*
Y1223326D01*
X500000Y1227324D02*
Y1228657D01*
Y1227991D01*
X496001D01*
X496668Y1227324D01*
X500000Y1230657D02*
Y1231990D01*
Y1231323D01*
X496001D01*
X496668Y1230657D01*
X510000Y1200000D02*
X507334D01*
Y1201999D01*
X508001Y1202666D01*
X510000D01*
Y1203999D02*
X506001D01*
Y1205998D01*
X506668Y1206664D01*
X508001D01*
X508667Y1205998D01*
Y1203999D01*
Y1205332D02*
X510000Y1206664D01*
X506001Y1209997D02*
Y1208664D01*
X506668Y1207997D01*
X509334D01*
X510000Y1208664D01*
Y1209997D01*
X509334Y1210663D01*
X506668D01*
X506001Y1209997D01*
X510000Y1211996D02*
X506001D01*
X507334Y1213329D01*
X506001Y1214662D01*
X510000D01*
X506001Y1215995D02*
X510000D01*
Y1218661D01*
Y1219993D02*
X507334Y1222659D01*
X506668Y1226658D02*
X506001Y1225992D01*
Y1224659D01*
X506668Y1223992D01*
X509334D01*
X510000Y1224659D01*
Y1225992D01*
X509334Y1226658D01*
X510000Y1227991D02*
X507334D01*
X506001Y1229324D01*
X507334Y1230657D01*
X510000D01*
X508001D01*
Y1227991D01*
X510000Y1231990D02*
Y1233323D01*
Y1232656D01*
X506001D01*
X506668Y1231990D01*
Y1235322D02*
X506001Y1235988D01*
Y1237321D01*
X506668Y1237988D01*
X509334D01*
X510000Y1237321D01*
Y1235988D01*
X509334Y1235322D01*
X506668D01*
X516001Y1200000D02*
X520000D01*
Y1201999D01*
X519334Y1202666D01*
X518667D01*
X518001Y1201999D01*
Y1200000D01*
Y1201999D01*
X517334Y1202666D01*
X516668D01*
X516001Y1201999D01*
Y1200000D01*
X520000Y1203999D02*
X517334D01*
X516001Y1205332D01*
X517334Y1206664D01*
X520000D01*
X518001D01*
Y1203999D01*
X520000Y1207997D02*
X517334Y1210663D01*
X516668Y1214662D02*
X516001Y1213995D01*
Y1212663D01*
X516668Y1211996D01*
X519334D01*
X520000Y1212663D01*
Y1213995D01*
X519334Y1214662D01*
X520000Y1215995D02*
X517334D01*
X516001Y1217328D01*
X517334Y1218661D01*
X520000D01*
X518001D01*
Y1215995D01*
X519334Y1219993D02*
X520000Y1220660D01*
Y1221993D01*
X519334Y1222659D01*
X516668D01*
X516001Y1221993D01*
Y1220660D01*
X516668Y1219993D01*
X517334D01*
X518001Y1220660D01*
Y1222659D01*
X530000Y1200000D02*
X527334D01*
Y1201999D01*
X528001Y1202666D01*
X530000D01*
X526001Y1203999D02*
X530000D01*
Y1205998D01*
X529334Y1206664D01*
X526668D01*
X526001Y1205998D01*
Y1203999D01*
X530000Y1207997D02*
X526001D01*
X527334Y1209330D01*
X526001Y1210663D01*
X530000D01*
Y1211996D02*
X527334D01*
X526001Y1213329D01*
X527334Y1214662D01*
X530000D01*
X528001D01*
Y1211996D01*
X530000Y1215995D02*
X527334Y1218661D01*
X526668Y1222659D02*
X526001Y1221993D01*
Y1220660D01*
X526668Y1219993D01*
X529334D01*
X530000Y1220660D01*
Y1221993D01*
X529334Y1222659D01*
X530000Y1223992D02*
X527334D01*
X526001Y1225325D01*
X527334Y1226658D01*
X530000D01*
X528001D01*
Y1223992D01*
X526668Y1227991D02*
X526001Y1228657D01*
Y1229990D01*
X526668Y1230657D01*
X527334D01*
X528001Y1229990D01*
X528667Y1230657D01*
X529334D01*
X530000Y1229990D01*
Y1228657D01*
X529334Y1227991D01*
X528667D01*
X528001Y1228657D01*
X527334Y1227991D01*
X526668D01*
X528001Y1228657D02*
Y1229990D01*
X536668Y1202666D02*
X536001Y1201999D01*
Y1200667D01*
X536668Y1200000D01*
X539334D01*
X540000Y1200667D01*
Y1201999D01*
X539334Y1202666D01*
X536001Y1203999D02*
X540000D01*
Y1205998D01*
X539334Y1206664D01*
X536668D01*
X536001Y1205998D01*
Y1203999D01*
Y1207997D02*
Y1210663D01*
X536668D01*
X539334Y1207997D01*
X540000D01*
Y1211996D02*
X537334Y1214662D01*
X536668Y1218661D02*
X536001Y1217994D01*
Y1216661D01*
X536668Y1215995D01*
X539334D01*
X540000Y1216661D01*
Y1217994D01*
X539334Y1218661D01*
X540000Y1219993D02*
X537334D01*
X536001Y1221326D01*
X537334Y1222659D01*
X540000D01*
X538001D01*
Y1219993D01*
X536001Y1223992D02*
Y1226658D01*
X536668D01*
X539334Y1223992D01*
X540000D01*
X546668Y1202666D02*
X546001Y1201999D01*
Y1200667D01*
X546668Y1200000D01*
X549334D01*
X550000Y1200667D01*
Y1201999D01*
X549334Y1202666D01*
X546001Y1203999D02*
X550000D01*
Y1205998D01*
X549334Y1206664D01*
X546668D01*
X546001Y1205998D01*
Y1203999D01*
Y1210663D02*
X546668Y1209330D01*
X548001Y1207997D01*
X549334D01*
X550000Y1208664D01*
Y1209997D01*
X549334Y1210663D01*
X548667D01*
X548001Y1209997D01*
Y1207997D01*
X550000Y1211996D02*
X547334Y1214662D01*
X546668Y1218661D02*
X546001Y1217994D01*
Y1216661D01*
X546668Y1215995D01*
X549334D01*
X550000Y1216661D01*
Y1217994D01*
X549334Y1218661D01*
X550000Y1219993D02*
X547334D01*
X546001Y1221326D01*
X547334Y1222659D01*
X550000D01*
X548001D01*
Y1219993D01*
X546001Y1226658D02*
X546668Y1225325D01*
X548001Y1223992D01*
X549334D01*
X550000Y1224659D01*
Y1225992D01*
X549334Y1226658D01*
X548667D01*
X548001Y1225992D01*
Y1223992D01*
X556668Y1202666D02*
X556001Y1201999D01*
Y1200667D01*
X556668Y1200000D01*
X559334D01*
X560000Y1200667D01*
Y1201999D01*
X559334Y1202666D01*
X556001Y1203999D02*
X560000D01*
Y1205998D01*
X559334Y1206664D01*
X556668D01*
X556001Y1205998D01*
Y1203999D01*
Y1210663D02*
Y1207997D01*
X558001D01*
X557334Y1209330D01*
Y1209997D01*
X558001Y1210663D01*
X559334D01*
X560000Y1209997D01*
Y1208664D01*
X559334Y1207997D01*
X560000Y1211996D02*
X557334Y1214662D01*
X556668Y1218661D02*
X556001Y1217994D01*
Y1216661D01*
X556668Y1215995D01*
X559334D01*
X560000Y1216661D01*
Y1217994D01*
X559334Y1218661D01*
X560000Y1219993D02*
X557334D01*
X556001Y1221326D01*
X557334Y1222659D01*
X560000D01*
X558001D01*
Y1219993D01*
X556001Y1226658D02*
Y1223992D01*
X558001D01*
X557334Y1225325D01*
Y1225992D01*
X558001Y1226658D01*
X559334D01*
X560000Y1225992D01*
Y1224659D01*
X559334Y1223992D01*
X566668Y1202666D02*
X566001Y1201999D01*
Y1200667D01*
X566668Y1200000D01*
X569334D01*
X570000Y1200667D01*
Y1201999D01*
X569334Y1202666D01*
X566001Y1203999D02*
X570000D01*
Y1205998D01*
X569334Y1206664D01*
X566668D01*
X566001Y1205998D01*
Y1203999D01*
X570000Y1209997D02*
X566001D01*
X568001Y1207997D01*
Y1210663D01*
X570000Y1211996D02*
X567334Y1214662D01*
X566668Y1218661D02*
X566001Y1217994D01*
Y1216661D01*
X566668Y1215995D01*
X569334D01*
X570000Y1216661D01*
Y1217994D01*
X569334Y1218661D01*
X570000Y1219993D02*
X567334D01*
X566001Y1221326D01*
X567334Y1222659D01*
X570000D01*
X568001D01*
Y1219993D01*
X570000Y1225992D02*
X566001D01*
X568001Y1223992D01*
Y1226658D01*
X576668Y1202666D02*
X576001Y1201999D01*
Y1200667D01*
X576668Y1200000D01*
X579334D01*
X580000Y1200667D01*
Y1201999D01*
X579334Y1202666D01*
X576001Y1203999D02*
X580000D01*
Y1205998D01*
X579334Y1206664D01*
X576668D01*
X576001Y1205998D01*
Y1203999D01*
X576668Y1207997D02*
X576001Y1208664D01*
Y1209997D01*
X576668Y1210663D01*
X577334D01*
X578001Y1209997D01*
Y1209330D01*
Y1209997D01*
X578667Y1210663D01*
X579334D01*
X580000Y1209997D01*
Y1208664D01*
X579334Y1207997D01*
X580000Y1211996D02*
X577334Y1214662D01*
X576668Y1218661D02*
X576001Y1217994D01*
Y1216661D01*
X576668Y1215995D01*
X579334D01*
X580000Y1216661D01*
Y1217994D01*
X579334Y1218661D01*
X580000Y1219993D02*
X577334D01*
X576001Y1221326D01*
X577334Y1222659D01*
X580000D01*
X578001D01*
Y1219993D01*
X576668Y1223992D02*
X576001Y1224659D01*
Y1225992D01*
X576668Y1226658D01*
X577334D01*
X578001Y1225992D01*
Y1225325D01*
Y1225992D01*
X578667Y1226658D01*
X579334D01*
X580000Y1225992D01*
Y1224659D01*
X579334Y1223992D01*
X586668Y1202666D02*
X586001Y1201999D01*
Y1200667D01*
X586668Y1200000D01*
X589334D01*
X590000Y1200667D01*
Y1201999D01*
X589334Y1202666D01*
X586001Y1203999D02*
X590000D01*
Y1205998D01*
X589334Y1206664D01*
X586668D01*
X586001Y1205998D01*
Y1203999D01*
X590000Y1210663D02*
Y1207997D01*
X587334Y1210663D01*
X586668D01*
X586001Y1209997D01*
Y1208664D01*
X586668Y1207997D01*
X590000Y1211996D02*
X587334Y1214662D01*
X586668Y1218661D02*
X586001Y1217994D01*
Y1216661D01*
X586668Y1215995D01*
X589334D01*
X590000Y1216661D01*
Y1217994D01*
X589334Y1218661D01*
X590000Y1219993D02*
X587334D01*
X586001Y1221326D01*
X587334Y1222659D01*
X590000D01*
X588001D01*
Y1219993D01*
X590000Y1226658D02*
Y1223992D01*
X587334Y1226658D01*
X586668D01*
X586001Y1225992D01*
Y1224659D01*
X586668Y1223992D01*
X596668Y1202666D02*
X596001Y1201999D01*
Y1200667D01*
X596668Y1200000D01*
X599334D01*
X600000Y1200667D01*
Y1201999D01*
X599334Y1202666D01*
X596001Y1203999D02*
X600000D01*
Y1205998D01*
X599334Y1206664D01*
X596668D01*
X596001Y1205998D01*
Y1203999D01*
X600000Y1207997D02*
Y1209330D01*
Y1208664D01*
X596001D01*
X596668Y1207997D01*
X600000Y1211330D02*
X597334Y1213995D01*
X596668Y1217994D02*
X596001Y1217328D01*
Y1215995D01*
X596668Y1215328D01*
X599334D01*
X600000Y1215995D01*
Y1217328D01*
X599334Y1217994D01*
X600000Y1219327D02*
X597334D01*
X596001Y1220660D01*
X597334Y1221993D01*
X600000D01*
X598001D01*
Y1219327D01*
X600000Y1223326D02*
Y1224659D01*
Y1223992D01*
X596001D01*
X596668Y1223326D01*
X606668Y1202666D02*
X606001Y1201999D01*
Y1200667D01*
X606668Y1200000D01*
X609334D01*
X610000Y1200667D01*
Y1201999D01*
X609334Y1202666D01*
X606001Y1203999D02*
X610000D01*
Y1205998D01*
X609334Y1206664D01*
X606668D01*
X606001Y1205998D01*
Y1203999D01*
X606668Y1207997D02*
X606001Y1208664D01*
Y1209997D01*
X606668Y1210663D01*
X609334D01*
X610000Y1209997D01*
Y1208664D01*
X609334Y1207997D01*
X606668D01*
X610000Y1211996D02*
X607334Y1214662D01*
X606668Y1218661D02*
X606001Y1217994D01*
Y1216661D01*
X606668Y1215995D01*
X609334D01*
X610000Y1216661D01*
Y1217994D01*
X609334Y1218661D01*
X610000Y1219993D02*
X607334D01*
X606001Y1221326D01*
X607334Y1222659D01*
X610000D01*
X608001D01*
Y1219993D01*
X606668Y1223992D02*
X606001Y1224659D01*
Y1225992D01*
X606668Y1226658D01*
X609334D01*
X610000Y1225992D01*
Y1224659D01*
X609334Y1223992D01*
X606668D01*
X616668Y1202666D02*
X616001Y1201999D01*
Y1200667D01*
X616668Y1200000D01*
X619334D01*
X620000Y1200667D01*
Y1201999D01*
X619334Y1202666D01*
X618001D01*
Y1201333D01*
X620000Y1203999D02*
X616001D01*
X620000Y1206664D01*
X616001D01*
Y1207997D02*
X620000D01*
Y1209997D01*
X619334Y1210663D01*
X616668D01*
X616001Y1209997D01*
Y1207997D01*
X406668Y1202666D02*
X406001Y1201999D01*
Y1200667D01*
X406668Y1200000D01*
X409334D01*
X410000Y1200667D01*
Y1201999D01*
X409334Y1202666D01*
X408001D01*
Y1201333D01*
X410000Y1203999D02*
X406001D01*
X410000Y1206664D01*
X406001D01*
Y1207997D02*
X410000D01*
Y1209997D01*
X409334Y1210663D01*
X406668D01*
X406001Y1209997D01*
Y1207997D01*
X418001Y1200000D02*
Y1202666D01*
X416668Y1201333D02*
X419334D01*
X416001Y1206664D02*
Y1203999D01*
X418001D01*
X417334Y1205332D01*
Y1205998D01*
X418001Y1206664D01*
X419334D01*
X420000Y1205998D01*
Y1204665D01*
X419334Y1203999D01*
X416001Y1207997D02*
X418667D01*
X420000Y1209330D01*
X418667Y1210663D01*
X416001D01*
D58*
X421644Y1507500D02*
G03*
X424144Y1507500I1250J0D01*
G01*
X431289Y1561870D02*
G03*
X433159Y1561870I935J0D01*
G01*
X517835Y1659075D02*
G03*
X519409Y1659075I787J0D01*
G01*
X332500Y1359439D02*
G03*
X332500Y1356939I0J-1250D01*
G01*
X390000Y1359439D02*
G03*
X390000Y1356939I0J-1250D01*
G01*
X420709Y1507500D02*
X421644D01*
X424144D02*
X425079D01*
Y1487500D02*
Y1507500D01*
X420709Y1487500D02*
X425079D01*
X420709D02*
Y1507500D01*
X432756Y1550650D02*
Y1561870D01*
X431693Y1550650D02*
X432756D01*
X431693D02*
Y1561870D01*
X433159D01*
X431289D02*
X432756D01*
X502224Y1659075D02*
X517835D01*
X519409D02*
X535020D01*
Y1574035D02*
Y1659075D01*
X502224Y1574035D02*
X535020D01*
X502224D02*
Y1659075D01*
X332500Y1359439D02*
Y1361791D01*
Y1354587D02*
Y1356939D01*
X297500Y1354587D02*
X332500D01*
X297500D02*
Y1361791D01*
X332500D01*
X390000Y1359439D02*
Y1361791D01*
Y1354587D02*
Y1356939D01*
X355000Y1354587D02*
X390000D01*
X355000D02*
Y1361791D01*
X390000D01*
M02*
