G04*
G04 #@! TF.GenerationSoftware,Altium Limited,CircuitStudio,1.5.2 (30)*
G04*
G04 Layer_Color=39168*
%FSLAX25Y25*%
%MOIN*%
G70*
G01*
G75*
%ADD30C,0.01000*%
%ADD69R,0.07000X0.52000*%
%ADD70O,0.07000X0.52000*%
%ADD72R,0.03800X0.03800*%
%ADD73R,0.03800X0.03800*%
%ADD74R,0.06800X0.05800*%
%ADD75C,0.07300*%
%ADD76R,0.07300X0.07300*%
%ADD77C,0.02769*%
%ADD78C,0.12800*%
%ADD79R,0.07300X0.07300*%
%ADD80C,0.07100*%
%ADD81C,0.04800*%
%ADD82C,0.05800*%
D30*
X630000Y1112500D02*
X640000D01*
X630000Y1072500D02*
Y1112500D01*
X402500Y1070000D02*
X627500D01*
X400000Y1072500D02*
Y1112500D01*
X390000D02*
X400000D01*
X255000Y1720000D02*
X755000D01*
X255000Y1212500D02*
Y1720000D01*
X627500Y1070000D02*
X630000Y1072500D01*
X400000D02*
X402500Y1070000D01*
X255000Y1212500D02*
X390000D01*
X640000D02*
X755000D01*
X390000Y1112500D02*
Y1212500D01*
X640000Y1112500D02*
Y1212500D01*
X755000D02*
Y1720000D01*
D69*
X410000Y1092500D02*
D03*
X500000D02*
D03*
X600000D02*
D03*
D70*
X420000D02*
D03*
X430000D02*
D03*
X440000D02*
D03*
X450000D02*
D03*
X460000D02*
D03*
X470000D02*
D03*
X480000D02*
D03*
X490000D02*
D03*
X510000D02*
D03*
X520000D02*
D03*
X530000D02*
D03*
X540000D02*
D03*
X550000D02*
D03*
X560000D02*
D03*
X570000D02*
D03*
X580000D02*
D03*
X590000D02*
D03*
X610000D02*
D03*
X620000D02*
D03*
D72*
X575000Y1305000D02*
D03*
Y1310500D02*
D03*
X545000Y1305000D02*
D03*
Y1310500D02*
D03*
X537500Y1305000D02*
D03*
Y1310500D02*
D03*
X530000Y1305000D02*
D03*
Y1310500D02*
D03*
X522500Y1305000D02*
D03*
Y1310500D02*
D03*
X515000Y1305000D02*
D03*
Y1310500D02*
D03*
X507500Y1305000D02*
D03*
Y1310500D02*
D03*
X500000Y1305000D02*
D03*
Y1310500D02*
D03*
X492500Y1305000D02*
D03*
Y1310500D02*
D03*
X627500Y1305000D02*
D03*
Y1310500D02*
D03*
X620000Y1305000D02*
D03*
Y1310500D02*
D03*
X612500Y1305000D02*
D03*
Y1310500D02*
D03*
X605000Y1305000D02*
D03*
Y1310500D02*
D03*
X597500Y1305000D02*
D03*
Y1310500D02*
D03*
X590000Y1305000D02*
D03*
Y1310500D02*
D03*
X582500Y1305000D02*
D03*
Y1310500D02*
D03*
D73*
X517000Y1637500D02*
D03*
X522500D02*
D03*
X514500Y1600000D02*
D03*
X520000D02*
D03*
X490500Y1607500D02*
D03*
X485000D02*
D03*
X547000Y1610000D02*
D03*
X552500D02*
D03*
X520500Y1567500D02*
D03*
X515000D02*
D03*
X484500Y1620000D02*
D03*
X490000D02*
D03*
X553000Y1627500D02*
D03*
X547500D02*
D03*
X523000Y1670000D02*
D03*
X517500D02*
D03*
D74*
X522500Y1582500D02*
D03*
X513500D02*
D03*
X525000Y1652500D02*
D03*
X516000D02*
D03*
D75*
X710000Y1630000D02*
D03*
Y1640000D02*
D03*
X720000Y1630000D02*
D03*
Y1640000D02*
D03*
X730000Y1630000D02*
D03*
Y1640000D02*
D03*
X740000Y1630000D02*
D03*
X325000Y1540000D02*
D03*
Y1530000D02*
D03*
Y1520000D02*
D03*
Y1480000D02*
D03*
Y1490000D02*
D03*
Y1500000D02*
D03*
Y1510000D02*
D03*
X360000Y1695000D02*
D03*
X370000Y1685000D02*
D03*
Y1695000D02*
D03*
X380000Y1685000D02*
D03*
Y1695000D02*
D03*
X390000Y1685000D02*
D03*
Y1695000D02*
D03*
X400000Y1685000D02*
D03*
Y1695000D02*
D03*
X410000Y1685000D02*
D03*
Y1695000D02*
D03*
X420000Y1685000D02*
D03*
Y1695000D02*
D03*
X430000Y1685000D02*
D03*
Y1695000D02*
D03*
X440000Y1685000D02*
D03*
Y1695000D02*
D03*
X450000Y1685000D02*
D03*
Y1695000D02*
D03*
X460000Y1685000D02*
D03*
Y1695000D02*
D03*
X470000Y1685000D02*
D03*
Y1695000D02*
D03*
X480000Y1685000D02*
D03*
Y1695000D02*
D03*
X490000Y1685000D02*
D03*
Y1695000D02*
D03*
X500000Y1685000D02*
D03*
Y1695000D02*
D03*
X510000Y1685000D02*
D03*
Y1695000D02*
D03*
X520000Y1685000D02*
D03*
Y1695000D02*
D03*
X530000Y1685000D02*
D03*
Y1695000D02*
D03*
X540000Y1685000D02*
D03*
Y1695000D02*
D03*
X550000Y1685000D02*
D03*
Y1695000D02*
D03*
X560000Y1685000D02*
D03*
Y1695000D02*
D03*
X570000Y1685000D02*
D03*
Y1695000D02*
D03*
X580000Y1685000D02*
D03*
Y1695000D02*
D03*
X590000Y1685000D02*
D03*
Y1695000D02*
D03*
X600000Y1685000D02*
D03*
Y1695000D02*
D03*
X610000Y1685000D02*
D03*
Y1695000D02*
D03*
X620000Y1685000D02*
D03*
Y1695000D02*
D03*
X630000Y1685000D02*
D03*
Y1695000D02*
D03*
X640000Y1685000D02*
D03*
Y1695000D02*
D03*
X650000Y1685000D02*
D03*
Y1695000D02*
D03*
X660000Y1685000D02*
D03*
Y1695000D02*
D03*
X670000Y1685000D02*
D03*
Y1695000D02*
D03*
X360000Y1455000D02*
D03*
X370000Y1445000D02*
D03*
Y1455000D02*
D03*
X380000Y1445000D02*
D03*
Y1455000D02*
D03*
X390000Y1445000D02*
D03*
Y1455000D02*
D03*
X400000Y1445000D02*
D03*
Y1455000D02*
D03*
X410000Y1445000D02*
D03*
Y1455000D02*
D03*
X420000Y1445000D02*
D03*
Y1455000D02*
D03*
X430000Y1445000D02*
D03*
Y1455000D02*
D03*
X440000Y1445000D02*
D03*
Y1455000D02*
D03*
X450000Y1445000D02*
D03*
Y1455000D02*
D03*
X460000Y1445000D02*
D03*
Y1455000D02*
D03*
X470000Y1445000D02*
D03*
Y1455000D02*
D03*
X480000Y1445000D02*
D03*
Y1455000D02*
D03*
X490000Y1445000D02*
D03*
Y1455000D02*
D03*
X500000Y1445000D02*
D03*
Y1455000D02*
D03*
X510000Y1445000D02*
D03*
Y1455000D02*
D03*
X520000Y1445000D02*
D03*
Y1455000D02*
D03*
X530000Y1445000D02*
D03*
Y1455000D02*
D03*
X540000Y1445000D02*
D03*
Y1455000D02*
D03*
X550000Y1445000D02*
D03*
Y1455000D02*
D03*
X560000Y1445000D02*
D03*
Y1455000D02*
D03*
X570000Y1445000D02*
D03*
Y1455000D02*
D03*
X580000Y1445000D02*
D03*
Y1455000D02*
D03*
X590000Y1445000D02*
D03*
Y1455000D02*
D03*
X600000Y1445000D02*
D03*
Y1455000D02*
D03*
X610000Y1445000D02*
D03*
Y1455000D02*
D03*
X620000Y1445000D02*
D03*
Y1455000D02*
D03*
X630000Y1445000D02*
D03*
Y1455000D02*
D03*
X640000Y1445000D02*
D03*
Y1455000D02*
D03*
X650000Y1445000D02*
D03*
Y1455000D02*
D03*
X660000Y1445000D02*
D03*
Y1455000D02*
D03*
X670000Y1445000D02*
D03*
Y1455000D02*
D03*
X430000Y1252500D02*
D03*
Y1262500D02*
D03*
X440000Y1252500D02*
D03*
Y1262500D02*
D03*
X450000Y1252500D02*
D03*
Y1262500D02*
D03*
X460000Y1252500D02*
D03*
Y1262500D02*
D03*
X470000Y1252500D02*
D03*
Y1262500D02*
D03*
X480000Y1252500D02*
D03*
Y1262500D02*
D03*
X490000Y1252500D02*
D03*
Y1262500D02*
D03*
X500000Y1252500D02*
D03*
Y1262500D02*
D03*
X510000Y1252500D02*
D03*
Y1262500D02*
D03*
X520000Y1252500D02*
D03*
Y1262500D02*
D03*
X530000Y1252500D02*
D03*
Y1262500D02*
D03*
X540000Y1252500D02*
D03*
Y1262500D02*
D03*
X550000Y1252500D02*
D03*
Y1262500D02*
D03*
X560000Y1252500D02*
D03*
Y1262500D02*
D03*
X570000Y1252500D02*
D03*
Y1262500D02*
D03*
X580000Y1252500D02*
D03*
Y1262500D02*
D03*
X590000Y1252500D02*
D03*
Y1262500D02*
D03*
X600000Y1252500D02*
D03*
Y1262500D02*
D03*
X610000Y1252500D02*
D03*
Y1262500D02*
D03*
X410000Y1252500D02*
D03*
Y1262500D02*
D03*
X420000Y1252500D02*
D03*
Y1262500D02*
D03*
X390000Y1252500D02*
D03*
Y1262500D02*
D03*
X400000Y1252500D02*
D03*
Y1262500D02*
D03*
X620000Y1252500D02*
D03*
Y1262500D02*
D03*
X630000Y1252500D02*
D03*
X267500Y1567500D02*
D03*
X307500Y1605000D02*
D03*
X297500D02*
D03*
X287500D02*
D03*
X337500Y1625000D02*
D03*
Y1635000D02*
D03*
Y1645000D02*
D03*
Y1655000D02*
D03*
Y1665000D02*
D03*
Y1675000D02*
D03*
Y1685000D02*
D03*
Y1695000D02*
D03*
Y1705000D02*
D03*
X267500Y1625000D02*
D03*
Y1635000D02*
D03*
Y1645000D02*
D03*
Y1655000D02*
D03*
Y1665000D02*
D03*
Y1675000D02*
D03*
Y1685000D02*
D03*
Y1695000D02*
D03*
Y1705000D02*
D03*
Y1577500D02*
D03*
X745000Y1345000D02*
D03*
Y1365000D02*
D03*
X410000Y1190000D02*
D03*
Y1166378D02*
D03*
X620000Y1147500D02*
D03*
Y1137500D02*
D03*
X410000D02*
D03*
Y1147500D02*
D03*
D76*
X740000Y1640000D02*
D03*
X325000Y1470000D02*
D03*
X360000Y1685000D02*
D03*
Y1445000D02*
D03*
X630000Y1262500D02*
D03*
X317500Y1605000D02*
D03*
D77*
X666486Y1494724D02*
D03*
Y1576910D02*
D03*
D78*
X272500Y1540000D02*
D03*
X275000Y1470000D02*
D03*
D79*
X277500Y1567500D02*
D03*
Y1577500D02*
D03*
D80*
X735000Y1700000D02*
D03*
X735000Y1232500D02*
D03*
X275000D02*
D03*
X302500Y1700000D02*
D03*
D81*
X522500Y1487500D02*
D03*
X515500Y1474500D02*
D03*
X502500Y1507500D02*
D03*
Y1487500D02*
D03*
X352500Y1477500D02*
D03*
X537500Y1330000D02*
D03*
X532500Y1325000D02*
D03*
X527500Y1330000D02*
D03*
X522500Y1325000D02*
D03*
X517500Y1330000D02*
D03*
X512500Y1325000D02*
D03*
X507500Y1330000D02*
D03*
X502500Y1325000D02*
D03*
X620000Y1330000D02*
D03*
X615000Y1325000D02*
D03*
X610000Y1330000D02*
D03*
X605000Y1325000D02*
D03*
X600000Y1330000D02*
D03*
X595000Y1325000D02*
D03*
X590000Y1330000D02*
D03*
X585000Y1325000D02*
D03*
X612500Y1472500D02*
D03*
X615000Y1482500D02*
D03*
X405000Y1552500D02*
D03*
X420000D02*
D03*
X417500Y1560000D02*
D03*
X442480Y1552520D02*
D03*
X522500Y1502500D02*
D03*
X495500Y1474500D02*
D03*
X342500Y1522500D02*
D03*
X382500Y1490000D02*
D03*
X370000Y1590000D02*
D03*
X347500Y1567500D02*
D03*
X735000Y1680000D02*
D03*
X710000D02*
D03*
X735000Y1660000D02*
D03*
X710000Y1655000D02*
D03*
X472500Y1612500D02*
D03*
X557500Y1617500D02*
D03*
X525000Y1600000D02*
D03*
X507500D02*
D03*
X527500Y1567500D02*
D03*
X510000D02*
D03*
X500000Y1662500D02*
D03*
X507500Y1652500D02*
D03*
X505000Y1640000D02*
D03*
Y1632500D02*
D03*
Y1625000D02*
D03*
X502500Y1615000D02*
D03*
Y1575000D02*
D03*
X535610Y1575610D02*
D03*
X532500Y1615000D02*
D03*
X549000Y1643000D02*
D03*
X535000Y1622500D02*
D03*
X535197Y1632303D02*
D03*
X535000Y1652500D02*
D03*
X540000Y1662500D02*
D03*
X580000Y1330000D02*
D03*
X662500D02*
D03*
X667500Y1325000D02*
D03*
X672500Y1330000D02*
D03*
X677500Y1325000D02*
D03*
X682500Y1330000D02*
D03*
X687500Y1325000D02*
D03*
X692500Y1330000D02*
D03*
X697500Y1325000D02*
D03*
X702500Y1330000D02*
D03*
X707500Y1325000D02*
D03*
X712500Y1330000D02*
D03*
X625000Y1325000D02*
D03*
X630000Y1330000D02*
D03*
X547500D02*
D03*
X542500Y1325000D02*
D03*
X497500Y1330000D02*
D03*
X465000D02*
D03*
X460000Y1325000D02*
D03*
X455000Y1330000D02*
D03*
X450000Y1325000D02*
D03*
X445000Y1330000D02*
D03*
X440000Y1325000D02*
D03*
X435000Y1330000D02*
D03*
X430000Y1325000D02*
D03*
X420000D02*
D03*
X415000Y1330000D02*
D03*
X382500Y1336878D02*
D03*
X377500Y1331878D02*
D03*
X372500Y1336878D02*
D03*
X367500Y1331878D02*
D03*
X362500Y1336878D02*
D03*
X357500Y1331878D02*
D03*
X462500Y1302500D02*
D03*
X457500Y1297500D02*
D03*
X432500Y1292500D02*
D03*
X382500Y1380000D02*
D03*
X387500Y1385000D02*
D03*
X372500Y1380000D02*
D03*
X367500Y1385000D02*
D03*
X362500Y1380000D02*
D03*
X357500Y1385000D02*
D03*
X435000Y1277500D02*
D03*
X295000Y1392500D02*
D03*
X377500Y1385000D02*
D03*
X325000Y1380000D02*
D03*
X330000Y1385000D02*
D03*
X320000D02*
D03*
X315000Y1380000D02*
D03*
X310000Y1385000D02*
D03*
X305000Y1380000D02*
D03*
X300000Y1385000D02*
D03*
X305000Y1336878D02*
D03*
X310000Y1331878D02*
D03*
X320000D02*
D03*
X325000Y1336878D02*
D03*
X485000Y1352500D02*
D03*
X492500Y1345000D02*
D03*
X477500Y1332500D02*
D03*
X485000Y1330000D02*
D03*
X340000Y1365000D02*
D03*
X270000Y1382500D02*
D03*
X567500Y1352500D02*
D03*
Y1362000D02*
D03*
X650000Y1350000D02*
D03*
Y1359500D02*
D03*
X732500Y1362000D02*
D03*
Y1350000D02*
D03*
X730000Y1392500D02*
D03*
X665000Y1387500D02*
D03*
X657500Y1377500D02*
D03*
X575000D02*
D03*
X582500Y1387500D02*
D03*
X647500Y1392500D02*
D03*
X500000Y1387500D02*
D03*
X492500Y1377500D02*
D03*
X417500Y1387500D02*
D03*
X410000Y1377500D02*
D03*
X482500Y1392500D02*
D03*
X405000Y1385000D02*
D03*
X575000D02*
D03*
X315000Y1336878D02*
D03*
X300000Y1331878D02*
D03*
X672500Y1390000D02*
D03*
X677500Y1387500D02*
D03*
X682500Y1390000D02*
D03*
X687500Y1387500D02*
D03*
X692500Y1390000D02*
D03*
X697500Y1387500D02*
D03*
X702500Y1390000D02*
D03*
X707500Y1387500D02*
D03*
X712500Y1392500D02*
D03*
X590000Y1390000D02*
D03*
X595000Y1387500D02*
D03*
X600000Y1390000D02*
D03*
X605000Y1387500D02*
D03*
X610000Y1390000D02*
D03*
X615000Y1387500D02*
D03*
X620000Y1390000D02*
D03*
X625000Y1387500D02*
D03*
X630000Y1392500D02*
D03*
X507500Y1390000D02*
D03*
X512500Y1387500D02*
D03*
X517500Y1390000D02*
D03*
X522500Y1387500D02*
D03*
X527500Y1390000D02*
D03*
X532500Y1387500D02*
D03*
X537500Y1390000D02*
D03*
X542500Y1387500D02*
D03*
X547500Y1390000D02*
D03*
X425000D02*
D03*
X430000Y1387500D02*
D03*
X435000Y1390000D02*
D03*
X440000Y1387500D02*
D03*
X445000Y1390000D02*
D03*
X450000Y1387500D02*
D03*
X455000Y1390000D02*
D03*
X460000Y1387500D02*
D03*
X442500Y1490000D02*
D03*
X445000Y1495000D02*
D03*
X418250Y1525000D02*
D03*
X687500Y1257500D02*
D03*
X343500D02*
D03*
X402500Y1364500D02*
D03*
X477500Y1367500D02*
D03*
X315000Y1637500D02*
D03*
X300000Y1662500D02*
D03*
X572500Y1472500D02*
D03*
Y1482500D02*
D03*
X615000Y1560000D02*
D03*
X610000Y1547500D02*
D03*
X592500Y1545000D02*
D03*
X585000Y1562500D02*
D03*
X402500Y1349500D02*
D03*
X316000Y1257500D02*
D03*
X715000D02*
D03*
X732500Y1335000D02*
D03*
X650000D02*
D03*
X567500Y1337500D02*
D03*
X340000Y1350000D02*
D03*
X485000Y1337500D02*
D03*
X330000Y1331878D02*
D03*
X387500D02*
D03*
X470000Y1325000D02*
D03*
X552500D02*
D03*
X635000D02*
D03*
X717500D02*
D03*
X710000Y1362500D02*
D03*
X310000Y1662500D02*
D03*
X302500Y1637500D02*
D03*
X382500Y1505000D02*
D03*
X485000Y1380000D02*
D03*
X405000Y1410000D02*
D03*
X560000Y1365000D02*
D03*
X445000Y1525000D02*
D03*
X395000D02*
D03*
X445000Y1505000D02*
D03*
X566000Y1386000D02*
D03*
X475000Y1377500D02*
D03*
X557500D02*
D03*
X640000D02*
D03*
X722500D02*
D03*
X732500Y1377000D02*
D03*
X650000Y1374500D02*
D03*
X567500Y1377000D02*
D03*
X317500Y1427500D02*
D03*
X342500D02*
D03*
X330000D02*
D03*
X277500Y1392500D02*
D03*
X640118Y1547382D02*
D03*
X640039Y1537539D02*
D03*
X640118Y1517854D02*
D03*
X402500Y1490000D02*
D03*
X400000Y1505000D02*
D03*
X402500Y1500000D02*
D03*
X452500Y1515000D02*
D03*
D82*
X367500Y1565000D02*
D03*
X270000Y1345000D02*
D03*
X567500Y1317500D02*
D03*
M02*
