G04*
G04 #@! TF.GenerationSoftware,Altium Limited,CircuitStudio,1.5.2 (30)*
G04*
G04 Layer_Color=2752767*
%FSLAX25Y25*%
%MOIN*%
G70*
G01*
G75*
%ADD33C,0.01000*%
%ADD36C,0.00800*%
%ADD90C,0.00333*%
%ADD91C,0.01500*%
%ADD92C,0.01600*%
D33*
X755000Y1212500D02*
Y1720000D01*
X640000Y1112500D02*
Y1212500D01*
X390000Y1112500D02*
Y1212500D01*
X640000D02*
X755000D01*
X255000D02*
X390000D01*
X400000Y1072500D02*
X402500Y1070000D01*
X627500D02*
X630000Y1072500D01*
X255000Y1212500D02*
Y1720000D01*
X755000D01*
X390000Y1112500D02*
X400000D01*
Y1072500D02*
Y1112500D01*
X402500Y1070000D02*
X627500D01*
X630000Y1072500D02*
Y1112500D01*
X640000D01*
X1134517Y1382000D02*
Y1387998D01*
X1137516D01*
X1138516Y1386998D01*
Y1384999D01*
X1137516Y1383999D01*
X1134517D01*
X1136516D02*
X1138516Y1382000D01*
X1141515D02*
X1143514D01*
X1144514Y1383000D01*
Y1384999D01*
X1143514Y1385999D01*
X1141515D01*
X1140515Y1384999D01*
Y1383000D01*
X1141515Y1382000D01*
X1146513Y1385999D02*
Y1383000D01*
X1147513Y1382000D01*
X1150512D01*
Y1385999D01*
X1152511Y1382000D02*
Y1385999D01*
X1155510D01*
X1156510Y1384999D01*
Y1382000D01*
X1162508Y1387998D02*
Y1382000D01*
X1159509D01*
X1158509Y1383000D01*
Y1384999D01*
X1159509Y1385999D01*
X1162508D01*
X1134517Y1367000D02*
Y1372998D01*
X1137516D01*
X1138516Y1371998D01*
Y1369999D01*
X1137516Y1368999D01*
X1134517D01*
X1136516D02*
X1138516Y1367000D01*
X1141515D02*
X1143514D01*
X1144514Y1368000D01*
Y1369999D01*
X1143514Y1370999D01*
X1141515D01*
X1140515Y1369999D01*
Y1368000D01*
X1141515Y1367000D01*
X1146513Y1370999D02*
Y1368000D01*
X1147513Y1367000D01*
X1150512D01*
Y1370999D01*
X1152511Y1367000D02*
Y1370999D01*
X1155510D01*
X1156510Y1369999D01*
Y1367000D01*
X1162508Y1372998D02*
Y1367000D01*
X1159509D01*
X1158509Y1368000D01*
Y1369999D01*
X1159509Y1370999D01*
X1162508D01*
X1134517Y1352000D02*
Y1357998D01*
X1137516D01*
X1138516Y1356998D01*
Y1354999D01*
X1137516Y1353999D01*
X1134517D01*
X1136516D02*
X1138516Y1352000D01*
X1141515D02*
X1143514D01*
X1144514Y1353000D01*
Y1354999D01*
X1143514Y1355999D01*
X1141515D01*
X1140515Y1354999D01*
Y1353000D01*
X1141515Y1352000D01*
X1146513Y1355999D02*
Y1353000D01*
X1147513Y1352000D01*
X1150512D01*
Y1355999D01*
X1152511Y1352000D02*
Y1355999D01*
X1155510D01*
X1156510Y1354999D01*
Y1352000D01*
X1162508Y1357998D02*
Y1352000D01*
X1159509D01*
X1158509Y1353000D01*
Y1354999D01*
X1159509Y1355999D01*
X1162508D01*
X1134517Y1337000D02*
Y1342998D01*
X1137516D01*
X1138516Y1341998D01*
Y1339999D01*
X1137516Y1338999D01*
X1134517D01*
X1136516D02*
X1138516Y1337000D01*
X1141515D02*
X1143514D01*
X1144514Y1338000D01*
Y1339999D01*
X1143514Y1340999D01*
X1141515D01*
X1140515Y1339999D01*
Y1338000D01*
X1141515Y1337000D01*
X1146513Y1340999D02*
Y1338000D01*
X1147513Y1337000D01*
X1150512D01*
Y1340999D01*
X1152511Y1337000D02*
Y1340999D01*
X1155510D01*
X1156510Y1339999D01*
Y1337000D01*
X1162508Y1342998D02*
Y1337000D01*
X1159509D01*
X1158509Y1338000D01*
Y1339999D01*
X1159509Y1340999D01*
X1162508D01*
X1134517Y1322000D02*
Y1327998D01*
X1137516D01*
X1138516Y1326998D01*
Y1324999D01*
X1137516Y1323999D01*
X1134517D01*
X1136516D02*
X1138516Y1322000D01*
X1141515D02*
X1143514D01*
X1144514Y1323000D01*
Y1324999D01*
X1143514Y1325999D01*
X1141515D01*
X1140515Y1324999D01*
Y1323000D01*
X1141515Y1322000D01*
X1146513Y1325999D02*
Y1323000D01*
X1147513Y1322000D01*
X1150512D01*
Y1325999D01*
X1152511Y1322000D02*
Y1325999D01*
X1155510D01*
X1156510Y1324999D01*
Y1322000D01*
X1162508Y1327998D02*
Y1322000D01*
X1159509D01*
X1158509Y1323000D01*
Y1324999D01*
X1159509Y1325999D01*
X1162508D01*
X1134517Y1307000D02*
Y1312998D01*
X1137516D01*
X1138516Y1311998D01*
Y1309999D01*
X1137516Y1308999D01*
X1134517D01*
X1136516D02*
X1138516Y1307000D01*
X1141515D02*
X1143514D01*
X1144514Y1308000D01*
Y1309999D01*
X1143514Y1310999D01*
X1141515D01*
X1140515Y1309999D01*
Y1308000D01*
X1141515Y1307000D01*
X1146513Y1310999D02*
Y1308000D01*
X1147513Y1307000D01*
X1150512D01*
Y1310999D01*
X1152511Y1307000D02*
Y1310999D01*
X1155510D01*
X1156510Y1309999D01*
Y1307000D01*
X1162508Y1312998D02*
Y1307000D01*
X1159509D01*
X1158509Y1308000D01*
Y1309999D01*
X1159509Y1310999D01*
X1162508D01*
X1134517Y1292000D02*
Y1297998D01*
X1137516D01*
X1138516Y1296998D01*
Y1294999D01*
X1137516Y1293999D01*
X1134517D01*
X1136516D02*
X1138516Y1292000D01*
X1141515D02*
X1143514D01*
X1144514Y1293000D01*
Y1294999D01*
X1143514Y1295999D01*
X1141515D01*
X1140515Y1294999D01*
Y1293000D01*
X1141515Y1292000D01*
X1146513Y1295999D02*
Y1293000D01*
X1147513Y1292000D01*
X1150512D01*
Y1295999D01*
X1152511Y1292000D02*
Y1295999D01*
X1155510D01*
X1156510Y1294999D01*
Y1292000D01*
X1162508Y1297998D02*
Y1292000D01*
X1159509D01*
X1158509Y1293000D01*
Y1294999D01*
X1159509Y1295999D01*
X1162508D01*
X1134517Y1277000D02*
Y1282998D01*
X1137516D01*
X1138516Y1281998D01*
Y1279999D01*
X1137516Y1278999D01*
X1134517D01*
X1136516D02*
X1138516Y1277000D01*
X1141515D02*
X1143514D01*
X1144514Y1278000D01*
Y1279999D01*
X1143514Y1280999D01*
X1141515D01*
X1140515Y1279999D01*
Y1278000D01*
X1141515Y1277000D01*
X1146513Y1280999D02*
Y1278000D01*
X1147513Y1277000D01*
X1150512D01*
Y1280999D01*
X1152511Y1277000D02*
Y1280999D01*
X1155510D01*
X1156510Y1279999D01*
Y1277000D01*
X1162508Y1282998D02*
Y1277000D01*
X1159509D01*
X1158509Y1278000D01*
Y1279999D01*
X1159509Y1280999D01*
X1162508D01*
X1083929Y1382000D02*
Y1387998D01*
X1087928Y1382000D01*
Y1387998D01*
X1089927Y1382000D02*
Y1387998D01*
X1092926D01*
X1093926Y1386998D01*
Y1384999D01*
X1092926Y1383999D01*
X1089927D01*
X1095925Y1387998D02*
X1099924D01*
X1097925D01*
Y1382000D01*
X1101923Y1387998D02*
Y1382000D01*
Y1384999D01*
X1105922D01*
Y1387998D01*
Y1382000D01*
X1083929Y1367000D02*
Y1372998D01*
X1087928Y1367000D01*
Y1372998D01*
X1089927Y1367000D02*
Y1372998D01*
X1092926D01*
X1093926Y1371998D01*
Y1369999D01*
X1092926Y1368999D01*
X1089927D01*
X1095925Y1372998D02*
X1099924D01*
X1097925D01*
Y1367000D01*
X1101923Y1372998D02*
Y1367000D01*
Y1369999D01*
X1105922D01*
Y1372998D01*
Y1367000D01*
X1083929Y1352000D02*
Y1357998D01*
X1087928Y1352000D01*
Y1357998D01*
X1089927Y1352000D02*
Y1357998D01*
X1092926D01*
X1093926Y1356998D01*
Y1354999D01*
X1092926Y1353999D01*
X1089927D01*
X1095925Y1357998D02*
X1099924D01*
X1097925D01*
Y1352000D01*
X1101923Y1357998D02*
Y1352000D01*
Y1354999D01*
X1105922D01*
Y1357998D01*
Y1352000D01*
X1083929Y1337000D02*
Y1342998D01*
X1087928Y1337000D01*
Y1342998D01*
X1089927Y1337000D02*
Y1342998D01*
X1092926D01*
X1093926Y1341998D01*
Y1339999D01*
X1092926Y1338999D01*
X1089927D01*
X1095925Y1342998D02*
X1099924D01*
X1097925D01*
Y1337000D01*
X1101923Y1342998D02*
Y1337000D01*
Y1339999D01*
X1105922D01*
Y1342998D01*
Y1337000D01*
X1083929Y1322000D02*
Y1327998D01*
X1086928D01*
X1087928Y1326998D01*
Y1324999D01*
X1086928Y1323999D01*
X1083929D01*
X1089927Y1327998D02*
X1093926D01*
X1091927D01*
Y1322000D01*
X1095925Y1327998D02*
Y1322000D01*
Y1324999D01*
X1099924D01*
Y1327998D01*
Y1322000D01*
X1083929Y1307000D02*
Y1312998D01*
X1087928Y1307000D01*
Y1312998D01*
X1089927Y1307000D02*
Y1312998D01*
X1092926D01*
X1093926Y1311998D01*
Y1309999D01*
X1092926Y1308999D01*
X1089927D01*
X1095925Y1312998D02*
X1099924D01*
X1097925D01*
Y1307000D01*
X1101923Y1312998D02*
Y1307000D01*
Y1309999D01*
X1105922D01*
Y1312998D01*
Y1307000D01*
X1083929Y1292000D02*
Y1297998D01*
X1086928D01*
X1087928Y1296998D01*
Y1294999D01*
X1086928Y1293999D01*
X1083929D01*
X1089927Y1297998D02*
X1093926D01*
X1091927D01*
Y1292000D01*
X1095925Y1297998D02*
Y1292000D01*
Y1294999D01*
X1099924D01*
Y1297998D01*
Y1292000D01*
X1083929Y1277000D02*
Y1282998D01*
X1086928D01*
X1087928Y1281998D01*
Y1279999D01*
X1086928Y1278999D01*
X1083929D01*
X1089927Y1282998D02*
X1093926D01*
X1091927D01*
Y1277000D01*
X1095925Y1282998D02*
Y1277000D01*
Y1279999D01*
X1099924D01*
Y1282998D01*
Y1277000D01*
X952368Y1382000D02*
Y1387998D01*
X949369Y1384999D01*
X953368D01*
X955367Y1386998D02*
X956367Y1387998D01*
X958366D01*
X959366Y1386998D01*
Y1385999D01*
X958366Y1384999D01*
X957366D01*
X958366D01*
X959366Y1383999D01*
Y1383000D01*
X958366Y1382000D01*
X956367D01*
X955367Y1383000D01*
X961365Y1382000D02*
Y1383000D01*
X962365D01*
Y1382000D01*
X961365D01*
X966363Y1386998D02*
X967363Y1387998D01*
X969363D01*
X970362Y1386998D01*
Y1385999D01*
X969363Y1384999D01*
X968363D01*
X969363D01*
X970362Y1383999D01*
Y1383000D01*
X969363Y1382000D01*
X967363D01*
X966363Y1383000D01*
X972361Y1382000D02*
X974361D01*
X973361D01*
Y1387998D01*
X972361Y1386998D01*
X977360Y1382000D02*
Y1385999D01*
X978360D01*
X979359Y1384999D01*
Y1382000D01*
Y1384999D01*
X980359Y1385999D01*
X981359Y1384999D01*
Y1382000D01*
X983358D02*
X985357D01*
X984358D01*
Y1385999D01*
X983358D01*
X988356Y1382000D02*
X990356D01*
X989356D01*
Y1387998D01*
X988356D01*
X1001352Y1382000D02*
X999353Y1383999D01*
Y1385999D01*
X1001352Y1387998D01*
X1004351Y1382000D02*
X1006351D01*
X1005351D01*
Y1387998D01*
X1004351Y1386998D01*
X1009350Y1382000D02*
Y1383000D01*
X1010349D01*
Y1382000D01*
X1009350D01*
X1014348D02*
X1016347D01*
X1015348D01*
Y1387998D01*
X1014348Y1386998D01*
X1019346D02*
X1020346Y1387998D01*
X1022345D01*
X1023345Y1386998D01*
Y1383000D01*
X1022345Y1382000D01*
X1020346D01*
X1019346Y1383000D01*
Y1386998D01*
X1025344D02*
X1026344Y1387998D01*
X1028343D01*
X1029343Y1386998D01*
Y1383000D01*
X1028343Y1382000D01*
X1026344D01*
X1025344Y1383000D01*
Y1386998D01*
X1031342Y1382000D02*
Y1385999D01*
X1032342D01*
X1033342Y1384999D01*
Y1382000D01*
Y1384999D01*
X1034341Y1385999D01*
X1035341Y1384999D01*
Y1382000D01*
X1037341D02*
Y1385999D01*
X1038340D01*
X1039340Y1384999D01*
Y1382000D01*
Y1384999D01*
X1040339Y1385999D01*
X1041339Y1384999D01*
Y1382000D01*
X1043338D02*
X1045338Y1383999D01*
Y1385999D01*
X1043338Y1387998D01*
X952368Y1367000D02*
Y1372998D01*
X949369Y1369999D01*
X953368D01*
X958366Y1367000D02*
Y1372998D01*
X955367Y1369999D01*
X959366D01*
X961365Y1367000D02*
Y1368000D01*
X962365D01*
Y1367000D01*
X961365D01*
X966363Y1371998D02*
X967363Y1372998D01*
X969363D01*
X970362Y1371998D01*
Y1370999D01*
X969363Y1369999D01*
X970362Y1368999D01*
Y1368000D01*
X969363Y1367000D01*
X967363D01*
X966363Y1368000D01*
Y1368999D01*
X967363Y1369999D01*
X966363Y1370999D01*
Y1371998D01*
X967363Y1369999D02*
X969363D01*
X972361Y1371998D02*
X973361Y1372998D01*
X975360D01*
X976360Y1371998D01*
Y1370999D01*
X975360Y1369999D01*
X976360Y1368999D01*
Y1368000D01*
X975360Y1367000D01*
X973361D01*
X972361Y1368000D01*
Y1368999D01*
X973361Y1369999D01*
X972361Y1370999D01*
Y1371998D01*
X973361Y1369999D02*
X975360D01*
X978360Y1367000D02*
Y1370999D01*
X979359D01*
X980359Y1369999D01*
Y1367000D01*
Y1369999D01*
X981359Y1370999D01*
X982358Y1369999D01*
Y1367000D01*
X984358D02*
X986357D01*
X985357D01*
Y1370999D01*
X984358D01*
X989356Y1367000D02*
X991355D01*
X990356D01*
Y1372998D01*
X989356D01*
X1002352Y1367000D02*
X1000352Y1368999D01*
Y1370999D01*
X1002352Y1372998D01*
X1005351Y1367000D02*
X1007350D01*
X1006351D01*
Y1372998D01*
X1005351Y1371998D01*
X1010349Y1367000D02*
Y1368000D01*
X1011349D01*
Y1367000D01*
X1010349D01*
X1015348D02*
X1017347D01*
X1016347D01*
Y1372998D01*
X1015348Y1371998D01*
X1023345Y1367000D02*
Y1372998D01*
X1020346Y1369999D01*
X1024345D01*
X1026344Y1371998D02*
X1027344Y1372998D01*
X1029343D01*
X1030343Y1371998D01*
Y1368000D01*
X1029343Y1367000D01*
X1027344D01*
X1026344Y1368000D01*
Y1371998D01*
X1032342Y1367000D02*
Y1370999D01*
X1033342D01*
X1034341Y1369999D01*
Y1367000D01*
Y1369999D01*
X1035341Y1370999D01*
X1036341Y1369999D01*
Y1367000D01*
X1038340D02*
Y1370999D01*
X1039340D01*
X1040339Y1369999D01*
Y1367000D01*
Y1369999D01*
X1041339Y1370999D01*
X1042339Y1369999D01*
Y1367000D01*
X1044338D02*
X1046338Y1368999D01*
Y1370999D01*
X1044338Y1372998D01*
X953368Y1357998D02*
X949369D01*
Y1354999D01*
X951368Y1355999D01*
X952368D01*
X953368Y1354999D01*
Y1353000D01*
X952368Y1352000D01*
X950369D01*
X949369Y1353000D01*
X959366Y1357998D02*
X955367D01*
Y1354999D01*
X957366Y1355999D01*
X958366D01*
X959366Y1354999D01*
Y1353000D01*
X958366Y1352000D01*
X956367D01*
X955367Y1353000D01*
X961365Y1352000D02*
Y1353000D01*
X962365D01*
Y1352000D01*
X961365D01*
X966363D02*
X968363D01*
X967363D01*
Y1357998D01*
X966363Y1356998D01*
X975360Y1352000D02*
X971362D01*
X975360Y1355999D01*
Y1356998D01*
X974361Y1357998D01*
X972361D01*
X971362Y1356998D01*
X977360Y1352000D02*
Y1355999D01*
X978360D01*
X979359Y1354999D01*
Y1352000D01*
Y1354999D01*
X980359Y1355999D01*
X981359Y1354999D01*
Y1352000D01*
X983358D02*
X985357D01*
X984358D01*
Y1355999D01*
X983358D01*
X988356Y1352000D02*
X990356D01*
X989356D01*
Y1357998D01*
X988356D01*
X1001352Y1352000D02*
X999353Y1353999D01*
Y1355999D01*
X1001352Y1357998D01*
X1004351Y1352000D02*
X1006351D01*
X1005351D01*
Y1357998D01*
X1004351Y1356998D01*
X1009350Y1352000D02*
Y1353000D01*
X1010349D01*
Y1352000D01*
X1009350D01*
X1017347D02*
Y1357998D01*
X1014348Y1354999D01*
X1018347D01*
X1020346Y1356998D02*
X1021346Y1357998D01*
X1023345D01*
X1024345Y1356998D01*
Y1353000D01*
X1023345Y1352000D01*
X1021346D01*
X1020346Y1353000D01*
Y1356998D01*
X1026344D02*
X1027344Y1357998D01*
X1029343D01*
X1030343Y1356998D01*
Y1353000D01*
X1029343Y1352000D01*
X1027344D01*
X1026344Y1353000D01*
Y1356998D01*
X1032342Y1352000D02*
Y1355999D01*
X1033342D01*
X1034341Y1354999D01*
Y1352000D01*
Y1354999D01*
X1035341Y1355999D01*
X1036341Y1354999D01*
Y1352000D01*
X1038340D02*
Y1355999D01*
X1039340D01*
X1040339Y1354999D01*
Y1352000D01*
Y1354999D01*
X1041339Y1355999D01*
X1042339Y1354999D01*
Y1352000D01*
X1044338D02*
X1046338Y1353999D01*
Y1355999D01*
X1044338Y1357998D01*
X953368Y1342998D02*
X951368Y1341998D01*
X949369Y1339999D01*
Y1338000D01*
X950369Y1337000D01*
X952368D01*
X953368Y1338000D01*
Y1338999D01*
X952368Y1339999D01*
X949369D01*
X959366Y1337000D02*
X955367D01*
X959366Y1340999D01*
Y1341998D01*
X958366Y1342998D01*
X956367D01*
X955367Y1341998D01*
X961365Y1337000D02*
Y1338000D01*
X962365D01*
Y1337000D01*
X961365D01*
X966363Y1338000D02*
X967363Y1337000D01*
X969363D01*
X970362Y1338000D01*
Y1341998D01*
X969363Y1342998D01*
X967363D01*
X966363Y1341998D01*
Y1340999D01*
X967363Y1339999D01*
X970362D01*
X972361Y1338000D02*
X973361Y1337000D01*
X975360D01*
X976360Y1338000D01*
Y1341998D01*
X975360Y1342998D01*
X973361D01*
X972361Y1341998D01*
Y1340999D01*
X973361Y1339999D01*
X976360D01*
X978360Y1337000D02*
Y1340999D01*
X979359D01*
X980359Y1339999D01*
Y1337000D01*
Y1339999D01*
X981359Y1340999D01*
X982358Y1339999D01*
Y1337000D01*
X984358D02*
X986357D01*
X985357D01*
Y1340999D01*
X984358D01*
X989356Y1337000D02*
X991355D01*
X990356D01*
Y1342998D01*
X989356D01*
X1002352Y1337000D02*
X1000352Y1338999D01*
Y1340999D01*
X1002352Y1342998D01*
X1005351Y1337000D02*
X1007350D01*
X1006351D01*
Y1342998D01*
X1005351Y1341998D01*
X1010349Y1337000D02*
Y1338000D01*
X1011349D01*
Y1337000D01*
X1010349D01*
X1019346Y1342998D02*
X1017347Y1341998D01*
X1015348Y1339999D01*
Y1338000D01*
X1016347Y1337000D01*
X1018347D01*
X1019346Y1338000D01*
Y1338999D01*
X1018347Y1339999D01*
X1015348D01*
X1021346Y1341998D02*
X1022345Y1342998D01*
X1024345D01*
X1025344Y1341998D01*
Y1338000D01*
X1024345Y1337000D01*
X1022345D01*
X1021346Y1338000D01*
Y1341998D01*
X1027344D02*
X1028343Y1342998D01*
X1030343D01*
X1031342Y1341998D01*
Y1338000D01*
X1030343Y1337000D01*
X1028343D01*
X1027344Y1338000D01*
Y1341998D01*
X1033342Y1337000D02*
Y1340999D01*
X1034341D01*
X1035341Y1339999D01*
Y1337000D01*
Y1339999D01*
X1036341Y1340999D01*
X1037341Y1339999D01*
Y1337000D01*
X1039340D02*
Y1340999D01*
X1040339D01*
X1041339Y1339999D01*
Y1337000D01*
Y1339999D01*
X1042339Y1340999D01*
X1043338Y1339999D01*
Y1337000D01*
X1045338D02*
X1047337Y1338999D01*
Y1340999D01*
X1045338Y1342998D01*
X953368Y1322000D02*
X949369D01*
X953368Y1325999D01*
Y1326998D01*
X952368Y1327998D01*
X950369D01*
X949369Y1326998D01*
X955367D02*
X956367Y1327998D01*
X958366D01*
X959366Y1326998D01*
Y1325999D01*
X958366Y1324999D01*
X959366Y1323999D01*
Y1323000D01*
X958366Y1322000D01*
X956367D01*
X955367Y1323000D01*
Y1323999D01*
X956367Y1324999D01*
X955367Y1325999D01*
Y1326998D01*
X956367Y1324999D02*
X958366D01*
X961365Y1322000D02*
Y1323000D01*
X962365D01*
Y1322000D01*
X961365D01*
X966363Y1326998D02*
X967363Y1327998D01*
X969363D01*
X970362Y1326998D01*
Y1323000D01*
X969363Y1322000D01*
X967363D01*
X966363Y1323000D01*
Y1326998D01*
X972361D02*
X973361Y1327998D01*
X975360D01*
X976360Y1326998D01*
Y1323000D01*
X975360Y1322000D01*
X973361D01*
X972361Y1323000D01*
Y1326998D01*
X978360Y1322000D02*
Y1325999D01*
X979359D01*
X980359Y1324999D01*
Y1322000D01*
Y1324999D01*
X981359Y1325999D01*
X982358Y1324999D01*
Y1322000D01*
X984358D02*
X986357D01*
X985357D01*
Y1325999D01*
X984358D01*
X989356Y1322000D02*
X991355D01*
X990356D01*
Y1327998D01*
X989356D01*
X1002352Y1322000D02*
X1000352Y1323999D01*
Y1325999D01*
X1002352Y1327998D01*
X1005351Y1326998D02*
X1006351Y1327998D01*
X1008350D01*
X1009350Y1326998D01*
Y1323000D01*
X1008350Y1322000D01*
X1006351D01*
X1005351Y1323000D01*
Y1326998D01*
X1011349Y1322000D02*
Y1323000D01*
X1012349D01*
Y1322000D01*
X1011349D01*
X1016347Y1327998D02*
X1020346D01*
Y1326998D01*
X1016347Y1323000D01*
Y1322000D01*
X1022345D02*
X1024345D01*
X1023345D01*
Y1327998D01*
X1022345Y1326998D01*
X1027344Y1322000D02*
X1029343D01*
X1028343D01*
Y1327998D01*
X1027344Y1326998D01*
X1032342Y1322000D02*
Y1325999D01*
X1033342D01*
X1034341Y1324999D01*
Y1322000D01*
Y1324999D01*
X1035341Y1325999D01*
X1036341Y1324999D01*
Y1322000D01*
X1038340D02*
Y1325999D01*
X1039340D01*
X1040339Y1324999D01*
Y1322000D01*
Y1324999D01*
X1041339Y1325999D01*
X1042339Y1324999D01*
Y1322000D01*
X1044338D02*
X1046338Y1323999D01*
Y1325999D01*
X1044338Y1327998D01*
X949369Y1307000D02*
X951368D01*
X950369D01*
Y1312998D01*
X949369Y1311998D01*
X958366Y1307000D02*
X954367D01*
X958366Y1310999D01*
Y1311998D01*
X957366Y1312998D01*
X955367D01*
X954367Y1311998D01*
X964364Y1312998D02*
X960365D01*
Y1309999D01*
X962365Y1310999D01*
X963364D01*
X964364Y1309999D01*
Y1308000D01*
X963364Y1307000D01*
X961365D01*
X960365Y1308000D01*
X966363Y1307000D02*
Y1308000D01*
X967363D01*
Y1307000D01*
X966363D01*
X971362Y1311998D02*
X972361Y1312998D01*
X974361D01*
X975360Y1311998D01*
Y1308000D01*
X974361Y1307000D01*
X972361D01*
X971362Y1308000D01*
Y1311998D01*
X977360D02*
X978360Y1312998D01*
X980359D01*
X981359Y1311998D01*
Y1308000D01*
X980359Y1307000D01*
X978360D01*
X977360Y1308000D01*
Y1311998D01*
X983358Y1307000D02*
Y1310999D01*
X984358D01*
X985357Y1309999D01*
Y1307000D01*
Y1309999D01*
X986357Y1310999D01*
X987357Y1309999D01*
Y1307000D01*
X989356D02*
X991355D01*
X990356D01*
Y1310999D01*
X989356D01*
X994354Y1307000D02*
X996354D01*
X995354D01*
Y1312998D01*
X994354D01*
X1007350Y1307000D02*
X1005351Y1308999D01*
Y1310999D01*
X1007350Y1312998D01*
X1010349Y1311998D02*
X1011349Y1312998D01*
X1013348D01*
X1014348Y1311998D01*
Y1310999D01*
X1013348Y1309999D01*
X1012348D01*
X1013348D01*
X1014348Y1308999D01*
Y1308000D01*
X1013348Y1307000D01*
X1011349D01*
X1010349Y1308000D01*
X1016347Y1307000D02*
Y1308000D01*
X1017347D01*
Y1307000D01*
X1016347D01*
X1021346D02*
X1023345D01*
X1022345D01*
Y1312998D01*
X1021346Y1311998D01*
X1026344Y1312998D02*
X1030343D01*
Y1311998D01*
X1026344Y1308000D01*
Y1307000D01*
X1036341Y1312998D02*
X1032342D01*
Y1309999D01*
X1034341Y1310999D01*
X1035341D01*
X1036341Y1309999D01*
Y1308000D01*
X1035341Y1307000D01*
X1033342D01*
X1032342Y1308000D01*
X1038340Y1307000D02*
Y1310999D01*
X1039340D01*
X1040339Y1309999D01*
Y1307000D01*
Y1309999D01*
X1041339Y1310999D01*
X1042339Y1309999D01*
Y1307000D01*
X1044338D02*
Y1310999D01*
X1045338D01*
X1046338Y1309999D01*
Y1307000D01*
Y1309999D01*
X1047337Y1310999D01*
X1048337Y1309999D01*
Y1307000D01*
X1050336D02*
X1052336Y1308999D01*
Y1310999D01*
X1050336Y1312998D01*
X952368Y1292000D02*
Y1297998D01*
X949369Y1294999D01*
X953368D01*
X955367Y1296998D02*
X956367Y1297998D01*
X958366D01*
X959366Y1296998D01*
Y1293000D01*
X958366Y1292000D01*
X956367D01*
X955367Y1293000D01*
Y1296998D01*
X961365Y1292000D02*
Y1293000D01*
X962365D01*
Y1292000D01*
X961365D01*
X966363Y1296998D02*
X967363Y1297998D01*
X969363D01*
X970362Y1296998D01*
Y1293000D01*
X969363Y1292000D01*
X967363D01*
X966363Y1293000D01*
Y1296998D01*
X972361D02*
X973361Y1297998D01*
X975360D01*
X976360Y1296998D01*
Y1293000D01*
X975360Y1292000D01*
X973361D01*
X972361Y1293000D01*
Y1296998D01*
X978360Y1292000D02*
Y1295999D01*
X979359D01*
X980359Y1294999D01*
Y1292000D01*
Y1294999D01*
X981359Y1295999D01*
X982358Y1294999D01*
Y1292000D01*
X984358D02*
X986357D01*
X985357D01*
Y1295999D01*
X984358D01*
X989356Y1292000D02*
X991355D01*
X990356D01*
Y1297998D01*
X989356D01*
X1002352Y1292000D02*
X1000352Y1293999D01*
Y1295999D01*
X1002352Y1297998D01*
X1005351Y1292000D02*
X1007350D01*
X1006351D01*
Y1297998D01*
X1005351Y1296998D01*
X1010349Y1292000D02*
Y1293000D01*
X1011349D01*
Y1292000D01*
X1010349D01*
X1015348Y1296998D02*
X1016347Y1297998D01*
X1018347D01*
X1019346Y1296998D01*
Y1293000D01*
X1018347Y1292000D01*
X1016347D01*
X1015348Y1293000D01*
Y1296998D01*
X1021346Y1292000D02*
X1023345D01*
X1022345D01*
Y1297998D01*
X1021346Y1296998D01*
X1030343Y1297998D02*
X1028343Y1296998D01*
X1026344Y1294999D01*
Y1293000D01*
X1027344Y1292000D01*
X1029343D01*
X1030343Y1293000D01*
Y1293999D01*
X1029343Y1294999D01*
X1026344D01*
X1032342Y1292000D02*
Y1295999D01*
X1033342D01*
X1034341Y1294999D01*
Y1292000D01*
Y1294999D01*
X1035341Y1295999D01*
X1036341Y1294999D01*
Y1292000D01*
X1038340D02*
Y1295999D01*
X1039340D01*
X1040339Y1294999D01*
Y1292000D01*
Y1294999D01*
X1041339Y1295999D01*
X1042339Y1294999D01*
Y1292000D01*
X1044338D02*
X1046338Y1293999D01*
Y1295999D01*
X1044338Y1297998D01*
X953368Y1277000D02*
X949369D01*
X953368Y1280999D01*
Y1281998D01*
X952368Y1282998D01*
X950369D01*
X949369Y1281998D01*
X955367D02*
X956367Y1282998D01*
X958366D01*
X959366Y1281998D01*
Y1278000D01*
X958366Y1277000D01*
X956367D01*
X955367Y1278000D01*
Y1281998D01*
X961365Y1277000D02*
Y1278000D01*
X962365D01*
Y1277000D01*
X961365D01*
X966363Y1281998D02*
X967363Y1282998D01*
X969363D01*
X970362Y1281998D01*
Y1278000D01*
X969363Y1277000D01*
X967363D01*
X966363Y1278000D01*
Y1281998D01*
X972361D02*
X973361Y1282998D01*
X975360D01*
X976360Y1281998D01*
Y1278000D01*
X975360Y1277000D01*
X973361D01*
X972361Y1278000D01*
Y1281998D01*
X978360Y1277000D02*
Y1280999D01*
X979359D01*
X980359Y1279999D01*
Y1277000D01*
Y1279999D01*
X981359Y1280999D01*
X982358Y1279999D01*
Y1277000D01*
X984358D02*
X986357D01*
X985357D01*
Y1280999D01*
X984358D01*
X989356Y1277000D02*
X991355D01*
X990356D01*
Y1282998D01*
X989356D01*
X1002352Y1277000D02*
X1000352Y1278999D01*
Y1280999D01*
X1002352Y1282998D01*
X1005351Y1281998D02*
X1006351Y1282998D01*
X1008350D01*
X1009350Y1281998D01*
Y1278000D01*
X1008350Y1277000D01*
X1006351D01*
X1005351Y1278000D01*
Y1281998D01*
X1011349Y1277000D02*
Y1278000D01*
X1012349D01*
Y1277000D01*
X1011349D01*
X1020346Y1282998D02*
X1016347D01*
Y1279999D01*
X1018347Y1280999D01*
X1019346D01*
X1020346Y1279999D01*
Y1278000D01*
X1019346Y1277000D01*
X1017347D01*
X1016347Y1278000D01*
X1022345Y1281998D02*
X1023345Y1282998D01*
X1025344D01*
X1026344Y1281998D01*
Y1278000D01*
X1025344Y1277000D01*
X1023345D01*
X1022345Y1278000D01*
Y1281998D01*
X1028343D02*
X1029343Y1282998D01*
X1031342D01*
X1032342Y1281998D01*
Y1280999D01*
X1031342Y1279999D01*
X1032342Y1278999D01*
Y1278000D01*
X1031342Y1277000D01*
X1029343D01*
X1028343Y1278000D01*
Y1278999D01*
X1029343Y1279999D01*
X1028343Y1280999D01*
Y1281998D01*
X1029343Y1279999D02*
X1031342D01*
X1034341Y1277000D02*
Y1280999D01*
X1035341D01*
X1036341Y1279999D01*
Y1277000D01*
Y1279999D01*
X1037341Y1280999D01*
X1038340Y1279999D01*
Y1277000D01*
X1040339D02*
Y1280999D01*
X1041339D01*
X1042339Y1279999D01*
Y1277000D01*
Y1279999D01*
X1043338Y1280999D01*
X1044338Y1279999D01*
Y1277000D01*
X1046338D02*
X1048337Y1278999D01*
Y1280999D01*
X1046338Y1282998D01*
X882587Y1262000D02*
Y1267998D01*
X879588Y1264999D01*
X883586D01*
X885586Y1267998D02*
X889584D01*
Y1266998D01*
X885586Y1263000D01*
Y1262000D01*
X891584Y1266998D02*
X892583Y1267998D01*
X894583D01*
X895582Y1266998D01*
Y1265999D01*
X894583Y1264999D01*
X893583D01*
X894583D01*
X895582Y1263999D01*
Y1263000D01*
X894583Y1262000D01*
X892583D01*
X891584Y1263000D01*
X903580Y1267998D02*
X907578D01*
X905579D01*
Y1262000D01*
X910577D02*
X912577D01*
X913577Y1263000D01*
Y1264999D01*
X912577Y1265999D01*
X910577D01*
X909578Y1264999D01*
Y1263000D01*
X910577Y1262000D01*
X916576Y1266998D02*
Y1265999D01*
X915576D01*
X917575D01*
X916576D01*
Y1263000D01*
X917575Y1262000D01*
X921574Y1265999D02*
X923573D01*
X924573Y1264999D01*
Y1262000D01*
X921574D01*
X920574Y1263000D01*
X921574Y1263999D01*
X924573D01*
X926572Y1262000D02*
X928572D01*
X927572D01*
Y1267998D01*
X926572D01*
X879588Y1382000D02*
X881587D01*
X880587D01*
Y1387998D01*
X879588Y1386998D01*
Y1367000D02*
X881587D01*
X880587D01*
Y1372998D01*
X879588Y1371998D01*
Y1352000D02*
X881587D01*
X880587D01*
Y1357998D01*
X879588Y1356998D01*
Y1337000D02*
X881587D01*
X880587D01*
Y1342998D01*
X879588Y1341998D01*
Y1326998D02*
X880587Y1327998D01*
X882587D01*
X883586Y1326998D01*
Y1325999D01*
X882587Y1324999D01*
X881587D01*
X882587D01*
X883586Y1323999D01*
Y1323000D01*
X882587Y1322000D01*
X880587D01*
X879588Y1323000D01*
X882587Y1307000D02*
Y1312998D01*
X879588Y1309999D01*
X883586D01*
Y1292000D02*
X879588D01*
X883586Y1295999D01*
Y1296998D01*
X882587Y1297998D01*
X880587D01*
X879588Y1296998D01*
X889584Y1292000D02*
X885586D01*
X889584Y1295999D01*
Y1296998D01*
X888585Y1297998D01*
X886585D01*
X885586Y1296998D01*
X891584D02*
X892583Y1297998D01*
X894583D01*
X895582Y1296998D01*
Y1293000D01*
X894583Y1292000D01*
X892583D01*
X891584Y1293000D01*
Y1296998D01*
X883586Y1277000D02*
X879588D01*
X883586Y1280999D01*
Y1281998D01*
X882587Y1282998D01*
X880587D01*
X879588Y1281998D01*
X888585Y1277000D02*
Y1282998D01*
X885586Y1279999D01*
X889584D01*
X895582Y1277000D02*
X891584D01*
X895582Y1280999D01*
Y1281998D01*
X894583Y1282998D01*
X892583D01*
X891584Y1281998D01*
D36*
X820000Y1199998D02*
Y1192500D01*
X823749D01*
X824998Y1193750D01*
Y1198748D01*
X823749Y1199998D01*
X820000D01*
X827498Y1197498D02*
Y1192500D01*
Y1194999D01*
X828747Y1196249D01*
X829997Y1197498D01*
X831246D01*
X834995Y1192500D02*
X837494D01*
X836245D01*
Y1197498D01*
X834995D01*
X841243Y1192500D02*
X843742D01*
X842493D01*
Y1199998D01*
X841243D01*
X847491Y1192500D02*
X849990D01*
X848741D01*
Y1199998D01*
X847491D01*
X861237D02*
Y1192500D01*
X864985D01*
X866235Y1193750D01*
Y1198748D01*
X864985Y1199998D01*
X861237D01*
X868734Y1197498D02*
Y1192500D01*
Y1194999D01*
X869984Y1196249D01*
X871233Y1197498D01*
X872483D01*
X877481D02*
X879981D01*
X881230Y1196249D01*
Y1192500D01*
X877481D01*
X876232Y1193750D01*
X877481Y1194999D01*
X881230D01*
X883729Y1197498D02*
Y1193750D01*
X884979Y1192500D01*
X886229Y1193750D01*
X887478Y1192500D01*
X888728Y1193750D01*
Y1197498D01*
X891227Y1192500D02*
X893726D01*
X892477D01*
Y1197498D01*
X891227D01*
X897475Y1192500D02*
Y1197498D01*
X901224D01*
X902473Y1196249D01*
Y1192500D01*
X907472Y1190001D02*
X908721D01*
X909971Y1191250D01*
Y1197498D01*
X906222D01*
X904973Y1196249D01*
Y1193750D01*
X906222Y1192500D01*
X909971D01*
D90*
X831812Y1324500D02*
G03*
X831812Y1324500I-2500J0D01*
G01*
X369167Y1565000D02*
G03*
X369167Y1565000I-1667J0D01*
G01*
X271667Y1345000D02*
G03*
X271667Y1345000I-1667J0D01*
G01*
X569167Y1317500D02*
G03*
X569167Y1317500I-1667J0D01*
G01*
X826812Y1383250D02*
X828063D01*
X826812D02*
Y1385750D01*
X828063D01*
Y1387000D01*
X830562D01*
Y1385750D02*
Y1387000D01*
Y1385750D02*
X831812D01*
Y1383250D02*
Y1385750D01*
X830562Y1383250D02*
X831812D01*
X830562Y1382000D02*
Y1383250D01*
X828063Y1382000D02*
X830562D01*
X828063D02*
Y1383250D01*
Y1368250D02*
X829313Y1367000D01*
X826812Y1368250D02*
X828063D01*
X826812D02*
X828063Y1369500D01*
X826812Y1370750D02*
X828063Y1369500D01*
X826812Y1370750D02*
X828063D01*
X829313Y1372000D01*
X830562Y1370750D01*
X831812D01*
X830562Y1369500D02*
X831812Y1370750D01*
X830562Y1369500D02*
X831812Y1368250D01*
X830562D02*
X831812D01*
X829313Y1367000D02*
X830562Y1368250D01*
X826812Y1352000D02*
X829313Y1353250D01*
X831812Y1352000D01*
X830562Y1354500D02*
X831812Y1352000D01*
X830562Y1354500D02*
X831812Y1357000D01*
X829313Y1355750D02*
X831812Y1357000D01*
X826812D02*
X829313Y1355750D01*
X826812Y1357000D02*
X828063Y1354500D01*
X826812Y1352000D02*
X828063Y1354500D01*
X826812Y1337000D02*
Y1338250D01*
X828063Y1339500D01*
X826812Y1340750D02*
X828063Y1339500D01*
X826812Y1340750D02*
Y1342000D01*
X828063D01*
X829313Y1340750D01*
X830562Y1342000D01*
X831812D01*
Y1340750D02*
Y1342000D01*
X830562Y1339500D02*
X831812Y1340750D01*
X830562Y1339500D02*
X831812Y1338250D01*
Y1337000D02*
Y1338250D01*
X830562Y1337000D02*
X831812D01*
X829313Y1338250D02*
X830562Y1337000D01*
X828063D02*
X829313Y1338250D01*
X826812Y1337000D02*
X828063D01*
X826812Y1309500D02*
X829313Y1307000D01*
X831812Y1309500D01*
X829313Y1312000D02*
X831812Y1309500D01*
X826812D02*
X829313Y1312000D01*
Y1292000D02*
X831812Y1297000D01*
X826812D02*
X831812D01*
X826812D02*
X829313Y1292000D01*
X826812Y1277000D02*
X831812D01*
Y1282000D01*
X826812D02*
X831812D01*
X826812Y1277000D02*
Y1282000D01*
X520833Y1485833D02*
X524167D01*
Y1489167D01*
X520833D02*
X524167D01*
X520833Y1485833D02*
Y1489167D01*
X513833Y1472833D02*
X517167D01*
Y1476167D01*
X513833D02*
X517167D01*
X513833Y1472833D02*
Y1476167D01*
X500833Y1505833D02*
X504167D01*
Y1509167D01*
X500833D02*
X504167D01*
X500833Y1505833D02*
Y1509167D01*
Y1485833D02*
X504167D01*
Y1489167D01*
X500833D02*
X504167D01*
X500833Y1485833D02*
Y1489167D01*
X350833Y1475833D02*
X354167D01*
Y1479167D01*
X350833D02*
X354167D01*
X350833Y1475833D02*
Y1479167D01*
X535833Y1328333D02*
X539167D01*
Y1331667D01*
X535833D02*
X539167D01*
X535833Y1328333D02*
Y1331667D01*
X530833Y1323333D02*
X534167D01*
Y1326667D01*
X530833D02*
X534167D01*
X530833Y1323333D02*
Y1326667D01*
X525833Y1328333D02*
X529167D01*
Y1331667D01*
X525833D02*
X529167D01*
X525833Y1328333D02*
Y1331667D01*
X520833Y1323333D02*
X524167D01*
Y1326667D01*
X520833D02*
X524167D01*
X520833Y1323333D02*
Y1326667D01*
X515833Y1328333D02*
X519167D01*
Y1331667D01*
X515833D02*
X519167D01*
X515833Y1328333D02*
Y1331667D01*
X510833Y1323333D02*
X514167D01*
Y1326667D01*
X510833D02*
X514167D01*
X510833Y1323333D02*
Y1326667D01*
X505833Y1328333D02*
X509167D01*
Y1331667D01*
X505833D02*
X509167D01*
X505833Y1328333D02*
Y1331667D01*
X500833Y1323333D02*
X504167D01*
Y1326667D01*
X500833D02*
X504167D01*
X500833Y1323333D02*
Y1326667D01*
X618333Y1328333D02*
X621667D01*
Y1331667D01*
X618333D02*
X621667D01*
X618333Y1328333D02*
Y1331667D01*
X613333Y1323333D02*
X616667D01*
Y1326667D01*
X613333D02*
X616667D01*
X613333Y1323333D02*
Y1326667D01*
X608333Y1328333D02*
X611667D01*
Y1331667D01*
X608333D02*
X611667D01*
X608333Y1328333D02*
Y1331667D01*
X603333Y1323333D02*
X606667D01*
Y1326667D01*
X603333D02*
X606667D01*
X603333Y1323333D02*
Y1326667D01*
X598333Y1328333D02*
X601667D01*
Y1331667D01*
X598333D02*
X601667D01*
X598333Y1328333D02*
Y1331667D01*
X593333Y1323333D02*
X596667D01*
Y1326667D01*
X593333D02*
X596667D01*
X593333Y1323333D02*
Y1326667D01*
X588333Y1328333D02*
X591667D01*
Y1331667D01*
X588333D02*
X591667D01*
X588333Y1328333D02*
Y1331667D01*
X583333Y1323333D02*
X586667D01*
Y1326667D01*
X583333D02*
X586667D01*
X583333Y1323333D02*
Y1326667D01*
X610833Y1470833D02*
X614167D01*
Y1474167D01*
X610833D02*
X614167D01*
X610833Y1470833D02*
Y1474167D01*
X613333Y1480833D02*
X616667D01*
Y1484167D01*
X613333D02*
X616667D01*
X613333Y1480833D02*
Y1484167D01*
X403333Y1550833D02*
X406667D01*
Y1554167D01*
X403333D02*
X406667D01*
X403333Y1550833D02*
Y1554167D01*
X418333Y1550833D02*
X421667D01*
Y1554167D01*
X418333D02*
X421667D01*
X418333Y1550833D02*
Y1554167D01*
X415833Y1558333D02*
X419167D01*
Y1561667D01*
X415833D02*
X419167D01*
X415833Y1558333D02*
Y1561667D01*
X440814Y1550853D02*
X444147D01*
Y1554186D01*
X440814D02*
X444147D01*
X440814Y1550853D02*
Y1554186D01*
X520833Y1500833D02*
X524167D01*
Y1504167D01*
X520833D02*
X524167D01*
X520833Y1500833D02*
Y1504167D01*
X493833Y1472833D02*
X497167D01*
Y1476167D01*
X493833D02*
X497167D01*
X493833Y1472833D02*
Y1476167D01*
X368333Y1588333D02*
X371667D01*
Y1591667D01*
X368333D02*
X371667D01*
X368333Y1588333D02*
Y1591667D01*
X345833Y1565833D02*
X349167D01*
Y1569167D01*
X345833D02*
X349167D01*
X345833Y1565833D02*
Y1569167D01*
X733333Y1678333D02*
X736667D01*
Y1681667D01*
X733333D02*
X736667D01*
X733333Y1678333D02*
Y1681667D01*
X708333Y1678333D02*
X711667D01*
Y1681667D01*
X708333D02*
X711667D01*
X708333Y1678333D02*
Y1681667D01*
X733333Y1658333D02*
X736667D01*
Y1661667D01*
X733333D02*
X736667D01*
X733333Y1658333D02*
Y1661667D01*
X708333Y1653333D02*
X711667D01*
Y1656667D01*
X708333D02*
X711667D01*
X708333Y1653333D02*
Y1656667D01*
X470833Y1610833D02*
X474167D01*
Y1614167D01*
X470833D02*
X474167D01*
X470833Y1610833D02*
Y1614167D01*
X555833Y1615833D02*
X559167D01*
Y1619167D01*
X555833D02*
X559167D01*
X555833Y1615833D02*
Y1619167D01*
X523333Y1598333D02*
X526667D01*
Y1601667D01*
X523333D02*
X526667D01*
X523333Y1598333D02*
Y1601667D01*
X505833Y1598333D02*
X509167D01*
Y1601667D01*
X505833D02*
X509167D01*
X505833Y1598333D02*
Y1601667D01*
X525833Y1565833D02*
X529167D01*
Y1569167D01*
X525833D02*
X529167D01*
X525833Y1565833D02*
Y1569167D01*
X508333Y1565833D02*
X511667D01*
Y1569167D01*
X508333D02*
X511667D01*
X508333Y1565833D02*
Y1569167D01*
X498333Y1660833D02*
X501667D01*
Y1664167D01*
X498333D02*
X501667D01*
X498333Y1660833D02*
Y1664167D01*
X505833Y1650833D02*
X509167D01*
Y1654167D01*
X505833D02*
X509167D01*
X505833Y1650833D02*
Y1654167D01*
X503333Y1638333D02*
X506667D01*
Y1641667D01*
X503333D02*
X506667D01*
X503333Y1638333D02*
Y1641667D01*
Y1630833D02*
X506667D01*
Y1634167D01*
X503333D02*
X506667D01*
X503333Y1630833D02*
Y1634167D01*
Y1623333D02*
X506667D01*
Y1626667D01*
X503333D02*
X506667D01*
X503333Y1623333D02*
Y1626667D01*
X500833Y1613333D02*
X504167D01*
Y1616667D01*
X500833D02*
X504167D01*
X500833Y1613333D02*
Y1616667D01*
Y1573333D02*
X504167D01*
Y1576667D01*
X500833D02*
X504167D01*
X500833Y1573333D02*
Y1576667D01*
X533944Y1573944D02*
X537277D01*
Y1577277D01*
X533944D02*
X537277D01*
X533944Y1573944D02*
Y1577277D01*
X530833Y1613333D02*
X534167D01*
Y1616667D01*
X530833D02*
X534167D01*
X530833Y1613333D02*
Y1616667D01*
X547333Y1641333D02*
X550667D01*
Y1644667D01*
X547333D02*
X550667D01*
X547333Y1641333D02*
Y1644667D01*
X533333Y1620833D02*
X536667D01*
Y1624167D01*
X533333D02*
X536667D01*
X533333Y1620833D02*
Y1624167D01*
X533530Y1630636D02*
X536864D01*
Y1633970D01*
X533530D02*
X536864D01*
X533530Y1630636D02*
Y1633970D01*
X533333Y1650833D02*
X536667D01*
Y1654167D01*
X533333D02*
X536667D01*
X533333Y1650833D02*
Y1654167D01*
X538333Y1660833D02*
X541667D01*
Y1664167D01*
X538333D02*
X541667D01*
X538333Y1660833D02*
Y1664167D01*
X578333Y1328333D02*
X581667D01*
Y1331667D01*
X578333D02*
X581667D01*
X578333Y1328333D02*
Y1331667D01*
X660833Y1328333D02*
X664167D01*
Y1331667D01*
X660833D02*
X664167D01*
X660833Y1328333D02*
Y1331667D01*
X665833Y1323333D02*
X669167D01*
Y1326667D01*
X665833D02*
X669167D01*
X665833Y1323333D02*
Y1326667D01*
X670833Y1328333D02*
X674167D01*
Y1331667D01*
X670833D02*
X674167D01*
X670833Y1328333D02*
Y1331667D01*
X675833Y1323333D02*
X679167D01*
Y1326667D01*
X675833D02*
X679167D01*
X675833Y1323333D02*
Y1326667D01*
X680833Y1328333D02*
X684167D01*
Y1331667D01*
X680833D02*
X684167D01*
X680833Y1328333D02*
Y1331667D01*
X685833Y1323333D02*
X689167D01*
Y1326667D01*
X685833D02*
X689167D01*
X685833Y1323333D02*
Y1326667D01*
X690833Y1328333D02*
X694167D01*
Y1331667D01*
X690833D02*
X694167D01*
X690833Y1328333D02*
Y1331667D01*
X695833Y1323333D02*
X699167D01*
Y1326667D01*
X695833D02*
X699167D01*
X695833Y1323333D02*
Y1326667D01*
X700833Y1328333D02*
X704167D01*
Y1331667D01*
X700833D02*
X704167D01*
X700833Y1328333D02*
Y1331667D01*
X705833Y1323333D02*
X709167D01*
Y1326667D01*
X705833D02*
X709167D01*
X705833Y1323333D02*
Y1326667D01*
X710833Y1328333D02*
X714167D01*
Y1331667D01*
X710833D02*
X714167D01*
X710833Y1328333D02*
Y1331667D01*
X623333Y1323333D02*
X626667D01*
Y1326667D01*
X623333D02*
X626667D01*
X623333Y1323333D02*
Y1326667D01*
X628333Y1328333D02*
X631667D01*
Y1331667D01*
X628333D02*
X631667D01*
X628333Y1328333D02*
Y1331667D01*
X545833Y1328333D02*
X549167D01*
Y1331667D01*
X545833D02*
X549167D01*
X545833Y1328333D02*
Y1331667D01*
X540833Y1323333D02*
X544167D01*
Y1326667D01*
X540833D02*
X544167D01*
X540833Y1323333D02*
Y1326667D01*
X495833Y1328333D02*
X499167D01*
Y1331667D01*
X495833D02*
X499167D01*
X495833Y1328333D02*
Y1331667D01*
X463333Y1328333D02*
X466667D01*
Y1331667D01*
X463333D02*
X466667D01*
X463333Y1328333D02*
Y1331667D01*
X458333Y1323333D02*
X461667D01*
Y1326667D01*
X458333D02*
X461667D01*
X458333Y1323333D02*
Y1326667D01*
X453333Y1328333D02*
X456667D01*
Y1331667D01*
X453333D02*
X456667D01*
X453333Y1328333D02*
Y1331667D01*
X448333Y1323333D02*
X451667D01*
Y1326667D01*
X448333D02*
X451667D01*
X448333Y1323333D02*
Y1326667D01*
X443333Y1328333D02*
X446667D01*
Y1331667D01*
X443333D02*
X446667D01*
X443333Y1328333D02*
Y1331667D01*
X438333Y1323333D02*
X441667D01*
Y1326667D01*
X438333D02*
X441667D01*
X438333Y1323333D02*
Y1326667D01*
X433333Y1328333D02*
X436667D01*
Y1331667D01*
X433333D02*
X436667D01*
X433333Y1328333D02*
Y1331667D01*
X428333Y1323333D02*
X431667D01*
Y1326667D01*
X428333D02*
X431667D01*
X428333Y1323333D02*
Y1326667D01*
X418333Y1323333D02*
X421667D01*
Y1326667D01*
X418333D02*
X421667D01*
X418333Y1323333D02*
Y1326667D01*
X413333Y1328333D02*
X416667D01*
Y1331667D01*
X413333D02*
X416667D01*
X413333Y1328333D02*
Y1331667D01*
X380833Y1335211D02*
X384167D01*
Y1338545D01*
X380833D02*
X384167D01*
X380833Y1335211D02*
Y1338545D01*
X375833Y1330211D02*
X379167D01*
Y1333545D01*
X375833D02*
X379167D01*
X375833Y1330211D02*
Y1333545D01*
X370833Y1335211D02*
X374167D01*
Y1338545D01*
X370833D02*
X374167D01*
X370833Y1335211D02*
Y1338545D01*
X365833Y1330211D02*
X369167D01*
Y1333545D01*
X365833D02*
X369167D01*
X365833Y1330211D02*
Y1333545D01*
X360833Y1335211D02*
X364167D01*
Y1338545D01*
X360833D02*
X364167D01*
X360833Y1335211D02*
Y1338545D01*
X355833Y1330211D02*
X359167D01*
Y1333545D01*
X355833D02*
X359167D01*
X355833Y1330211D02*
Y1333545D01*
X460833Y1300833D02*
X464167D01*
Y1304167D01*
X460833D02*
X464167D01*
X460833Y1300833D02*
Y1304167D01*
X455833Y1295833D02*
X459167D01*
Y1299167D01*
X455833D02*
X459167D01*
X455833Y1295833D02*
Y1299167D01*
X430833Y1290833D02*
X434167D01*
Y1294167D01*
X430833D02*
X434167D01*
X430833Y1290833D02*
Y1294167D01*
X380833Y1378333D02*
X384167D01*
Y1381667D01*
X380833D02*
X384167D01*
X380833Y1378333D02*
Y1381667D01*
X385833Y1383333D02*
X389167D01*
Y1386667D01*
X385833D02*
X389167D01*
X385833Y1383333D02*
Y1386667D01*
X370833Y1378333D02*
X374167D01*
Y1381667D01*
X370833D02*
X374167D01*
X370833Y1378333D02*
Y1381667D01*
X365833Y1383333D02*
X369167D01*
Y1386667D01*
X365833D02*
X369167D01*
X365833Y1383333D02*
Y1386667D01*
X360833Y1378333D02*
X364167D01*
Y1381667D01*
X360833D02*
X364167D01*
X360833Y1378333D02*
Y1381667D01*
X355833Y1383333D02*
X359167D01*
Y1386667D01*
X355833D02*
X359167D01*
X355833Y1383333D02*
Y1386667D01*
X433333Y1275833D02*
X436667D01*
Y1279167D01*
X433333D02*
X436667D01*
X433333Y1275833D02*
Y1279167D01*
X293333Y1390833D02*
X296667D01*
Y1394167D01*
X293333D02*
X296667D01*
X293333Y1390833D02*
Y1394167D01*
X375833Y1383333D02*
X379167D01*
Y1386667D01*
X375833D02*
X379167D01*
X375833Y1383333D02*
Y1386667D01*
X323333Y1378333D02*
X326667D01*
Y1381667D01*
X323333D02*
X326667D01*
X323333Y1378333D02*
Y1381667D01*
X328333Y1383333D02*
X331667D01*
Y1386667D01*
X328333D02*
X331667D01*
X328333Y1383333D02*
Y1386667D01*
X318333Y1383333D02*
X321667D01*
Y1386667D01*
X318333D02*
X321667D01*
X318333Y1383333D02*
Y1386667D01*
X313333Y1378333D02*
X316667D01*
Y1381667D01*
X313333D02*
X316667D01*
X313333Y1378333D02*
Y1381667D01*
X308333Y1383333D02*
X311667D01*
Y1386667D01*
X308333D02*
X311667D01*
X308333Y1383333D02*
Y1386667D01*
X303333Y1378333D02*
X306667D01*
Y1381667D01*
X303333D02*
X306667D01*
X303333Y1378333D02*
Y1381667D01*
X298333Y1383333D02*
X301667D01*
Y1386667D01*
X298333D02*
X301667D01*
X298333Y1383333D02*
Y1386667D01*
X303333Y1335211D02*
X306667D01*
Y1338545D01*
X303333D02*
X306667D01*
X303333Y1335211D02*
Y1338545D01*
X308333Y1330211D02*
X311667D01*
Y1333545D01*
X308333D02*
X311667D01*
X308333Y1330211D02*
Y1333545D01*
X318333Y1330211D02*
X321667D01*
Y1333545D01*
X318333D02*
X321667D01*
X318333Y1330211D02*
Y1333545D01*
X323333Y1335211D02*
X326667D01*
Y1338545D01*
X323333D02*
X326667D01*
X323333Y1335211D02*
Y1338545D01*
X483333Y1350833D02*
X486667D01*
Y1354167D01*
X483333D02*
X486667D01*
X483333Y1350833D02*
Y1354167D01*
X490833Y1343333D02*
X494167D01*
Y1346667D01*
X490833D02*
X494167D01*
X490833Y1343333D02*
Y1346667D01*
X475833Y1330833D02*
X479167D01*
Y1334167D01*
X475833D02*
X479167D01*
X475833Y1330833D02*
Y1334167D01*
X483333Y1328333D02*
X486667D01*
Y1331667D01*
X483333D02*
X486667D01*
X483333Y1328333D02*
Y1331667D01*
X338333Y1363333D02*
X341667D01*
Y1366667D01*
X338333D02*
X341667D01*
X338333Y1363333D02*
Y1366667D01*
X268333Y1380833D02*
X271667D01*
Y1384167D01*
X268333D02*
X271667D01*
X268333Y1380833D02*
Y1384167D01*
X565833Y1350833D02*
X569167D01*
Y1354167D01*
X565833D02*
X569167D01*
X565833Y1350833D02*
Y1354167D01*
Y1360333D02*
X569167D01*
Y1363667D01*
X565833D02*
X569167D01*
X565833Y1360333D02*
Y1363667D01*
X648333Y1348333D02*
X651667D01*
Y1351667D01*
X648333D02*
X651667D01*
X648333Y1348333D02*
Y1351667D01*
Y1357833D02*
X651667D01*
Y1361167D01*
X648333D02*
X651667D01*
X648333Y1357833D02*
Y1361167D01*
X730833Y1360333D02*
X734167D01*
Y1363667D01*
X730833D02*
X734167D01*
X730833Y1360333D02*
Y1363667D01*
Y1348333D02*
X734167D01*
Y1351667D01*
X730833D02*
X734167D01*
X730833Y1348333D02*
Y1351667D01*
X728333Y1390833D02*
X731667D01*
Y1394167D01*
X728333D02*
X731667D01*
X728333Y1390833D02*
Y1394167D01*
X663333Y1385833D02*
X666667D01*
Y1389167D01*
X663333D02*
X666667D01*
X663333Y1385833D02*
Y1389167D01*
X655833Y1375833D02*
X659167D01*
Y1379167D01*
X655833D02*
X659167D01*
X655833Y1375833D02*
Y1379167D01*
X573333Y1375833D02*
X576667D01*
Y1379167D01*
X573333D02*
X576667D01*
X573333Y1375833D02*
Y1379167D01*
X580833Y1385833D02*
X584167D01*
Y1389167D01*
X580833D02*
X584167D01*
X580833Y1385833D02*
Y1389167D01*
X645833Y1390833D02*
X649167D01*
Y1394167D01*
X645833D02*
X649167D01*
X645833Y1390833D02*
Y1394167D01*
X498333Y1385833D02*
X501667D01*
Y1389167D01*
X498333D02*
X501667D01*
X498333Y1385833D02*
Y1389167D01*
X490833Y1375833D02*
X494167D01*
Y1379167D01*
X490833D02*
X494167D01*
X490833Y1375833D02*
Y1379167D01*
X415833Y1385833D02*
X419167D01*
Y1389167D01*
X415833D02*
X419167D01*
X415833Y1385833D02*
Y1389167D01*
X408333Y1375833D02*
X411667D01*
Y1379167D01*
X408333D02*
X411667D01*
X408333Y1375833D02*
Y1379167D01*
X480833Y1390833D02*
X484167D01*
Y1394167D01*
X480833D02*
X484167D01*
X480833Y1390833D02*
Y1394167D01*
X403333Y1383333D02*
X406667D01*
Y1386667D01*
X403333D02*
X406667D01*
X403333Y1383333D02*
Y1386667D01*
X573333Y1383333D02*
X576667D01*
Y1386667D01*
X573333D02*
X576667D01*
X573333Y1383333D02*
Y1386667D01*
X313333Y1335211D02*
X316667D01*
Y1338545D01*
X313333D02*
X316667D01*
X313333Y1335211D02*
Y1338545D01*
X298333Y1330211D02*
X301667D01*
Y1333545D01*
X298333D02*
X301667D01*
X298333Y1330211D02*
Y1333545D01*
X670833Y1388333D02*
X674167D01*
Y1391667D01*
X670833D02*
X674167D01*
X670833Y1388333D02*
Y1391667D01*
X675833Y1385833D02*
X679167D01*
Y1389167D01*
X675833D02*
X679167D01*
X675833Y1385833D02*
Y1389167D01*
X680833Y1388333D02*
X684167D01*
Y1391667D01*
X680833D02*
X684167D01*
X680833Y1388333D02*
Y1391667D01*
X685833Y1385833D02*
X689167D01*
Y1389167D01*
X685833D02*
X689167D01*
X685833Y1385833D02*
Y1389167D01*
X690833Y1388333D02*
X694167D01*
Y1391667D01*
X690833D02*
X694167D01*
X690833Y1388333D02*
Y1391667D01*
X695833Y1385833D02*
X699167D01*
Y1389167D01*
X695833D02*
X699167D01*
X695833Y1385833D02*
Y1389167D01*
X700833Y1388333D02*
X704167D01*
Y1391667D01*
X700833D02*
X704167D01*
X700833Y1388333D02*
Y1391667D01*
X705833Y1385833D02*
X709167D01*
Y1389167D01*
X705833D02*
X709167D01*
X705833Y1385833D02*
Y1389167D01*
X710833Y1390833D02*
X714167D01*
Y1394167D01*
X710833D02*
X714167D01*
X710833Y1390833D02*
Y1394167D01*
X588333Y1388333D02*
X591667D01*
Y1391667D01*
X588333D02*
X591667D01*
X588333Y1388333D02*
Y1391667D01*
X593333Y1385833D02*
X596667D01*
Y1389167D01*
X593333D02*
X596667D01*
X593333Y1385833D02*
Y1389167D01*
X598333Y1388333D02*
X601667D01*
Y1391667D01*
X598333D02*
X601667D01*
X598333Y1388333D02*
Y1391667D01*
X603333Y1385833D02*
X606667D01*
Y1389167D01*
X603333D02*
X606667D01*
X603333Y1385833D02*
Y1389167D01*
X608333Y1388333D02*
X611667D01*
Y1391667D01*
X608333D02*
X611667D01*
X608333Y1388333D02*
Y1391667D01*
X613333Y1385833D02*
X616667D01*
Y1389167D01*
X613333D02*
X616667D01*
X613333Y1385833D02*
Y1389167D01*
X618333Y1388333D02*
X621667D01*
Y1391667D01*
X618333D02*
X621667D01*
X618333Y1388333D02*
Y1391667D01*
X623333Y1385833D02*
X626667D01*
Y1389167D01*
X623333D02*
X626667D01*
X623333Y1385833D02*
Y1389167D01*
X628333Y1390833D02*
X631667D01*
Y1394167D01*
X628333D02*
X631667D01*
X628333Y1390833D02*
Y1394167D01*
X505833Y1388333D02*
X509167D01*
Y1391667D01*
X505833D02*
X509167D01*
X505833Y1388333D02*
Y1391667D01*
X510833Y1385833D02*
X514167D01*
Y1389167D01*
X510833D02*
X514167D01*
X510833Y1385833D02*
Y1389167D01*
X515833Y1388333D02*
X519167D01*
Y1391667D01*
X515833D02*
X519167D01*
X515833Y1388333D02*
Y1391667D01*
X520833Y1385833D02*
X524167D01*
Y1389167D01*
X520833D02*
X524167D01*
X520833Y1385833D02*
Y1389167D01*
X525833Y1388333D02*
X529167D01*
Y1391667D01*
X525833D02*
X529167D01*
X525833Y1388333D02*
Y1391667D01*
X530833Y1385833D02*
X534167D01*
Y1389167D01*
X530833D02*
X534167D01*
X530833Y1385833D02*
Y1389167D01*
X535833Y1388333D02*
X539167D01*
Y1391667D01*
X535833D02*
X539167D01*
X535833Y1388333D02*
Y1391667D01*
X540833Y1385833D02*
X544167D01*
Y1389167D01*
X540833D02*
X544167D01*
X540833Y1385833D02*
Y1389167D01*
X545833Y1388333D02*
X549167D01*
Y1391667D01*
X545833D02*
X549167D01*
X545833Y1388333D02*
Y1391667D01*
X423333Y1388333D02*
X426667D01*
Y1391667D01*
X423333D02*
X426667D01*
X423333Y1388333D02*
Y1391667D01*
X428333Y1385833D02*
X431667D01*
Y1389167D01*
X428333D02*
X431667D01*
X428333Y1385833D02*
Y1389167D01*
X433333Y1388333D02*
X436667D01*
Y1391667D01*
X433333D02*
X436667D01*
X433333Y1388333D02*
Y1391667D01*
X438333Y1385833D02*
X441667D01*
Y1389167D01*
X438333D02*
X441667D01*
X438333Y1385833D02*
Y1389167D01*
X443333Y1388333D02*
X446667D01*
Y1391667D01*
X443333D02*
X446667D01*
X443333Y1388333D02*
Y1391667D01*
X448333Y1385833D02*
X451667D01*
Y1389167D01*
X448333D02*
X451667D01*
X448333Y1385833D02*
Y1389167D01*
X453333Y1388333D02*
X456667D01*
Y1391667D01*
X453333D02*
X456667D01*
X453333Y1388333D02*
Y1391667D01*
X458333Y1385833D02*
X461667D01*
Y1389167D01*
X458333D02*
X461667D01*
X458333Y1385833D02*
Y1389167D01*
X440833Y1488333D02*
X444167D01*
Y1491667D01*
X440833D02*
X444167D01*
X440833Y1488333D02*
Y1491667D01*
X443333Y1493333D02*
X446667D01*
Y1496667D01*
X443333D02*
X446667D01*
X443333Y1493333D02*
Y1496667D01*
X416583Y1523333D02*
X419917D01*
Y1526667D01*
X416583D02*
X419917D01*
X416583Y1523333D02*
Y1526667D01*
X685833Y1255833D02*
X689167D01*
Y1259167D01*
X685833D02*
X689167D01*
X685833Y1255833D02*
Y1259167D01*
X341833Y1255833D02*
X345167D01*
Y1259167D01*
X341833D02*
X345167D01*
X341833Y1255833D02*
Y1259167D01*
X400833Y1362833D02*
X404167D01*
Y1366167D01*
X400833D02*
X404167D01*
X400833Y1362833D02*
Y1366167D01*
X475833Y1365833D02*
X479167D01*
Y1369167D01*
X475833D02*
X479167D01*
X475833Y1365833D02*
Y1369167D01*
X313333Y1635833D02*
X316667D01*
Y1639167D01*
X313333D02*
X316667D01*
X313333Y1635833D02*
Y1639167D01*
X298333Y1660833D02*
X301667D01*
Y1664167D01*
X298333D02*
X301667D01*
X298333Y1660833D02*
Y1664167D01*
X570833Y1470833D02*
X574167D01*
Y1474167D01*
X570833D02*
X574167D01*
X570833Y1470833D02*
Y1474167D01*
Y1480833D02*
X574167D01*
Y1484167D01*
X570833D02*
X574167D01*
X570833Y1480833D02*
Y1484167D01*
X613333Y1558333D02*
X616667D01*
Y1561667D01*
X613333D02*
X616667D01*
X613333Y1558333D02*
Y1561667D01*
X608333Y1545833D02*
X611667D01*
Y1549167D01*
X608333D02*
X611667D01*
X608333Y1545833D02*
Y1549167D01*
X590833Y1543333D02*
X594167D01*
Y1546667D01*
X590833D02*
X594167D01*
X590833Y1543333D02*
Y1546667D01*
X583333Y1560833D02*
X586667D01*
Y1564167D01*
X583333D02*
X586667D01*
X583333Y1560833D02*
Y1564167D01*
X400833Y1347833D02*
X404167D01*
Y1351167D01*
X400833D02*
X404167D01*
X400833Y1347833D02*
Y1351167D01*
X314333Y1255833D02*
X317667D01*
Y1259167D01*
X314333D02*
X317667D01*
X314333Y1255833D02*
Y1259167D01*
X713333Y1255833D02*
X716667D01*
Y1259167D01*
X713333D02*
X716667D01*
X713333Y1255833D02*
Y1259167D01*
X730833Y1333333D02*
X734167D01*
Y1336667D01*
X730833D02*
X734167D01*
X730833Y1333333D02*
Y1336667D01*
X648333Y1333333D02*
X651667D01*
Y1336667D01*
X648333D02*
X651667D01*
X648333Y1333333D02*
Y1336667D01*
X565833Y1335833D02*
X569167D01*
Y1339167D01*
X565833D02*
X569167D01*
X565833Y1335833D02*
Y1339167D01*
X338333Y1348333D02*
X341667D01*
Y1351667D01*
X338333D02*
X341667D01*
X338333Y1348333D02*
Y1351667D01*
X483333Y1335833D02*
X486667D01*
Y1339167D01*
X483333D02*
X486667D01*
X483333Y1335833D02*
Y1339167D01*
X328333Y1330211D02*
X331667D01*
Y1333545D01*
X328333D02*
X331667D01*
X328333Y1330211D02*
Y1333545D01*
X385833Y1330211D02*
X389167D01*
Y1333545D01*
X385833D02*
X389167D01*
X385833Y1330211D02*
Y1333545D01*
X468333Y1323333D02*
X471667D01*
Y1326667D01*
X468333D02*
X471667D01*
X468333Y1323333D02*
Y1326667D01*
X550833Y1323333D02*
X554167D01*
Y1326667D01*
X550833D02*
X554167D01*
X550833Y1323333D02*
Y1326667D01*
X633333Y1323333D02*
X636667D01*
Y1326667D01*
X633333D02*
X636667D01*
X633333Y1323333D02*
Y1326667D01*
X715833Y1323333D02*
X719167D01*
Y1326667D01*
X715833D02*
X719167D01*
X715833Y1323333D02*
Y1326667D01*
X708333Y1360833D02*
X711667D01*
Y1364167D01*
X708333D02*
X711667D01*
X708333Y1360833D02*
Y1364167D01*
X308333Y1660833D02*
X311667D01*
Y1664167D01*
X308333D02*
X311667D01*
X308333Y1660833D02*
Y1664167D01*
X300833Y1635833D02*
X304167D01*
Y1639167D01*
X300833D02*
X304167D01*
X300833Y1635833D02*
Y1639167D01*
X380833Y1503333D02*
X384167D01*
Y1506667D01*
X380833D02*
X384167D01*
X380833Y1503333D02*
Y1506667D01*
X483333Y1378333D02*
X486667D01*
Y1381667D01*
X483333D02*
X486667D01*
X483333Y1378333D02*
Y1381667D01*
X403333Y1408333D02*
X406667D01*
Y1411667D01*
X403333D02*
X406667D01*
X403333Y1408333D02*
Y1411667D01*
X558333Y1363333D02*
X561667D01*
Y1366667D01*
X558333D02*
X561667D01*
X558333Y1363333D02*
Y1366667D01*
X443333Y1523333D02*
X446667D01*
Y1526667D01*
X443333D02*
X446667D01*
X443333Y1523333D02*
Y1526667D01*
X393333Y1523333D02*
X396667D01*
Y1526667D01*
X393333D02*
X396667D01*
X393333Y1523333D02*
Y1526667D01*
X443333Y1503333D02*
X446667D01*
Y1506667D01*
X443333D02*
X446667D01*
X443333Y1503333D02*
Y1506667D01*
X564333Y1384333D02*
X567667D01*
Y1387667D01*
X564333D02*
X567667D01*
X564333Y1384333D02*
Y1387667D01*
X473333Y1375833D02*
X476667D01*
Y1379167D01*
X473333D02*
X476667D01*
X473333Y1375833D02*
Y1379167D01*
X555833Y1375833D02*
X559167D01*
Y1379167D01*
X555833D02*
X559167D01*
X555833Y1375833D02*
Y1379167D01*
X638333Y1375833D02*
X641667D01*
Y1379167D01*
X638333D02*
X641667D01*
X638333Y1375833D02*
Y1379167D01*
X720833Y1375833D02*
X724167D01*
Y1379167D01*
X720833D02*
X724167D01*
X720833Y1375833D02*
Y1379167D01*
X730833Y1375333D02*
X734167D01*
Y1378667D01*
X730833D02*
X734167D01*
X730833Y1375333D02*
Y1378667D01*
X648333Y1372833D02*
X651667D01*
Y1376167D01*
X648333D02*
X651667D01*
X648333Y1372833D02*
Y1376167D01*
X565833Y1375333D02*
X569167D01*
Y1378667D01*
X565833D02*
X569167D01*
X565833Y1375333D02*
Y1378667D01*
X315833Y1425833D02*
X319167D01*
Y1429167D01*
X315833D02*
X319167D01*
X315833Y1425833D02*
Y1429167D01*
X340833Y1425833D02*
X344167D01*
Y1429167D01*
X340833D02*
X344167D01*
X340833Y1425833D02*
Y1429167D01*
X328333Y1425833D02*
X331667D01*
Y1429167D01*
X328333D02*
X331667D01*
X328333Y1425833D02*
Y1429167D01*
X275833Y1390833D02*
X279167D01*
Y1394167D01*
X275833D02*
X279167D01*
X275833Y1390833D02*
Y1394167D01*
X638451Y1545715D02*
X641785D01*
Y1549049D01*
X638451D02*
X641785D01*
X638451Y1545715D02*
Y1549049D01*
X638373Y1535873D02*
X641706D01*
Y1539206D01*
X638373D02*
X641706D01*
X638373Y1535873D02*
Y1539206D01*
X638451Y1516188D02*
X641785D01*
Y1519521D01*
X638451D02*
X641785D01*
X638451Y1516188D02*
Y1519521D01*
X400833Y1488333D02*
X404167D01*
Y1491667D01*
X400833D02*
X404167D01*
X400833Y1488333D02*
Y1491667D01*
X398333Y1503333D02*
X401667D01*
Y1506667D01*
X398333D02*
X401667D01*
X398333Y1503333D02*
Y1506667D01*
X400833Y1498333D02*
X404167D01*
Y1501667D01*
X400833D02*
X404167D01*
X400833Y1498333D02*
Y1501667D01*
X450833Y1513333D02*
X454167D01*
Y1516667D01*
X450833D02*
X454167D01*
X450833Y1513333D02*
Y1516667D01*
X270833Y1505833D02*
X274167D01*
Y1509167D01*
X270833D02*
X274167D01*
X270833Y1505833D02*
Y1509167D01*
Y1550833D02*
X274167D01*
Y1554167D01*
X270833D02*
X274167D01*
X270833Y1550833D02*
Y1554167D01*
X408333Y1563333D02*
X411667D01*
Y1566667D01*
X408333D02*
X411667D01*
X408333Y1563333D02*
Y1566667D01*
X395814Y1563314D02*
X399147D01*
Y1566647D01*
X395814D02*
X399147D01*
X395814Y1563314D02*
Y1566647D01*
X365833Y1548333D02*
X369167D01*
Y1551667D01*
X365833D02*
X369167D01*
X365833Y1548333D02*
Y1551667D01*
Y1535833D02*
X369167D01*
Y1539167D01*
X365833D02*
X369167D01*
X365833Y1535833D02*
Y1539167D01*
X298333Y1538333D02*
X301667D01*
Y1541667D01*
X298333D02*
X301667D01*
X298333Y1538333D02*
Y1541667D01*
X265833Y1470833D02*
X269167D01*
Y1474167D01*
X265833D02*
X269167D01*
X265833Y1470833D02*
Y1474167D01*
X328333Y1475833D02*
X331667D01*
Y1479167D01*
X328333D02*
X331667D01*
X328333Y1475833D02*
Y1479167D01*
X340833Y1488333D02*
X344167D01*
Y1491667D01*
X340833D02*
X344167D01*
X340833Y1488333D02*
Y1491667D01*
X315833Y1528333D02*
X319167D01*
Y1531667D01*
X315833D02*
X319167D01*
X315833Y1528333D02*
Y1531667D01*
X745000Y1343333D02*
X746667Y1346667D01*
X743333D02*
X746667D01*
X743333D02*
X745000Y1343333D01*
Y1363333D02*
X746667Y1366667D01*
X743333D02*
X746667D01*
X743333D02*
X745000Y1363333D01*
X410000Y1188333D02*
X411667Y1191667D01*
X408333D02*
X411667D01*
X408333D02*
X410000Y1188333D01*
Y1164711D02*
X411667Y1168045D01*
X408333D02*
X411667D01*
X408333D02*
X410000Y1164711D01*
X267500Y1565833D02*
X269167Y1569167D01*
X265833D02*
X269167D01*
X265833D02*
X267500Y1565833D01*
X277500D02*
X279167Y1569167D01*
X275833D02*
X279167D01*
X275833D02*
X277500Y1565833D01*
Y1575833D02*
X279167Y1579167D01*
X275833D02*
X279167D01*
X275833D02*
X277500Y1575833D01*
X267500D02*
X269167Y1579167D01*
X265833D02*
X269167D01*
X265833D02*
X267500Y1575833D01*
X620000Y1145833D02*
X621667Y1149167D01*
X618333D02*
X621667D01*
X618333D02*
X620000Y1145833D01*
Y1135833D02*
X621667Y1139167D01*
X618333D02*
X621667D01*
X618333D02*
X620000Y1135833D01*
X410000D02*
X411667Y1139167D01*
X408333D02*
X411667D01*
X408333D02*
X410000Y1135833D01*
Y1145833D02*
X411667Y1149167D01*
X408333D02*
X411667D01*
X408333D02*
X410000Y1145833D01*
X733333Y1700000D02*
X735000Y1698333D01*
X736667Y1700000D01*
X735000Y1701667D02*
X736667Y1700000D01*
X733333D02*
X735000Y1701667D01*
X733333Y1232500D02*
X735000Y1230833D01*
X736667Y1232500D01*
X735000Y1234167D02*
X736667Y1232500D01*
X733333D02*
X735000Y1234167D01*
X273333Y1232500D02*
X275000Y1230833D01*
X276667Y1232500D01*
X275000Y1234167D02*
X276667Y1232500D01*
X273333D02*
X275000Y1234167D01*
X300833Y1700000D02*
X302500Y1698333D01*
X304167Y1700000D01*
X302500Y1701667D02*
X304167Y1700000D01*
X300833D02*
X302500Y1701667D01*
X317500Y1603333D02*
X319167Y1606667D01*
X315833D02*
X319167D01*
X315833D02*
X317500Y1603333D01*
X307500D02*
X309167Y1606667D01*
X305833D02*
X309167D01*
X305833D02*
X307500Y1603333D01*
X297500D02*
X299167Y1606667D01*
X295833D02*
X299167D01*
X295833D02*
X297500Y1603333D01*
X287500D02*
X289167Y1606667D01*
X285833D02*
X289167D01*
X285833D02*
X287500Y1603333D01*
X337500Y1623333D02*
X339167Y1626667D01*
X335833D02*
X339167D01*
X335833D02*
X337500Y1623333D01*
Y1633333D02*
X339167Y1636667D01*
X335833D02*
X339167D01*
X335833D02*
X337500Y1633333D01*
Y1643333D02*
X339167Y1646667D01*
X335833D02*
X339167D01*
X335833D02*
X337500Y1643333D01*
Y1653333D02*
X339167Y1656667D01*
X335833D02*
X339167D01*
X335833D02*
X337500Y1653333D01*
Y1663333D02*
X339167Y1666667D01*
X335833D02*
X339167D01*
X335833D02*
X337500Y1663333D01*
Y1673333D02*
X339167Y1676667D01*
X335833D02*
X339167D01*
X335833D02*
X337500Y1673333D01*
Y1683333D02*
X339167Y1686667D01*
X335833D02*
X339167D01*
X335833D02*
X337500Y1683333D01*
Y1693333D02*
X339167Y1696667D01*
X335833D02*
X339167D01*
X335833D02*
X337500Y1693333D01*
Y1703333D02*
X339167Y1706667D01*
X335833D02*
X339167D01*
X335833D02*
X337500Y1703333D01*
X267500Y1623333D02*
X269167Y1626667D01*
X265833D02*
X269167D01*
X265833D02*
X267500Y1623333D01*
Y1633333D02*
X269167Y1636667D01*
X265833D02*
X269167D01*
X265833D02*
X267500Y1633333D01*
Y1643333D02*
X269167Y1646667D01*
X265833D02*
X269167D01*
X265833D02*
X267500Y1643333D01*
Y1653333D02*
X269167Y1656667D01*
X265833D02*
X269167D01*
X265833D02*
X267500Y1653333D01*
Y1663333D02*
X269167Y1666667D01*
X265833D02*
X269167D01*
X265833D02*
X267500Y1663333D01*
Y1673333D02*
X269167Y1676667D01*
X265833D02*
X269167D01*
X265833D02*
X267500Y1673333D01*
Y1683333D02*
X269167Y1686667D01*
X265833D02*
X269167D01*
X265833D02*
X267500Y1683333D01*
Y1693333D02*
X269167Y1696667D01*
X265833D02*
X269167D01*
X265833D02*
X267500Y1693333D01*
Y1703333D02*
X269167Y1706667D01*
X265833D02*
X269167D01*
X265833D02*
X267500Y1703333D01*
X430000Y1250833D02*
X431667Y1254167D01*
X428333D02*
X431667D01*
X428333D02*
X430000Y1250833D01*
Y1260833D02*
X431667Y1264167D01*
X428333D02*
X431667D01*
X428333D02*
X430000Y1260833D01*
X440000Y1250833D02*
X441667Y1254167D01*
X438333D02*
X441667D01*
X438333D02*
X440000Y1250833D01*
Y1260833D02*
X441667Y1264167D01*
X438333D02*
X441667D01*
X438333D02*
X440000Y1260833D01*
X450000Y1250833D02*
X451667Y1254167D01*
X448333D02*
X451667D01*
X448333D02*
X450000Y1250833D01*
Y1260833D02*
X451667Y1264167D01*
X448333D02*
X451667D01*
X448333D02*
X450000Y1260833D01*
X460000Y1250833D02*
X461667Y1254167D01*
X458333D02*
X461667D01*
X458333D02*
X460000Y1250833D01*
Y1260833D02*
X461667Y1264167D01*
X458333D02*
X461667D01*
X458333D02*
X460000Y1260833D01*
X470000Y1250833D02*
X471667Y1254167D01*
X468333D02*
X471667D01*
X468333D02*
X470000Y1250833D01*
Y1260833D02*
X471667Y1264167D01*
X468333D02*
X471667D01*
X468333D02*
X470000Y1260833D01*
X480000Y1250833D02*
X481667Y1254167D01*
X478333D02*
X481667D01*
X478333D02*
X480000Y1250833D01*
Y1260833D02*
X481667Y1264167D01*
X478333D02*
X481667D01*
X478333D02*
X480000Y1260833D01*
X490000Y1250833D02*
X491667Y1254167D01*
X488333D02*
X491667D01*
X488333D02*
X490000Y1250833D01*
Y1260833D02*
X491667Y1264167D01*
X488333D02*
X491667D01*
X488333D02*
X490000Y1260833D01*
X500000Y1250833D02*
X501667Y1254167D01*
X498333D02*
X501667D01*
X498333D02*
X500000Y1250833D01*
Y1260833D02*
X501667Y1264167D01*
X498333D02*
X501667D01*
X498333D02*
X500000Y1260833D01*
X510000Y1250833D02*
X511667Y1254167D01*
X508333D02*
X511667D01*
X508333D02*
X510000Y1250833D01*
Y1260833D02*
X511667Y1264167D01*
X508333D02*
X511667D01*
X508333D02*
X510000Y1260833D01*
X520000Y1250833D02*
X521667Y1254167D01*
X518333D02*
X521667D01*
X518333D02*
X520000Y1250833D01*
Y1260833D02*
X521667Y1264167D01*
X518333D02*
X521667D01*
X518333D02*
X520000Y1260833D01*
X530000Y1250833D02*
X531667Y1254167D01*
X528333D02*
X531667D01*
X528333D02*
X530000Y1250833D01*
Y1260833D02*
X531667Y1264167D01*
X528333D02*
X531667D01*
X528333D02*
X530000Y1260833D01*
X540000Y1250833D02*
X541667Y1254167D01*
X538333D02*
X541667D01*
X538333D02*
X540000Y1250833D01*
Y1260833D02*
X541667Y1264167D01*
X538333D02*
X541667D01*
X538333D02*
X540000Y1260833D01*
X550000Y1250833D02*
X551667Y1254167D01*
X548333D02*
X551667D01*
X548333D02*
X550000Y1250833D01*
Y1260833D02*
X551667Y1264167D01*
X548333D02*
X551667D01*
X548333D02*
X550000Y1260833D01*
X560000Y1250833D02*
X561667Y1254167D01*
X558333D02*
X561667D01*
X558333D02*
X560000Y1250833D01*
Y1260833D02*
X561667Y1264167D01*
X558333D02*
X561667D01*
X558333D02*
X560000Y1260833D01*
X570000Y1250833D02*
X571667Y1254167D01*
X568333D02*
X571667D01*
X568333D02*
X570000Y1250833D01*
Y1260833D02*
X571667Y1264167D01*
X568333D02*
X571667D01*
X568333D02*
X570000Y1260833D01*
X580000Y1250833D02*
X581667Y1254167D01*
X578333D02*
X581667D01*
X578333D02*
X580000Y1250833D01*
Y1260833D02*
X581667Y1264167D01*
X578333D02*
X581667D01*
X578333D02*
X580000Y1260833D01*
X590000Y1250833D02*
X591667Y1254167D01*
X588333D02*
X591667D01*
X588333D02*
X590000Y1250833D01*
Y1260833D02*
X591667Y1264167D01*
X588333D02*
X591667D01*
X588333D02*
X590000Y1260833D01*
X600000Y1250833D02*
X601667Y1254167D01*
X598333D02*
X601667D01*
X598333D02*
X600000Y1250833D01*
Y1260833D02*
X601667Y1264167D01*
X598333D02*
X601667D01*
X598333D02*
X600000Y1260833D01*
X610000Y1250833D02*
X611667Y1254167D01*
X608333D02*
X611667D01*
X608333D02*
X610000Y1250833D01*
Y1260833D02*
X611667Y1264167D01*
X608333D02*
X611667D01*
X608333D02*
X610000Y1260833D01*
X410000Y1250833D02*
X411667Y1254167D01*
X408333D02*
X411667D01*
X408333D02*
X410000Y1250833D01*
Y1260833D02*
X411667Y1264167D01*
X408333D02*
X411667D01*
X408333D02*
X410000Y1260833D01*
X420000Y1250833D02*
X421667Y1254167D01*
X418333D02*
X421667D01*
X418333D02*
X420000Y1250833D01*
Y1260833D02*
X421667Y1264167D01*
X418333D02*
X421667D01*
X418333D02*
X420000Y1260833D01*
X390000Y1250833D02*
X391667Y1254167D01*
X388333D02*
X391667D01*
X388333D02*
X390000Y1250833D01*
Y1260833D02*
X391667Y1264167D01*
X388333D02*
X391667D01*
X388333D02*
X390000Y1260833D01*
X400000Y1250833D02*
X401667Y1254167D01*
X398333D02*
X401667D01*
X398333D02*
X400000Y1250833D01*
Y1260833D02*
X401667Y1264167D01*
X398333D02*
X401667D01*
X398333D02*
X400000Y1260833D01*
X620000Y1250833D02*
X621667Y1254167D01*
X618333D02*
X621667D01*
X618333D02*
X620000Y1250833D01*
Y1260833D02*
X621667Y1264167D01*
X618333D02*
X621667D01*
X618333D02*
X620000Y1260833D01*
X630000Y1250833D02*
X631667Y1254167D01*
X628333D02*
X631667D01*
X628333D02*
X630000Y1250833D01*
Y1260833D02*
X631667Y1264167D01*
X628333D02*
X631667D01*
X628333D02*
X630000Y1260833D01*
X664819Y1493891D02*
X665653D01*
X664819D02*
Y1495558D01*
X665653D01*
Y1496391D01*
X667319D01*
Y1495558D02*
Y1496391D01*
Y1495558D02*
X668153D01*
Y1493891D02*
Y1495558D01*
X667319Y1493891D02*
X668153D01*
X667319Y1493058D02*
Y1493891D01*
X665653Y1493058D02*
X667319D01*
X665653D02*
Y1493891D01*
X664819Y1575243D02*
Y1576076D01*
X665653Y1576910D01*
X664819Y1577743D02*
X665653Y1576910D01*
X664819Y1577743D02*
Y1578576D01*
X665653D01*
X666486Y1577743D01*
X667319Y1578576D01*
X668153D01*
Y1577743D02*
Y1578576D01*
X667319Y1576910D02*
X668153Y1577743D01*
X667319Y1576910D02*
X668153Y1576076D01*
Y1575243D02*
Y1576076D01*
X667319Y1575243D02*
X668153D01*
X666486Y1576076D02*
X667319Y1575243D01*
X665653D02*
X666486Y1576076D01*
X664819Y1575243D02*
X665653D01*
X710000Y1628333D02*
X711667Y1631667D01*
X708333D02*
X711667D01*
X708333D02*
X710000Y1628333D01*
Y1638333D02*
X711667Y1641667D01*
X708333D02*
X711667D01*
X708333D02*
X710000Y1638333D01*
X720000Y1628333D02*
X721667Y1631667D01*
X718333D02*
X721667D01*
X718333D02*
X720000Y1628333D01*
Y1638333D02*
X721667Y1641667D01*
X718333D02*
X721667D01*
X718333D02*
X720000Y1638333D01*
X730000Y1628333D02*
X731667Y1631667D01*
X728333D02*
X731667D01*
X728333D02*
X730000Y1628333D01*
Y1638333D02*
X731667Y1641667D01*
X728333D02*
X731667D01*
X728333D02*
X730000Y1638333D01*
X740000Y1628333D02*
X741667Y1631667D01*
X738333D02*
X741667D01*
X738333D02*
X740000Y1628333D01*
Y1638333D02*
X741667Y1641667D01*
X738333D02*
X741667D01*
X738333D02*
X740000Y1638333D01*
X281234Y1461667D02*
X282067Y1460833D01*
X280400Y1461667D02*
X281234D01*
X280400D02*
X281234Y1462500D01*
X280400Y1463333D02*
X281234Y1462500D01*
X280400Y1463333D02*
X281234D01*
X282067Y1464167D01*
X282900Y1463333D01*
X283734D01*
X282900Y1462500D02*
X283734Y1463333D01*
X282900Y1462500D02*
X283734Y1461667D01*
X282900D02*
X283734D01*
X282067Y1460833D02*
X282900Y1461667D01*
X309928Y1460833D02*
X311595Y1461667D01*
X313261Y1460833D01*
X312428Y1462500D02*
X313261Y1460833D01*
X312428Y1462500D02*
X313261Y1464167D01*
X311595Y1463333D02*
X313261Y1464167D01*
X309928D02*
X311595Y1463333D01*
X309928Y1464167D02*
X310761Y1462500D01*
X309928Y1460833D02*
X310761Y1462500D01*
X360000Y1683333D02*
X361667Y1686667D01*
X358333D02*
X361667D01*
X358333D02*
X360000Y1683333D01*
Y1693333D02*
X361667Y1696667D01*
X358333D02*
X361667D01*
X358333D02*
X360000Y1693333D01*
X370000Y1683333D02*
X371667Y1686667D01*
X368333D02*
X371667D01*
X368333D02*
X370000Y1683333D01*
Y1693333D02*
X371667Y1696667D01*
X368333D02*
X371667D01*
X368333D02*
X370000Y1693333D01*
X380000Y1683333D02*
X381667Y1686667D01*
X378333D02*
X381667D01*
X378333D02*
X380000Y1683333D01*
Y1693333D02*
X381667Y1696667D01*
X378333D02*
X381667D01*
X378333D02*
X380000Y1693333D01*
X390000Y1683333D02*
X391667Y1686667D01*
X388333D02*
X391667D01*
X388333D02*
X390000Y1683333D01*
Y1693333D02*
X391667Y1696667D01*
X388333D02*
X391667D01*
X388333D02*
X390000Y1693333D01*
X400000Y1683333D02*
X401667Y1686667D01*
X398333D02*
X401667D01*
X398333D02*
X400000Y1683333D01*
Y1693333D02*
X401667Y1696667D01*
X398333D02*
X401667D01*
X398333D02*
X400000Y1693333D01*
X410000Y1683333D02*
X411667Y1686667D01*
X408333D02*
X411667D01*
X408333D02*
X410000Y1683333D01*
Y1693333D02*
X411667Y1696667D01*
X408333D02*
X411667D01*
X408333D02*
X410000Y1693333D01*
X420000Y1683333D02*
X421667Y1686667D01*
X418333D02*
X421667D01*
X418333D02*
X420000Y1683333D01*
Y1693333D02*
X421667Y1696667D01*
X418333D02*
X421667D01*
X418333D02*
X420000Y1693333D01*
X430000Y1683333D02*
X431667Y1686667D01*
X428333D02*
X431667D01*
X428333D02*
X430000Y1683333D01*
Y1693333D02*
X431667Y1696667D01*
X428333D02*
X431667D01*
X428333D02*
X430000Y1693333D01*
X440000Y1683333D02*
X441667Y1686667D01*
X438333D02*
X441667D01*
X438333D02*
X440000Y1683333D01*
Y1693333D02*
X441667Y1696667D01*
X438333D02*
X441667D01*
X438333D02*
X440000Y1693333D01*
X450000Y1683333D02*
X451667Y1686667D01*
X448333D02*
X451667D01*
X448333D02*
X450000Y1683333D01*
Y1693333D02*
X451667Y1696667D01*
X448333D02*
X451667D01*
X448333D02*
X450000Y1693333D01*
X460000Y1683333D02*
X461667Y1686667D01*
X458333D02*
X461667D01*
X458333D02*
X460000Y1683333D01*
Y1693333D02*
X461667Y1696667D01*
X458333D02*
X461667D01*
X458333D02*
X460000Y1693333D01*
X470000Y1683333D02*
X471667Y1686667D01*
X468333D02*
X471667D01*
X468333D02*
X470000Y1683333D01*
Y1693333D02*
X471667Y1696667D01*
X468333D02*
X471667D01*
X468333D02*
X470000Y1693333D01*
X480000Y1683333D02*
X481667Y1686667D01*
X478333D02*
X481667D01*
X478333D02*
X480000Y1683333D01*
Y1693333D02*
X481667Y1696667D01*
X478333D02*
X481667D01*
X478333D02*
X480000Y1693333D01*
X490000Y1683333D02*
X491667Y1686667D01*
X488333D02*
X491667D01*
X488333D02*
X490000Y1683333D01*
Y1693333D02*
X491667Y1696667D01*
X488333D02*
X491667D01*
X488333D02*
X490000Y1693333D01*
X500000Y1683333D02*
X501667Y1686667D01*
X498333D02*
X501667D01*
X498333D02*
X500000Y1683333D01*
Y1693333D02*
X501667Y1696667D01*
X498333D02*
X501667D01*
X498333D02*
X500000Y1693333D01*
X510000Y1683333D02*
X511667Y1686667D01*
X508333D02*
X511667D01*
X508333D02*
X510000Y1683333D01*
Y1693333D02*
X511667Y1696667D01*
X508333D02*
X511667D01*
X508333D02*
X510000Y1693333D01*
X520000Y1683333D02*
X521667Y1686667D01*
X518333D02*
X521667D01*
X518333D02*
X520000Y1683333D01*
Y1693333D02*
X521667Y1696667D01*
X518333D02*
X521667D01*
X518333D02*
X520000Y1693333D01*
X530000Y1683333D02*
X531667Y1686667D01*
X528333D02*
X531667D01*
X528333D02*
X530000Y1683333D01*
Y1693333D02*
X531667Y1696667D01*
X528333D02*
X531667D01*
X528333D02*
X530000Y1693333D01*
X540000Y1683333D02*
X541667Y1686667D01*
X538333D02*
X541667D01*
X538333D02*
X540000Y1683333D01*
Y1693333D02*
X541667Y1696667D01*
X538333D02*
X541667D01*
X538333D02*
X540000Y1693333D01*
X550000Y1683333D02*
X551667Y1686667D01*
X548333D02*
X551667D01*
X548333D02*
X550000Y1683333D01*
Y1693333D02*
X551667Y1696667D01*
X548333D02*
X551667D01*
X548333D02*
X550000Y1693333D01*
X560000Y1683333D02*
X561667Y1686667D01*
X558333D02*
X561667D01*
X558333D02*
X560000Y1683333D01*
Y1693333D02*
X561667Y1696667D01*
X558333D02*
X561667D01*
X558333D02*
X560000Y1693333D01*
X570000Y1683333D02*
X571667Y1686667D01*
X568333D02*
X571667D01*
X568333D02*
X570000Y1683333D01*
Y1693333D02*
X571667Y1696667D01*
X568333D02*
X571667D01*
X568333D02*
X570000Y1693333D01*
X580000Y1683333D02*
X581667Y1686667D01*
X578333D02*
X581667D01*
X578333D02*
X580000Y1683333D01*
Y1693333D02*
X581667Y1696667D01*
X578333D02*
X581667D01*
X578333D02*
X580000Y1693333D01*
X590000Y1683333D02*
X591667Y1686667D01*
X588333D02*
X591667D01*
X588333D02*
X590000Y1683333D01*
Y1693333D02*
X591667Y1696667D01*
X588333D02*
X591667D01*
X588333D02*
X590000Y1693333D01*
X600000Y1683333D02*
X601667Y1686667D01*
X598333D02*
X601667D01*
X598333D02*
X600000Y1683333D01*
Y1693333D02*
X601667Y1696667D01*
X598333D02*
X601667D01*
X598333D02*
X600000Y1693333D01*
X610000Y1683333D02*
X611667Y1686667D01*
X608333D02*
X611667D01*
X608333D02*
X610000Y1683333D01*
Y1693333D02*
X611667Y1696667D01*
X608333D02*
X611667D01*
X608333D02*
X610000Y1693333D01*
X620000Y1683333D02*
X621667Y1686667D01*
X618333D02*
X621667D01*
X618333D02*
X620000Y1683333D01*
Y1693333D02*
X621667Y1696667D01*
X618333D02*
X621667D01*
X618333D02*
X620000Y1693333D01*
X630000Y1683333D02*
X631667Y1686667D01*
X628333D02*
X631667D01*
X628333D02*
X630000Y1683333D01*
Y1693333D02*
X631667Y1696667D01*
X628333D02*
X631667D01*
X628333D02*
X630000Y1693333D01*
X640000Y1683333D02*
X641667Y1686667D01*
X638333D02*
X641667D01*
X638333D02*
X640000Y1683333D01*
Y1693333D02*
X641667Y1696667D01*
X638333D02*
X641667D01*
X638333D02*
X640000Y1693333D01*
X650000Y1683333D02*
X651667Y1686667D01*
X648333D02*
X651667D01*
X648333D02*
X650000Y1683333D01*
Y1693333D02*
X651667Y1696667D01*
X648333D02*
X651667D01*
X648333D02*
X650000Y1693333D01*
X660000Y1683333D02*
X661667Y1686667D01*
X658333D02*
X661667D01*
X658333D02*
X660000Y1683333D01*
Y1693333D02*
X661667Y1696667D01*
X658333D02*
X661667D01*
X658333D02*
X660000Y1693333D01*
X670000Y1683333D02*
X671667Y1686667D01*
X668333D02*
X671667D01*
X668333D02*
X670000Y1683333D01*
Y1693333D02*
X671667Y1696667D01*
X668333D02*
X671667D01*
X668333D02*
X670000Y1693333D01*
X360000Y1443333D02*
X361667Y1446667D01*
X358333D02*
X361667D01*
X358333D02*
X360000Y1443333D01*
Y1453333D02*
X361667Y1456667D01*
X358333D02*
X361667D01*
X358333D02*
X360000Y1453333D01*
X370000Y1443333D02*
X371667Y1446667D01*
X368333D02*
X371667D01*
X368333D02*
X370000Y1443333D01*
Y1453333D02*
X371667Y1456667D01*
X368333D02*
X371667D01*
X368333D02*
X370000Y1453333D01*
X380000Y1443333D02*
X381667Y1446667D01*
X378333D02*
X381667D01*
X378333D02*
X380000Y1443333D01*
Y1453333D02*
X381667Y1456667D01*
X378333D02*
X381667D01*
X378333D02*
X380000Y1453333D01*
X390000Y1443333D02*
X391667Y1446667D01*
X388333D02*
X391667D01*
X388333D02*
X390000Y1443333D01*
Y1453333D02*
X391667Y1456667D01*
X388333D02*
X391667D01*
X388333D02*
X390000Y1453333D01*
X400000Y1443333D02*
X401667Y1446667D01*
X398333D02*
X401667D01*
X398333D02*
X400000Y1443333D01*
Y1453333D02*
X401667Y1456667D01*
X398333D02*
X401667D01*
X398333D02*
X400000Y1453333D01*
X410000Y1443333D02*
X411667Y1446667D01*
X408333D02*
X411667D01*
X408333D02*
X410000Y1443333D01*
Y1453333D02*
X411667Y1456667D01*
X408333D02*
X411667D01*
X408333D02*
X410000Y1453333D01*
X420000Y1443333D02*
X421667Y1446667D01*
X418333D02*
X421667D01*
X418333D02*
X420000Y1443333D01*
Y1453333D02*
X421667Y1456667D01*
X418333D02*
X421667D01*
X418333D02*
X420000Y1453333D01*
X430000Y1443333D02*
X431667Y1446667D01*
X428333D02*
X431667D01*
X428333D02*
X430000Y1443333D01*
Y1453333D02*
X431667Y1456667D01*
X428333D02*
X431667D01*
X428333D02*
X430000Y1453333D01*
X440000Y1443333D02*
X441667Y1446667D01*
X438333D02*
X441667D01*
X438333D02*
X440000Y1443333D01*
Y1453333D02*
X441667Y1456667D01*
X438333D02*
X441667D01*
X438333D02*
X440000Y1453333D01*
X450000Y1443333D02*
X451667Y1446667D01*
X448333D02*
X451667D01*
X448333D02*
X450000Y1443333D01*
Y1453333D02*
X451667Y1456667D01*
X448333D02*
X451667D01*
X448333D02*
X450000Y1453333D01*
X460000Y1443333D02*
X461667Y1446667D01*
X458333D02*
X461667D01*
X458333D02*
X460000Y1443333D01*
Y1453333D02*
X461667Y1456667D01*
X458333D02*
X461667D01*
X458333D02*
X460000Y1453333D01*
X470000Y1443333D02*
X471667Y1446667D01*
X468333D02*
X471667D01*
X468333D02*
X470000Y1443333D01*
Y1453333D02*
X471667Y1456667D01*
X468333D02*
X471667D01*
X468333D02*
X470000Y1453333D01*
X480000Y1443333D02*
X481667Y1446667D01*
X478333D02*
X481667D01*
X478333D02*
X480000Y1443333D01*
Y1453333D02*
X481667Y1456667D01*
X478333D02*
X481667D01*
X478333D02*
X480000Y1453333D01*
X490000Y1443333D02*
X491667Y1446667D01*
X488333D02*
X491667D01*
X488333D02*
X490000Y1443333D01*
Y1453333D02*
X491667Y1456667D01*
X488333D02*
X491667D01*
X488333D02*
X490000Y1453333D01*
X500000Y1443333D02*
X501667Y1446667D01*
X498333D02*
X501667D01*
X498333D02*
X500000Y1443333D01*
Y1453333D02*
X501667Y1456667D01*
X498333D02*
X501667D01*
X498333D02*
X500000Y1453333D01*
X510000Y1443333D02*
X511667Y1446667D01*
X508333D02*
X511667D01*
X508333D02*
X510000Y1443333D01*
Y1453333D02*
X511667Y1456667D01*
X508333D02*
X511667D01*
X508333D02*
X510000Y1453333D01*
X520000Y1443333D02*
X521667Y1446667D01*
X518333D02*
X521667D01*
X518333D02*
X520000Y1443333D01*
Y1453333D02*
X521667Y1456667D01*
X518333D02*
X521667D01*
X518333D02*
X520000Y1453333D01*
X530000Y1443333D02*
X531667Y1446667D01*
X528333D02*
X531667D01*
X528333D02*
X530000Y1443333D01*
Y1453333D02*
X531667Y1456667D01*
X528333D02*
X531667D01*
X528333D02*
X530000Y1453333D01*
X540000Y1443333D02*
X541667Y1446667D01*
X538333D02*
X541667D01*
X538333D02*
X540000Y1443333D01*
Y1453333D02*
X541667Y1456667D01*
X538333D02*
X541667D01*
X538333D02*
X540000Y1453333D01*
X550000Y1443333D02*
X551667Y1446667D01*
X548333D02*
X551667D01*
X548333D02*
X550000Y1443333D01*
Y1453333D02*
X551667Y1456667D01*
X548333D02*
X551667D01*
X548333D02*
X550000Y1453333D01*
X560000Y1443333D02*
X561667Y1446667D01*
X558333D02*
X561667D01*
X558333D02*
X560000Y1443333D01*
Y1453333D02*
X561667Y1456667D01*
X558333D02*
X561667D01*
X558333D02*
X560000Y1453333D01*
X570000Y1443333D02*
X571667Y1446667D01*
X568333D02*
X571667D01*
X568333D02*
X570000Y1443333D01*
Y1453333D02*
X571667Y1456667D01*
X568333D02*
X571667D01*
X568333D02*
X570000Y1453333D01*
X580000Y1443333D02*
X581667Y1446667D01*
X578333D02*
X581667D01*
X578333D02*
X580000Y1443333D01*
Y1453333D02*
X581667Y1456667D01*
X578333D02*
X581667D01*
X578333D02*
X580000Y1453333D01*
X590000Y1443333D02*
X591667Y1446667D01*
X588333D02*
X591667D01*
X588333D02*
X590000Y1443333D01*
Y1453333D02*
X591667Y1456667D01*
X588333D02*
X591667D01*
X588333D02*
X590000Y1453333D01*
X600000Y1443333D02*
X601667Y1446667D01*
X598333D02*
X601667D01*
X598333D02*
X600000Y1443333D01*
Y1453333D02*
X601667Y1456667D01*
X598333D02*
X601667D01*
X598333D02*
X600000Y1453333D01*
X610000Y1443333D02*
X611667Y1446667D01*
X608333D02*
X611667D01*
X608333D02*
X610000Y1443333D01*
Y1453333D02*
X611667Y1456667D01*
X608333D02*
X611667D01*
X608333D02*
X610000Y1453333D01*
X620000Y1443333D02*
X621667Y1446667D01*
X618333D02*
X621667D01*
X618333D02*
X620000Y1443333D01*
Y1453333D02*
X621667Y1456667D01*
X618333D02*
X621667D01*
X618333D02*
X620000Y1453333D01*
X630000Y1443333D02*
X631667Y1446667D01*
X628333D02*
X631667D01*
X628333D02*
X630000Y1443333D01*
Y1453333D02*
X631667Y1456667D01*
X628333D02*
X631667D01*
X628333D02*
X630000Y1453333D01*
X640000Y1443333D02*
X641667Y1446667D01*
X638333D02*
X641667D01*
X638333D02*
X640000Y1443333D01*
Y1453333D02*
X641667Y1456667D01*
X638333D02*
X641667D01*
X638333D02*
X640000Y1453333D01*
X650000Y1443333D02*
X651667Y1446667D01*
X648333D02*
X651667D01*
X648333D02*
X650000Y1443333D01*
Y1453333D02*
X651667Y1456667D01*
X648333D02*
X651667D01*
X648333D02*
X650000Y1453333D01*
X660000Y1443333D02*
X661667Y1446667D01*
X658333D02*
X661667D01*
X658333D02*
X660000Y1443333D01*
Y1453333D02*
X661667Y1456667D01*
X658333D02*
X661667D01*
X658333D02*
X660000Y1453333D01*
X670000Y1443333D02*
X671667Y1446667D01*
X668333D02*
X671667D01*
X668333D02*
X670000Y1443333D01*
Y1453333D02*
X671667Y1456667D01*
X668333D02*
X671667D01*
X668333D02*
X670000Y1453333D01*
D91*
X820000Y1392500D02*
X1443429D01*
X820000Y1272500D02*
X1443429D01*
X820000Y1257500D02*
X1443429D01*
Y1407500D01*
X820000D02*
X1443429D01*
X820000Y1257500D02*
Y1407500D01*
X1317564Y1257500D02*
Y1407500D01*
X1203397Y1257500D02*
Y1407500D01*
X1130017Y1257500D02*
Y1407500D01*
X1079429Y1257500D02*
Y1407500D01*
X944869Y1257500D02*
Y1407500D01*
X875088Y1257500D02*
Y1407500D01*
D92*
X1322064Y1397000D02*
Y1404198D01*
X1325663D01*
X1326863Y1402998D01*
Y1400599D01*
X1325663Y1399399D01*
X1322064D01*
X1324463D02*
X1326863Y1397000D01*
X1330461D02*
X1332861D01*
X1334060Y1398200D01*
Y1400599D01*
X1332861Y1401799D01*
X1330461D01*
X1329262Y1400599D01*
Y1398200D01*
X1330461Y1397000D01*
X1336459Y1401799D02*
Y1398200D01*
X1337659Y1397000D01*
X1341258D01*
Y1401799D01*
X1344857Y1402998D02*
Y1401799D01*
X1343657D01*
X1346056D01*
X1344857D01*
Y1398200D01*
X1346056Y1397000D01*
X1356853D02*
Y1404198D01*
X1360452D01*
X1361651Y1402998D01*
Y1400599D01*
X1360452Y1399399D01*
X1356853D01*
X1365250Y1401799D02*
X1367649D01*
X1368849Y1400599D01*
Y1397000D01*
X1365250D01*
X1364050Y1398200D01*
X1365250Y1399399D01*
X1368849D01*
X1372448Y1402998D02*
Y1401799D01*
X1371248D01*
X1373647D01*
X1372448D01*
Y1398200D01*
X1373647Y1397000D01*
X1377246Y1404198D02*
Y1397000D01*
Y1400599D01*
X1378446Y1401799D01*
X1380845D01*
X1382045Y1400599D01*
Y1397000D01*
X1391642Y1404198D02*
Y1397000D01*
X1396440D01*
X1402438D02*
X1400039D01*
X1398839Y1398200D01*
Y1400599D01*
X1400039Y1401799D01*
X1402438D01*
X1403638Y1400599D01*
Y1399399D01*
X1398839D01*
X1406037Y1397000D02*
Y1401799D01*
X1409636D01*
X1410835Y1400599D01*
Y1397000D01*
X1415634Y1394601D02*
X1416833D01*
X1418033Y1395800D01*
Y1401799D01*
X1414434D01*
X1413235Y1400599D01*
Y1398200D01*
X1414434Y1397000D01*
X1418033D01*
X1421632Y1402998D02*
Y1401799D01*
X1420432D01*
X1422832D01*
X1421632D01*
Y1398200D01*
X1422832Y1397000D01*
X1426430Y1404198D02*
Y1397000D01*
Y1400599D01*
X1427630Y1401799D01*
X1430029D01*
X1431229Y1400599D01*
Y1397000D01*
X1207897D02*
Y1404198D01*
X1211496D01*
X1212696Y1402998D01*
Y1400599D01*
X1211496Y1399399D01*
X1207897D01*
X1215095Y1404198D02*
Y1397000D01*
Y1400599D01*
X1216294Y1401799D01*
X1218694D01*
X1219893Y1400599D01*
Y1397000D01*
X1222292Y1401799D02*
Y1398200D01*
X1223492Y1397000D01*
X1227091D01*
Y1395800D01*
X1225891Y1394601D01*
X1224692D01*
X1227091Y1397000D02*
Y1401799D01*
X1229490Y1397000D02*
X1233089D01*
X1234289Y1398200D01*
X1233089Y1399399D01*
X1230690D01*
X1229490Y1400599D01*
X1230690Y1401799D01*
X1234289D01*
X1236688Y1397000D02*
X1239087D01*
X1237887D01*
Y1401799D01*
X1236688D01*
X1247484D02*
X1243886D01*
X1242686Y1400599D01*
Y1398200D01*
X1243886Y1397000D01*
X1247484D01*
X1251083Y1401799D02*
X1253482D01*
X1254682Y1400599D01*
Y1397000D01*
X1251083D01*
X1249883Y1398200D01*
X1251083Y1399399D01*
X1254682D01*
X1257081Y1397000D02*
X1259480D01*
X1258281D01*
Y1404198D01*
X1257081D01*
X1270277D02*
Y1397000D01*
X1275075D01*
X1281073D02*
X1278674D01*
X1277475Y1398200D01*
Y1400599D01*
X1278674Y1401799D01*
X1281073D01*
X1282273Y1400599D01*
Y1399399D01*
X1277475D01*
X1284672Y1397000D02*
Y1401799D01*
X1288271D01*
X1289471Y1400599D01*
Y1397000D01*
X1294269Y1394601D02*
X1295469D01*
X1296668Y1395800D01*
Y1401799D01*
X1293069D01*
X1291870Y1400599D01*
Y1398200D01*
X1293069Y1397000D01*
X1296668D01*
X1300267Y1402998D02*
Y1401799D01*
X1299068D01*
X1301467D01*
X1300267D01*
Y1398200D01*
X1301467Y1397000D01*
X1305066Y1404198D02*
Y1397000D01*
Y1400599D01*
X1306265Y1401799D01*
X1308665D01*
X1309864Y1400599D01*
Y1397000D01*
X1134517Y1404198D02*
Y1397000D01*
Y1400599D01*
X1139315D01*
Y1404198D01*
Y1397000D01*
X1142914D02*
X1145313D01*
X1146513Y1398200D01*
Y1400599D01*
X1145313Y1401799D01*
X1142914D01*
X1141715Y1400599D01*
Y1398200D01*
X1142914Y1397000D01*
X1148912D02*
X1151311D01*
X1150112D01*
Y1404198D01*
X1148912D01*
X1158509Y1397000D02*
X1156110D01*
X1154910Y1398200D01*
Y1400599D01*
X1156110Y1401799D01*
X1158509D01*
X1159709Y1400599D01*
Y1399399D01*
X1154910D01*
X1169306Y1404198D02*
X1174104D01*
X1171705D01*
Y1397000D01*
X1176503Y1401799D02*
Y1398200D01*
X1177703Y1397000D01*
X1181302D01*
Y1395800D01*
X1180102Y1394601D01*
X1178903D01*
X1181302Y1397000D02*
Y1401799D01*
X1183701Y1394601D02*
Y1401799D01*
X1187300D01*
X1188499Y1400599D01*
Y1398200D01*
X1187300Y1397000D01*
X1183701D01*
X1194497D02*
X1192098D01*
X1190899Y1398200D01*
Y1400599D01*
X1192098Y1401799D01*
X1194497D01*
X1195697Y1400599D01*
Y1399399D01*
X1190899D01*
X1083929Y1397000D02*
Y1404198D01*
X1087528D01*
X1088728Y1402998D01*
Y1400599D01*
X1087528Y1399399D01*
X1083929D01*
X1091127Y1397000D02*
X1093526D01*
X1092327D01*
Y1404198D01*
X1091127D01*
X1098325Y1401799D02*
X1100724D01*
X1101923Y1400599D01*
Y1397000D01*
X1098325D01*
X1097125Y1398200D01*
X1098325Y1399399D01*
X1101923D01*
X1105522Y1402998D02*
Y1401799D01*
X1104323D01*
X1106722D01*
X1105522D01*
Y1398200D01*
X1106722Y1397000D01*
X1113920D02*
X1111520D01*
X1110321Y1398200D01*
Y1400599D01*
X1111520Y1401799D01*
X1113920D01*
X1115119Y1400599D01*
Y1399399D01*
X1110321D01*
X1122317Y1404198D02*
Y1397000D01*
X1118718D01*
X1117519Y1398200D01*
Y1400599D01*
X1118718Y1401799D01*
X1122317D01*
X954167Y1404198D02*
X949369D01*
Y1400599D01*
X951768D01*
X949369D01*
Y1397000D01*
X956567D02*
X958966D01*
X957766D01*
Y1401799D01*
X956567D01*
X962565Y1397000D02*
Y1401799D01*
X966164D01*
X967363Y1400599D01*
Y1397000D01*
X969762D02*
X972161D01*
X970962D01*
Y1401799D01*
X969762D01*
X975760Y1397000D02*
X979359D01*
X980559Y1398200D01*
X979359Y1399399D01*
X976960D01*
X975760Y1400599D01*
X976960Y1401799D01*
X980559D01*
X982958Y1404198D02*
Y1397000D01*
Y1400599D01*
X984158Y1401799D01*
X986557D01*
X987757Y1400599D01*
Y1397000D01*
X993755D02*
X991355D01*
X990156Y1398200D01*
Y1400599D01*
X991355Y1401799D01*
X993755D01*
X994954Y1400599D01*
Y1399399D01*
X990156D01*
X1002152Y1404198D02*
Y1397000D01*
X998553D01*
X997353Y1398200D01*
Y1400599D01*
X998553Y1401799D01*
X1002152D01*
X1011749Y1404198D02*
Y1397000D01*
Y1400599D01*
X1016547D01*
Y1404198D01*
Y1397000D01*
X1020146D02*
X1022545D01*
X1023745Y1398200D01*
Y1400599D01*
X1022545Y1401799D01*
X1020146D01*
X1018946Y1400599D01*
Y1398200D01*
X1020146Y1397000D01*
X1026144D02*
X1028543D01*
X1027344D01*
Y1404198D01*
X1026144D01*
X1035741Y1397000D02*
X1033342D01*
X1032142Y1398200D01*
Y1400599D01*
X1033342Y1401799D01*
X1035741D01*
X1036941Y1400599D01*
Y1399399D01*
X1032142D01*
X1051336Y1402998D02*
X1050136Y1404198D01*
X1047737D01*
X1046537Y1402998D01*
Y1401799D01*
X1047737Y1400599D01*
X1050136D01*
X1051336Y1399399D01*
Y1398200D01*
X1050136Y1397000D01*
X1047737D01*
X1046537Y1398200D01*
X1053735Y1397000D02*
X1056134D01*
X1054935D01*
Y1401799D01*
X1053735D01*
X1059733D02*
X1064532D01*
X1059733Y1397000D01*
X1064532D01*
X1070530D02*
X1068130D01*
X1066931Y1398200D01*
Y1400599D01*
X1068130Y1401799D01*
X1070530D01*
X1071729Y1400599D01*
Y1399399D01*
X1066931D01*
X879588Y1404198D02*
Y1397000D01*
Y1400599D01*
X884386D01*
Y1404198D01*
Y1397000D01*
X886785D02*
X889184D01*
X887985D01*
Y1401799D01*
X886785D01*
X893983Y1402998D02*
Y1401799D01*
X892783D01*
X895183D01*
X893983D01*
Y1398200D01*
X895183Y1397000D01*
X910777Y1402998D02*
X909578Y1404198D01*
X907179D01*
X905979Y1402998D01*
Y1398200D01*
X907179Y1397000D01*
X909578D01*
X910777Y1398200D01*
X914376Y1397000D02*
X916776D01*
X917975Y1398200D01*
Y1400599D01*
X916776Y1401799D01*
X914376D01*
X913177Y1400599D01*
Y1398200D01*
X914376Y1397000D01*
X920374Y1401799D02*
Y1398200D01*
X921574Y1397000D01*
X925173D01*
Y1401799D01*
X927572Y1397000D02*
Y1401799D01*
X931171D01*
X932370Y1400599D01*
Y1397000D01*
X935969Y1402998D02*
Y1401799D01*
X934770D01*
X937169D01*
X935969D01*
Y1398200D01*
X937169Y1397000D01*
X833799Y1402998D02*
X832599Y1404198D01*
X830200D01*
X829000Y1402998D01*
Y1401799D01*
X830200Y1400599D01*
X832599D01*
X833799Y1399399D01*
Y1398200D01*
X832599Y1397000D01*
X830200D01*
X829000Y1398200D01*
X836198Y1401799D02*
Y1398200D01*
X837397Y1397000D01*
X840996D01*
Y1395800D01*
X839797Y1394601D01*
X838597D01*
X840996Y1397000D02*
Y1401799D01*
X843395Y1397000D02*
Y1401799D01*
X844595D01*
X845795Y1400599D01*
Y1397000D01*
Y1400599D01*
X846994Y1401799D01*
X848194Y1400599D01*
Y1397000D01*
X850593Y1404198D02*
Y1397000D01*
X854192D01*
X855392Y1398200D01*
Y1399399D01*
Y1400599D01*
X854192Y1401799D01*
X850593D01*
X858990Y1397000D02*
X861390D01*
X862589Y1398200D01*
Y1400599D01*
X861390Y1401799D01*
X858990D01*
X857791Y1400599D01*
Y1398200D01*
X858990Y1397000D01*
X864988D02*
X867388D01*
X866188D01*
Y1404198D01*
X864988D01*
M02*
