G04*
G04 #@! TF.GenerationSoftware,Altium Limited,CircuitStudio,1.5.2 (30)*
G04*
G04 Layer_Color=12632256*
%FSLAX25Y25*%
%MOIN*%
G70*
G01*
G75*
%ADD33C,0.01000*%
%ADD34C,0.01200*%
%ADD36C,0.00800*%
D33*
X755000Y1212500D02*
Y1720000D01*
X640000Y1112500D02*
Y1212500D01*
X390000Y1112500D02*
Y1212500D01*
X640000D02*
X755000D01*
X255000D02*
X390000D01*
X400000Y1072500D02*
X402500Y1070000D01*
X627500D02*
X630000Y1072500D01*
X255000Y1212500D02*
Y1720000D01*
X755000D01*
X390000Y1112500D02*
X400000D01*
Y1072500D02*
Y1112500D01*
X402500Y1070000D02*
X627500D01*
X630000Y1072500D02*
Y1112500D01*
X640000D01*
D34*
X526500Y1666500D02*
Y1673500D01*
X514000Y1666500D02*
Y1673500D01*
X521500Y1666500D02*
X526500D01*
X521500Y1673500D02*
X526500D01*
X514000D02*
X518500D01*
X514000Y1666500D02*
X518500D01*
X556500Y1624000D02*
Y1631000D01*
X544000Y1624000D02*
Y1631000D01*
X551500Y1624000D02*
X556500D01*
X551500Y1631000D02*
X556500D01*
X544000D02*
X548500D01*
X544000Y1624000D02*
X548500D01*
X481000Y1616500D02*
Y1623500D01*
X493500Y1616500D02*
Y1623500D01*
X481000D02*
X486000D01*
X481000Y1616500D02*
X486000D01*
X489000D02*
X493500D01*
X489000Y1623500D02*
X493500D01*
X524000Y1564000D02*
Y1571000D01*
X511500Y1564000D02*
Y1571000D01*
X519000Y1564000D02*
X524000D01*
X519000Y1571000D02*
X524000D01*
X511500D02*
X516000D01*
X511500Y1564000D02*
X516000D01*
X543500Y1606500D02*
Y1613500D01*
X556000Y1606500D02*
Y1613500D01*
X543500D02*
X548500D01*
X543500Y1606500D02*
X548500D01*
X551500D02*
X556000D01*
X551500Y1613500D02*
X556000D01*
X494000Y1604000D02*
Y1611000D01*
X481500Y1604000D02*
Y1611000D01*
X489000Y1604000D02*
X494000D01*
X489000Y1611000D02*
X494000D01*
X481500D02*
X486000D01*
X481500Y1604000D02*
X486000D01*
X511000Y1596500D02*
Y1603500D01*
X523500Y1596500D02*
Y1603500D01*
X511000D02*
X516000D01*
X511000Y1596500D02*
X516000D01*
X519000D02*
X523500D01*
X519000Y1603500D02*
X523500D01*
X513500Y1634000D02*
Y1641000D01*
X526000Y1634000D02*
Y1641000D01*
X513500D02*
X518500D01*
X513500Y1634000D02*
X518500D01*
X521500D02*
X526000D01*
X521500Y1641000D02*
X526000D01*
X511000Y1648000D02*
Y1657000D01*
X530000Y1648000D02*
Y1657000D01*
X511000D02*
X518500D01*
X511000Y1648000D02*
X518500D01*
X522500D02*
X530000D01*
X522500Y1657000D02*
X530000D01*
X508500Y1578000D02*
Y1587000D01*
X527500Y1578000D02*
Y1587000D01*
X508500D02*
X516000D01*
X508500Y1578000D02*
X516000D01*
X520000D02*
X527500D01*
X520000Y1587000D02*
X527500D01*
X496000Y1301500D02*
Y1306000D01*
X489000Y1301500D02*
Y1306000D01*
Y1309000D02*
Y1314000D01*
X496000Y1309000D02*
Y1314000D01*
X489000Y1301500D02*
X496000D01*
X489000Y1314000D02*
X496000D01*
X503500Y1301500D02*
Y1306000D01*
X496500Y1301500D02*
Y1306000D01*
Y1309000D02*
Y1314000D01*
X503500Y1309000D02*
Y1314000D01*
X496500Y1301500D02*
X503500D01*
X496500Y1314000D02*
X503500D01*
X511000Y1301500D02*
Y1306000D01*
X504000Y1301500D02*
Y1306000D01*
Y1309000D02*
Y1314000D01*
X511000Y1309000D02*
Y1314000D01*
X504000Y1301500D02*
X511000D01*
X504000Y1314000D02*
X511000D01*
X518500Y1301500D02*
Y1306000D01*
X511500Y1301500D02*
Y1306000D01*
Y1309000D02*
Y1314000D01*
X518500Y1309000D02*
Y1314000D01*
X511500Y1301500D02*
X518500D01*
X511500Y1314000D02*
X518500D01*
X526000Y1301500D02*
Y1306000D01*
X519000Y1301500D02*
Y1306000D01*
Y1309000D02*
Y1314000D01*
X526000Y1309000D02*
Y1314000D01*
X519000Y1301500D02*
X526000D01*
X519000Y1314000D02*
X526000D01*
X533500Y1301500D02*
Y1306000D01*
X526500Y1301500D02*
Y1306000D01*
Y1309000D02*
Y1314000D01*
X533500Y1309000D02*
Y1314000D01*
X526500Y1301500D02*
X533500D01*
X526500Y1314000D02*
X533500D01*
X541000Y1301500D02*
Y1306000D01*
X534000Y1301500D02*
Y1306000D01*
Y1309000D02*
Y1314000D01*
X541000Y1309000D02*
Y1314000D01*
X534000Y1301500D02*
X541000D01*
X534000Y1314000D02*
X541000D01*
X548500Y1301500D02*
Y1306000D01*
X541500Y1301500D02*
Y1306000D01*
Y1309000D02*
Y1314000D01*
X548500Y1309000D02*
Y1314000D01*
X541500Y1301500D02*
X548500D01*
X541500Y1314000D02*
X548500D01*
X578500Y1301500D02*
Y1306000D01*
X571500Y1301500D02*
Y1306000D01*
Y1309000D02*
Y1314000D01*
X578500Y1309000D02*
Y1314000D01*
X571500Y1301500D02*
X578500D01*
X571500Y1314000D02*
X578500D01*
X586000Y1301500D02*
Y1306000D01*
X579000Y1301500D02*
Y1306000D01*
Y1309000D02*
Y1314000D01*
X586000Y1309000D02*
Y1314000D01*
X579000Y1301500D02*
X586000D01*
X579000Y1314000D02*
X586000D01*
X593500Y1301500D02*
Y1306000D01*
X586500Y1301500D02*
Y1306000D01*
Y1309000D02*
Y1314000D01*
X593500Y1309000D02*
Y1314000D01*
X586500Y1301500D02*
X593500D01*
X586500Y1314000D02*
X593500D01*
X601000Y1301500D02*
Y1306000D01*
X594000Y1301500D02*
Y1306000D01*
Y1309000D02*
Y1314000D01*
X601000Y1309000D02*
Y1314000D01*
X594000Y1301500D02*
X601000D01*
X594000Y1314000D02*
X601000D01*
X608500Y1301500D02*
Y1306000D01*
X601500Y1301500D02*
Y1306000D01*
Y1309000D02*
Y1314000D01*
X608500Y1309000D02*
Y1314000D01*
X601500Y1301500D02*
X608500D01*
X601500Y1314000D02*
X608500D01*
X616000Y1301500D02*
Y1306000D01*
X609000Y1301500D02*
Y1306000D01*
Y1309000D02*
Y1314000D01*
X616000Y1309000D02*
Y1314000D01*
X609000Y1301500D02*
X616000D01*
X609000Y1314000D02*
X616000D01*
X623500Y1301500D02*
Y1306000D01*
X616500Y1301500D02*
Y1306000D01*
Y1309000D02*
Y1314000D01*
X623500Y1309000D02*
Y1314000D01*
X616500Y1301500D02*
X623500D01*
X616500Y1314000D02*
X623500D01*
X631000Y1301500D02*
Y1306000D01*
X624000Y1301500D02*
Y1306000D01*
Y1309000D02*
Y1314000D01*
X631000Y1309000D02*
Y1314000D01*
X624000Y1301500D02*
X631000D01*
X624000Y1314000D02*
X631000D01*
D36*
X521834Y1591832D02*
X522501Y1592499D01*
X523834D01*
X524500Y1591832D01*
Y1589167D01*
X523834Y1588500D01*
X522501D01*
X521834Y1589167D01*
X520501Y1588500D02*
X519168D01*
X519835D01*
Y1592499D01*
X520501Y1591832D01*
X517169Y1588500D02*
X515836D01*
X516503D01*
Y1592499D01*
X517169Y1591832D01*
X511837Y1588500D02*
Y1592499D01*
X513837Y1590499D01*
X511171D01*
X524834Y1663332D02*
X525501Y1663999D01*
X526834D01*
X527500Y1663332D01*
Y1660666D01*
X526834Y1660000D01*
X525501D01*
X524834Y1660666D01*
X523501Y1660000D02*
X522168D01*
X522835D01*
Y1663999D01*
X523501Y1663332D01*
X520169Y1660000D02*
X518836D01*
X519503D01*
Y1663999D01*
X520169Y1663332D01*
X516837D02*
X516170Y1663999D01*
X514837D01*
X514171Y1663332D01*
Y1662666D01*
X514837Y1661999D01*
X515504D01*
X514837D01*
X514171Y1661333D01*
Y1660666D01*
X514837Y1660000D01*
X516170D01*
X516837Y1660666D01*
X522334Y1645832D02*
X523001Y1646499D01*
X524334D01*
X525000Y1645832D01*
Y1643166D01*
X524334Y1642500D01*
X523001D01*
X522334Y1643166D01*
X521001Y1642500D02*
X519668D01*
X520335D01*
Y1646499D01*
X521001Y1645832D01*
X517669Y1642500D02*
X516336D01*
X517003D01*
Y1646499D01*
X517669Y1645832D01*
X511671Y1642500D02*
X514337D01*
X511671Y1645166D01*
Y1645832D01*
X512337Y1646499D01*
X513670D01*
X514337Y1645832D01*
X519834Y1608332D02*
X520501Y1608999D01*
X521834D01*
X522500Y1608332D01*
Y1605667D01*
X521834Y1605000D01*
X520501D01*
X519834Y1605667D01*
X518501Y1605000D02*
X517168D01*
X517835D01*
Y1608999D01*
X518501Y1608332D01*
X515169Y1605000D02*
X513836D01*
X514503D01*
Y1608999D01*
X515169Y1608332D01*
X511837Y1605000D02*
X510504D01*
X511170D01*
Y1608999D01*
X511837Y1608332D01*
X492334Y1600832D02*
X493001Y1601499D01*
X494334D01*
X495000Y1600832D01*
Y1598166D01*
X494334Y1597500D01*
X493001D01*
X492334Y1598166D01*
X491001Y1597500D02*
X489668D01*
X490335D01*
Y1601499D01*
X491001Y1600832D01*
X487669Y1597500D02*
X486336D01*
X487003D01*
Y1601499D01*
X487669Y1600832D01*
X484337D02*
X483670Y1601499D01*
X482337D01*
X481671Y1600832D01*
Y1598166D01*
X482337Y1597500D01*
X483670D01*
X484337Y1598166D01*
Y1600832D01*
X554834Y1619332D02*
X555501Y1619999D01*
X556834D01*
X557500Y1619332D01*
Y1616666D01*
X556834Y1616000D01*
X555501D01*
X554834Y1616666D01*
X553501Y1616000D02*
X552168D01*
X552835D01*
Y1619999D01*
X553501Y1619332D01*
X550169D02*
X549503Y1619999D01*
X548170D01*
X547503Y1619332D01*
Y1616666D01*
X548170Y1616000D01*
X549503D01*
X550169Y1616666D01*
Y1619332D01*
X546170Y1616666D02*
X545504Y1616000D01*
X544171D01*
X543504Y1616666D01*
Y1619332D01*
X544171Y1619999D01*
X545504D01*
X546170Y1619332D01*
Y1618666D01*
X545504Y1617999D01*
X543504D01*
X522334Y1575832D02*
X523001Y1576499D01*
X524334D01*
X525000Y1575832D01*
Y1573166D01*
X524334Y1572500D01*
X523001D01*
X522334Y1573166D01*
X521001Y1572500D02*
X519668D01*
X520335D01*
Y1576499D01*
X521001Y1575832D01*
X517669D02*
X517003Y1576499D01*
X515670D01*
X515003Y1575832D01*
Y1573166D01*
X515670Y1572500D01*
X517003D01*
X517669Y1573166D01*
Y1575832D01*
X513670D02*
X513004Y1576499D01*
X511671D01*
X511004Y1575832D01*
Y1575166D01*
X511671Y1574499D01*
X511004Y1573833D01*
Y1573166D01*
X511671Y1572500D01*
X513004D01*
X513670Y1573166D01*
Y1573833D01*
X513004Y1574499D01*
X513670Y1575166D01*
Y1575832D01*
X513004Y1574499D02*
X511671D01*
X489834Y1630832D02*
X490501Y1631499D01*
X491834D01*
X492500Y1630832D01*
Y1628167D01*
X491834Y1627500D01*
X490501D01*
X489834Y1628167D01*
X488501Y1627500D02*
X487168D01*
X487835D01*
Y1631499D01*
X488501Y1630832D01*
X485169D02*
X484503Y1631499D01*
X483170D01*
X482503Y1630832D01*
Y1628167D01*
X483170Y1627500D01*
X484503D01*
X485169Y1628167D01*
Y1630832D01*
X481170Y1631499D02*
X478505D01*
Y1630832D01*
X481170Y1628167D01*
Y1627500D01*
X555334Y1635832D02*
X556001Y1636499D01*
X557334D01*
X558000Y1635832D01*
Y1633167D01*
X557334Y1632500D01*
X556001D01*
X555334Y1633167D01*
X554001Y1632500D02*
X552668D01*
X553335D01*
Y1636499D01*
X554001Y1635832D01*
X550669D02*
X550003Y1636499D01*
X548670D01*
X548003Y1635832D01*
Y1633167D01*
X548670Y1632500D01*
X550003D01*
X550669Y1633167D01*
Y1635832D01*
X544004Y1636499D02*
X545337Y1635832D01*
X546670Y1634499D01*
Y1633167D01*
X546004Y1632500D01*
X544671D01*
X544004Y1633167D01*
Y1633833D01*
X544671Y1634499D01*
X546670D01*
X524834Y1678332D02*
X525501Y1678999D01*
X526834D01*
X527500Y1678332D01*
Y1675666D01*
X526834Y1675000D01*
X525501D01*
X524834Y1675666D01*
X523501Y1675000D02*
X522168D01*
X522835D01*
Y1678999D01*
X523501Y1678332D01*
X520169D02*
X519503Y1678999D01*
X518170D01*
X517503Y1678332D01*
Y1675666D01*
X518170Y1675000D01*
X519503D01*
X520169Y1675666D01*
Y1678332D01*
X513505Y1678999D02*
X516170D01*
Y1676999D01*
X514837Y1677666D01*
X514171D01*
X513505Y1676999D01*
Y1675666D01*
X514171Y1675000D01*
X515504D01*
X516170Y1675666D01*
X547500Y1297500D02*
X543501D01*
Y1295501D01*
X544168Y1294834D01*
X545501D01*
X546167Y1295501D01*
Y1297500D01*
Y1296167D02*
X547500Y1294834D01*
Y1293501D02*
Y1292168D01*
Y1292835D01*
X543501D01*
X544168Y1293501D01*
Y1290169D02*
X543501Y1289503D01*
Y1288170D01*
X544168Y1287503D01*
X546834D01*
X547500Y1288170D01*
Y1289503D01*
X546834Y1290169D01*
X544168D01*
Y1286170D02*
X543501Y1285504D01*
Y1284171D01*
X544168Y1283504D01*
X544834D01*
X545501Y1284171D01*
X546167Y1283504D01*
X546834D01*
X547500Y1284171D01*
Y1285504D01*
X546834Y1286170D01*
X546167D01*
X545501Y1285504D01*
X544834Y1286170D01*
X544168D01*
X545501Y1285504D02*
Y1284171D01*
X540000Y1297500D02*
X536001D01*
Y1295501D01*
X536668Y1294834D01*
X538001D01*
X538667Y1295501D01*
Y1297500D01*
Y1296167D02*
X540000Y1294834D01*
Y1293501D02*
Y1292168D01*
Y1292835D01*
X536001D01*
X536668Y1293501D01*
Y1290169D02*
X536001Y1289503D01*
Y1288170D01*
X536668Y1287503D01*
X539334D01*
X540000Y1288170D01*
Y1289503D01*
X539334Y1290169D01*
X536668D01*
X539334Y1286170D02*
X540000Y1285504D01*
Y1284171D01*
X539334Y1283504D01*
X536668D01*
X536001Y1284171D01*
Y1285504D01*
X536668Y1286170D01*
X537334D01*
X538001Y1285504D01*
Y1283504D01*
X532500Y1297500D02*
X528501D01*
Y1295501D01*
X529168Y1294834D01*
X530501D01*
X531167Y1295501D01*
Y1297500D01*
Y1296167D02*
X532500Y1294834D01*
Y1293501D02*
Y1292168D01*
Y1292835D01*
X528501D01*
X529168Y1293501D01*
X532500Y1290169D02*
Y1288836D01*
Y1289503D01*
X528501D01*
X529168Y1290169D01*
Y1286837D02*
X528501Y1286170D01*
Y1284837D01*
X529168Y1284171D01*
X531834D01*
X532500Y1284837D01*
Y1286170D01*
X531834Y1286837D01*
X529168D01*
X525000Y1297500D02*
X521001D01*
Y1295501D01*
X521668Y1294834D01*
X523001D01*
X523667Y1295501D01*
Y1297500D01*
Y1296167D02*
X525000Y1294834D01*
Y1293501D02*
Y1292168D01*
Y1292835D01*
X521001D01*
X521668Y1293501D01*
X525000Y1290169D02*
Y1288836D01*
Y1289503D01*
X521001D01*
X521668Y1290169D01*
X525000Y1286837D02*
Y1285504D01*
Y1286170D01*
X521001D01*
X521668Y1286837D01*
X517500Y1297500D02*
X513501D01*
Y1295501D01*
X514168Y1294834D01*
X515501D01*
X516167Y1295501D01*
Y1297500D01*
Y1296167D02*
X517500Y1294834D01*
Y1293501D02*
Y1292168D01*
Y1292835D01*
X513501D01*
X514168Y1293501D01*
X517500Y1290169D02*
Y1288836D01*
Y1289503D01*
X513501D01*
X514168Y1290169D01*
X517500Y1284171D02*
Y1286837D01*
X514834Y1284171D01*
X514168D01*
X513501Y1284837D01*
Y1286170D01*
X514168Y1286837D01*
X510000Y1297500D02*
X506001D01*
Y1295501D01*
X506668Y1294834D01*
X508001D01*
X508667Y1295501D01*
Y1297500D01*
Y1296167D02*
X510000Y1294834D01*
Y1293501D02*
Y1292168D01*
Y1292835D01*
X506001D01*
X506668Y1293501D01*
X510000Y1290169D02*
Y1288836D01*
Y1289503D01*
X506001D01*
X506668Y1290169D01*
Y1286837D02*
X506001Y1286170D01*
Y1284837D01*
X506668Y1284171D01*
X507334D01*
X508001Y1284837D01*
Y1285504D01*
Y1284837D01*
X508667Y1284171D01*
X509334D01*
X510000Y1284837D01*
Y1286170D01*
X509334Y1286837D01*
X502500Y1297500D02*
X498501D01*
Y1295501D01*
X499168Y1294834D01*
X500501D01*
X501167Y1295501D01*
Y1297500D01*
Y1296167D02*
X502500Y1294834D01*
Y1293501D02*
Y1292168D01*
Y1292835D01*
X498501D01*
X499168Y1293501D01*
X502500Y1290169D02*
Y1288836D01*
Y1289503D01*
X498501D01*
X499168Y1290169D01*
X502500Y1284837D02*
X498501D01*
X500501Y1286837D01*
Y1284171D01*
X495000Y1297500D02*
X491001D01*
Y1295501D01*
X491668Y1294834D01*
X493001D01*
X493667Y1295501D01*
Y1297500D01*
Y1296167D02*
X495000Y1294834D01*
Y1293501D02*
Y1292168D01*
Y1292835D01*
X491001D01*
X491668Y1293501D01*
X495000Y1290169D02*
Y1288836D01*
Y1289503D01*
X491001D01*
X491668Y1290169D01*
X491001Y1284171D02*
Y1286837D01*
X493001D01*
X492334Y1285504D01*
Y1284837D01*
X493001Y1284171D01*
X494334D01*
X495000Y1284837D01*
Y1286170D01*
X494334Y1286837D01*
X630000Y1297500D02*
X626001D01*
Y1295501D01*
X626668Y1294834D01*
X628001D01*
X628667Y1295501D01*
Y1297500D01*
Y1296167D02*
X630000Y1294834D01*
Y1293501D02*
Y1292168D01*
Y1292835D01*
X626001D01*
X626668Y1293501D01*
X630000Y1290169D02*
Y1288836D01*
Y1289503D01*
X626001D01*
X626668Y1290169D01*
X626001Y1284171D02*
X626668Y1285504D01*
X628001Y1286837D01*
X629334D01*
X630000Y1286170D01*
Y1284837D01*
X629334Y1284171D01*
X628667D01*
X628001Y1284837D01*
Y1286837D01*
X622500Y1297500D02*
X618501D01*
Y1295501D01*
X619168Y1294834D01*
X620501D01*
X621167Y1295501D01*
Y1297500D01*
Y1296167D02*
X622500Y1294834D01*
Y1293501D02*
Y1292168D01*
Y1292835D01*
X618501D01*
X619168Y1293501D01*
X622500Y1290169D02*
Y1288836D01*
Y1289503D01*
X618501D01*
X619168Y1290169D01*
X618501Y1286837D02*
Y1284171D01*
X619168D01*
X621834Y1286837D01*
X622500D01*
X615000Y1297500D02*
X611001D01*
Y1295501D01*
X611668Y1294834D01*
X613001D01*
X613667Y1295501D01*
Y1297500D01*
Y1296167D02*
X615000Y1294834D01*
Y1293501D02*
Y1292168D01*
Y1292835D01*
X611001D01*
X611668Y1293501D01*
X615000Y1290169D02*
Y1288836D01*
Y1289503D01*
X611001D01*
X611668Y1290169D01*
Y1286837D02*
X611001Y1286170D01*
Y1284837D01*
X611668Y1284171D01*
X612334D01*
X613001Y1284837D01*
X613667Y1284171D01*
X614334D01*
X615000Y1284837D01*
Y1286170D01*
X614334Y1286837D01*
X613667D01*
X613001Y1286170D01*
X612334Y1286837D01*
X611668D01*
X613001Y1286170D02*
Y1284837D01*
X607500Y1297500D02*
X603501D01*
Y1295501D01*
X604168Y1294834D01*
X605501D01*
X606167Y1295501D01*
Y1297500D01*
Y1296167D02*
X607500Y1294834D01*
Y1293501D02*
Y1292168D01*
Y1292835D01*
X603501D01*
X604168Y1293501D01*
X607500Y1290169D02*
Y1288836D01*
Y1289503D01*
X603501D01*
X604168Y1290169D01*
X606834Y1286837D02*
X607500Y1286170D01*
Y1284837D01*
X606834Y1284171D01*
X604168D01*
X603501Y1284837D01*
Y1286170D01*
X604168Y1286837D01*
X604834D01*
X605501Y1286170D01*
Y1284171D01*
X600000Y1297500D02*
X596001D01*
Y1295501D01*
X596668Y1294834D01*
X598001D01*
X598667Y1295501D01*
Y1297500D01*
Y1296167D02*
X600000Y1294834D01*
Y1293501D02*
Y1292168D01*
Y1292835D01*
X596001D01*
X596668Y1293501D01*
X600000Y1287503D02*
Y1290169D01*
X597334Y1287503D01*
X596668D01*
X596001Y1288170D01*
Y1289503D01*
X596668Y1290169D01*
Y1286170D02*
X596001Y1285504D01*
Y1284171D01*
X596668Y1283504D01*
X599334D01*
X600000Y1284171D01*
Y1285504D01*
X599334Y1286170D01*
X596668D01*
X592500Y1297500D02*
X588501D01*
Y1295501D01*
X589168Y1294834D01*
X590501D01*
X591167Y1295501D01*
Y1297500D01*
Y1296167D02*
X592500Y1294834D01*
Y1293501D02*
Y1292168D01*
Y1292835D01*
X588501D01*
X589168Y1293501D01*
X592500Y1287503D02*
Y1290169D01*
X589834Y1287503D01*
X589168D01*
X588501Y1288170D01*
Y1289503D01*
X589168Y1290169D01*
X592500Y1286170D02*
Y1284837D01*
Y1285504D01*
X588501D01*
X589168Y1286170D01*
X585000Y1297500D02*
X581001D01*
Y1295501D01*
X581668Y1294834D01*
X583001D01*
X583667Y1295501D01*
Y1297500D01*
Y1296167D02*
X585000Y1294834D01*
Y1293501D02*
Y1292168D01*
Y1292835D01*
X581001D01*
X581668Y1293501D01*
X585000Y1287503D02*
Y1290169D01*
X582334Y1287503D01*
X581668D01*
X581001Y1288170D01*
Y1289503D01*
X581668Y1290169D01*
X585000Y1283504D02*
Y1286170D01*
X582334Y1283504D01*
X581668D01*
X581001Y1284171D01*
Y1285504D01*
X581668Y1286170D01*
X577500Y1297500D02*
X573501D01*
Y1295501D01*
X574168Y1294834D01*
X575501D01*
X576167Y1295501D01*
Y1297500D01*
Y1296167D02*
X577500Y1294834D01*
Y1293501D02*
Y1292168D01*
Y1292835D01*
X573501D01*
X574168Y1293501D01*
X577500Y1287503D02*
Y1290169D01*
X574834Y1287503D01*
X574168D01*
X573501Y1288170D01*
Y1289503D01*
X574168Y1290169D01*
Y1286170D02*
X573501Y1285504D01*
Y1284171D01*
X574168Y1283504D01*
X574834D01*
X575501Y1284171D01*
Y1284837D01*
Y1284171D01*
X576167Y1283504D01*
X576834D01*
X577500Y1284171D01*
Y1285504D01*
X576834Y1286170D01*
X820000Y1199998D02*
Y1192500D01*
X823749D01*
X824998Y1193750D01*
Y1194999D01*
X823749Y1196249D01*
X820000D01*
X823749D01*
X824998Y1197498D01*
Y1198748D01*
X823749Y1199998D01*
X820000D01*
X828747Y1192500D02*
X831246D01*
X832496Y1193750D01*
Y1196249D01*
X831246Y1197498D01*
X828747D01*
X827498Y1196249D01*
Y1193750D01*
X828747Y1192500D01*
X836245Y1198748D02*
Y1197498D01*
X834995D01*
X837494D01*
X836245D01*
Y1193750D01*
X837494Y1192500D01*
X842493Y1198748D02*
Y1197498D01*
X841243D01*
X843742D01*
X842493D01*
Y1193750D01*
X843742Y1192500D01*
X848741D02*
X851240D01*
X852489Y1193750D01*
Y1196249D01*
X851240Y1197498D01*
X848741D01*
X847491Y1196249D01*
Y1193750D01*
X848741Y1192500D01*
X854989D02*
Y1197498D01*
X856238D01*
X857488Y1196249D01*
Y1192500D01*
Y1196249D01*
X858737Y1197498D01*
X859987Y1196249D01*
Y1192500D01*
X873733Y1199998D02*
X871233D01*
X869984Y1198748D01*
Y1193750D01*
X871233Y1192500D01*
X873733D01*
X874982Y1193750D01*
Y1198748D01*
X873733Y1199998D01*
X877481Y1197498D02*
X879981Y1192500D01*
X882480Y1197498D01*
X888728Y1192500D02*
X886229D01*
X884979Y1193750D01*
Y1196249D01*
X886229Y1197498D01*
X888728D01*
X889977Y1196249D01*
Y1194999D01*
X884979D01*
X892477Y1197498D02*
Y1192500D01*
Y1194999D01*
X893726Y1196249D01*
X894976Y1197498D01*
X896225D01*
X899974Y1192500D02*
X902473D01*
X901224D01*
Y1199998D01*
X899974D01*
X907472Y1197498D02*
X909971D01*
X911220Y1196249D01*
Y1192500D01*
X907472D01*
X906222Y1193750D01*
X907472Y1194999D01*
X911220D01*
X913720Y1197498D02*
Y1193750D01*
X914969Y1192500D01*
X918718D01*
Y1191250D01*
X917468Y1190001D01*
X916219D01*
X918718Y1192500D02*
Y1197498D01*
M02*
