G04*
G04 #@! TF.GenerationSoftware,Altium Limited,CircuitStudio,1.5.2 (30)*
G04*
G04 Layer_Color=26367*
%FSLAX25Y25*%
%MOIN*%
G70*
G01*
G75*
%ADD33C,0.01000*%
%ADD59O,0.03200X0.12737*%
%ADD60C,0.07000*%
%ADD61R,0.03800X0.03800*%
%ADD62R,0.13811X0.08300*%
%ADD63O,0.12737X0.03200*%
%ADD64R,0.10642X0.03162*%
%ADD65O,0.10642X0.03162*%
%ADD66O,0.07000X0.52000*%
%ADD67R,0.07000X0.52000*%
%ADD68R,0.04737X0.03556*%
%ADD69R,0.04400X0.05800*%
%ADD70R,0.04400X0.04400*%
%ADD71R,0.08674X0.02572*%
%ADD72O,0.08674X0.02572*%
%ADD73R,0.03162X0.10642*%
%ADD74O,0.03162X0.10642*%
%ADD75R,0.11824X0.06706*%
%ADD76R,0.10642X0.04737*%
%ADD77R,0.10642X0.03753*%
%ADD78R,0.05800X0.06800*%
%ADD79R,0.06800X0.05800*%
%ADD80R,0.03800X0.03800*%
%ADD81C,0.07300*%
%ADD82R,0.07300X0.07300*%
%ADD83C,0.05937*%
%ADD84C,0.02769*%
%ADD85C,0.07100*%
%ADD86R,0.07300X0.07300*%
%ADD87C,0.04800*%
%ADD88C,0.05800*%
D33*
X755000Y1212500D02*
Y1720000D01*
X640000Y1112500D02*
Y1212500D01*
X390000Y1112500D02*
Y1212500D01*
X640000D02*
X755000D01*
X255000D02*
X390000D01*
X400000Y1072500D02*
X402500Y1070000D01*
X627500D02*
X630000Y1072500D01*
X255000Y1212500D02*
Y1720000D01*
X755000D01*
X390000Y1112500D02*
X400000D01*
Y1072500D02*
Y1112500D01*
X402500Y1070000D02*
X627500D01*
X630000Y1072500D02*
Y1112500D01*
X640000D01*
D59*
X470000Y1377500D02*
D03*
X420000D02*
D03*
X415000D02*
D03*
Y1339500D02*
D03*
X465000Y1377500D02*
D03*
X460000D02*
D03*
X455000D02*
D03*
X450000D02*
D03*
X445000D02*
D03*
X440000D02*
D03*
X435000D02*
D03*
X430000D02*
D03*
X425000D02*
D03*
X460000Y1339500D02*
D03*
X465000D02*
D03*
X470000D02*
D03*
X455000D02*
D03*
X445000D02*
D03*
X450000D02*
D03*
X425000D02*
D03*
X440000D02*
D03*
X435000D02*
D03*
X430000D02*
D03*
X420000D02*
D03*
X717500Y1377500D02*
D03*
X667500D02*
D03*
X662500D02*
D03*
Y1339500D02*
D03*
X712500Y1377500D02*
D03*
X707500D02*
D03*
X702500D02*
D03*
X697500D02*
D03*
X692500D02*
D03*
X687500D02*
D03*
X682500D02*
D03*
X677500D02*
D03*
X672500D02*
D03*
X707500Y1339500D02*
D03*
X712500D02*
D03*
X717500D02*
D03*
X702500D02*
D03*
X692500D02*
D03*
X697500D02*
D03*
X672500D02*
D03*
X687500D02*
D03*
X682500D02*
D03*
X677500D02*
D03*
X667500D02*
D03*
X552500Y1377500D02*
D03*
X502500D02*
D03*
X497500D02*
D03*
Y1339500D02*
D03*
X547500Y1377500D02*
D03*
X542500D02*
D03*
X537500D02*
D03*
X532500D02*
D03*
X527500D02*
D03*
X522500D02*
D03*
X517500D02*
D03*
X512500D02*
D03*
X507500D02*
D03*
X542500Y1339500D02*
D03*
X547500D02*
D03*
X552500D02*
D03*
X537500D02*
D03*
X527500D02*
D03*
X532500D02*
D03*
X507500D02*
D03*
X522500D02*
D03*
X517500D02*
D03*
X512500D02*
D03*
X502500D02*
D03*
X635000Y1377500D02*
D03*
X585000D02*
D03*
X580000D02*
D03*
Y1339500D02*
D03*
X630000Y1377500D02*
D03*
X625000D02*
D03*
X620000D02*
D03*
X615000D02*
D03*
X610000D02*
D03*
X605000D02*
D03*
X600000D02*
D03*
X595000D02*
D03*
X590000D02*
D03*
X625000Y1339500D02*
D03*
X630000D02*
D03*
X635000D02*
D03*
X620000D02*
D03*
X610000D02*
D03*
X615000D02*
D03*
X590000D02*
D03*
X605000D02*
D03*
X600000D02*
D03*
X595000D02*
D03*
X585000D02*
D03*
D60*
X267500Y1447500D02*
D03*
D61*
X272500Y1514500D02*
D03*
Y1520000D02*
D03*
Y1545500D02*
D03*
Y1540000D02*
D03*
X550000Y1480000D02*
D03*
Y1474500D02*
D03*
X735000Y1667500D02*
D03*
Y1673000D02*
D03*
X650000Y1364500D02*
D03*
Y1370000D02*
D03*
Y1340000D02*
D03*
Y1345500D02*
D03*
X567500Y1367000D02*
D03*
Y1372500D02*
D03*
Y1342500D02*
D03*
Y1348000D02*
D03*
X485000Y1367000D02*
D03*
Y1372500D02*
D03*
Y1342500D02*
D03*
Y1348000D02*
D03*
X732500Y1367000D02*
D03*
Y1372500D02*
D03*
Y1340000D02*
D03*
Y1345500D02*
D03*
X402500Y1354500D02*
D03*
Y1360000D02*
D03*
X340000Y1355000D02*
D03*
Y1360500D02*
D03*
X270000Y1360000D02*
D03*
Y1354500D02*
D03*
Y1377500D02*
D03*
Y1372000D02*
D03*
X342500Y1407500D02*
D03*
Y1402000D02*
D03*
X317500Y1407500D02*
D03*
Y1402000D02*
D03*
X330000Y1407500D02*
D03*
Y1402000D02*
D03*
X390000Y1505000D02*
D03*
Y1499500D02*
D03*
X452500Y1502500D02*
D03*
Y1508000D02*
D03*
X610000Y1560000D02*
D03*
Y1554500D02*
D03*
X502500Y1480000D02*
D03*
Y1474500D02*
D03*
X522500Y1480000D02*
D03*
Y1474500D02*
D03*
X657500Y1310500D02*
D03*
Y1305000D02*
D03*
X710000Y1310500D02*
D03*
Y1305000D02*
D03*
X702500Y1310500D02*
D03*
Y1305000D02*
D03*
X665000Y1310500D02*
D03*
Y1305000D02*
D03*
X672500Y1310500D02*
D03*
Y1305000D02*
D03*
X680000Y1310500D02*
D03*
Y1305000D02*
D03*
X687500Y1310500D02*
D03*
Y1305000D02*
D03*
X695000Y1310500D02*
D03*
Y1305000D02*
D03*
D62*
X326161Y1462500D02*
D03*
X267500D02*
D03*
D63*
X290000Y1545000D02*
D03*
Y1540000D02*
D03*
Y1535000D02*
D03*
Y1530000D02*
D03*
Y1525000D02*
D03*
Y1520000D02*
D03*
Y1515000D02*
D03*
Y1510000D02*
D03*
X328000Y1535000D02*
D03*
Y1540000D02*
D03*
Y1545000D02*
D03*
Y1530000D02*
D03*
Y1520000D02*
D03*
Y1525000D02*
D03*
Y1515000D02*
D03*
Y1510000D02*
D03*
D64*
X412500Y1505000D02*
D03*
D65*
Y1500000D02*
D03*
Y1495000D02*
D03*
Y1490000D02*
D03*
X433287Y1505000D02*
D03*
Y1500000D02*
D03*
Y1495000D02*
D03*
Y1490000D02*
D03*
D66*
X620000Y1092500D02*
D03*
X610000D02*
D03*
X590000D02*
D03*
X580000D02*
D03*
X570000D02*
D03*
X560000D02*
D03*
X550000D02*
D03*
X540000D02*
D03*
X530000D02*
D03*
X520000D02*
D03*
X510000D02*
D03*
X490000D02*
D03*
X480000D02*
D03*
X470000D02*
D03*
X460000D02*
D03*
X450000D02*
D03*
X440000D02*
D03*
X430000D02*
D03*
X420000D02*
D03*
D67*
X600000D02*
D03*
X500000D02*
D03*
X410000D02*
D03*
D68*
X436949Y1552520D02*
D03*
Y1560000D02*
D03*
X427500Y1552520D02*
D03*
Y1556260D02*
D03*
Y1560000D02*
D03*
D69*
X286200Y1384500D02*
D03*
D70*
X290000Y1392500D02*
D03*
X282500D02*
D03*
D71*
X495000Y1657500D02*
D03*
D72*
Y1654350D02*
D03*
Y1651201D02*
D03*
Y1648051D02*
D03*
Y1644902D02*
D03*
Y1641752D02*
D03*
Y1638602D02*
D03*
Y1635453D02*
D03*
Y1632303D02*
D03*
Y1629153D02*
D03*
Y1626004D02*
D03*
Y1622854D02*
D03*
Y1619705D02*
D03*
Y1616555D02*
D03*
Y1613405D02*
D03*
Y1610256D02*
D03*
Y1607106D02*
D03*
Y1603957D02*
D03*
Y1600807D02*
D03*
Y1597657D02*
D03*
Y1594508D02*
D03*
Y1591358D02*
D03*
Y1588209D02*
D03*
Y1585059D02*
D03*
Y1581909D02*
D03*
Y1578760D02*
D03*
Y1575610D02*
D03*
X542244Y1657500D02*
D03*
Y1654350D02*
D03*
Y1651201D02*
D03*
Y1648051D02*
D03*
Y1644902D02*
D03*
Y1641752D02*
D03*
Y1638602D02*
D03*
Y1635453D02*
D03*
Y1632303D02*
D03*
Y1629153D02*
D03*
Y1626004D02*
D03*
Y1622854D02*
D03*
Y1619705D02*
D03*
Y1616555D02*
D03*
Y1613405D02*
D03*
Y1610256D02*
D03*
Y1607106D02*
D03*
Y1603957D02*
D03*
Y1600807D02*
D03*
Y1597657D02*
D03*
Y1594508D02*
D03*
Y1591358D02*
D03*
Y1588209D02*
D03*
Y1585059D02*
D03*
Y1581909D02*
D03*
Y1578760D02*
D03*
Y1575610D02*
D03*
D73*
X330000Y1370000D02*
D03*
X387500D02*
D03*
D74*
X325000D02*
D03*
X320000D02*
D03*
X315000D02*
D03*
X310000D02*
D03*
X305000D02*
D03*
X300000D02*
D03*
X330000Y1346378D02*
D03*
X325000D02*
D03*
X320000D02*
D03*
X315000D02*
D03*
X310000D02*
D03*
X305000D02*
D03*
X300000D02*
D03*
X382500Y1370000D02*
D03*
X377500D02*
D03*
X372500D02*
D03*
X367500D02*
D03*
X362500D02*
D03*
X357500D02*
D03*
X387500Y1346378D02*
D03*
X382500D02*
D03*
X377500D02*
D03*
X372500D02*
D03*
X367500D02*
D03*
X362500D02*
D03*
X357500D02*
D03*
D75*
X662057Y1485768D02*
D03*
X746703D02*
D03*
Y1594232D02*
D03*
X666486Y1586260D02*
D03*
D76*
X653297Y1576910D02*
D03*
Y1501595D02*
D03*
Y1508287D02*
D03*
Y1517854D02*
D03*
Y1527697D02*
D03*
Y1537539D02*
D03*
Y1547382D02*
D03*
Y1557224D02*
D03*
Y1567067D02*
D03*
D77*
Y1496476D02*
D03*
Y1491752D02*
D03*
D78*
X592500Y1552500D02*
D03*
Y1561500D02*
D03*
X710000Y1671500D02*
D03*
Y1662500D02*
D03*
X405000Y1392500D02*
D03*
Y1401500D02*
D03*
D79*
X575000Y1395000D02*
D03*
X566000D02*
D03*
X335000Y1257500D02*
D03*
X326000D02*
D03*
X697500D02*
D03*
X706500D02*
D03*
X437500Y1525000D02*
D03*
X428500D02*
D03*
X303500Y1645000D02*
D03*
X312500D02*
D03*
D80*
X469500Y1392500D02*
D03*
X475000D02*
D03*
X717000D02*
D03*
X722500D02*
D03*
X634500D02*
D03*
X640000D02*
D03*
X479500Y1325000D02*
D03*
X485000D02*
D03*
X727500Y1315000D02*
D03*
X733000D02*
D03*
X545000Y1312500D02*
D03*
X550500D02*
D03*
X402500Y1525000D02*
D03*
X408000D02*
D03*
X307500Y1670000D02*
D03*
X302000D02*
D03*
X355000Y1537500D02*
D03*
X360500D02*
D03*
X355000Y1550000D02*
D03*
X360500D02*
D03*
X587500Y1482500D02*
D03*
X582000D02*
D03*
X587500Y1472500D02*
D03*
X582000D02*
D03*
X355000Y1577500D02*
D03*
X360500D02*
D03*
X355000Y1567500D02*
D03*
X360500D02*
D03*
D81*
X670000Y1455000D02*
D03*
Y1445000D02*
D03*
X660000Y1455000D02*
D03*
Y1445000D02*
D03*
X650000Y1455000D02*
D03*
Y1445000D02*
D03*
X640000Y1455000D02*
D03*
Y1445000D02*
D03*
X630000Y1455000D02*
D03*
Y1445000D02*
D03*
X620000Y1455000D02*
D03*
Y1445000D02*
D03*
X610000Y1455000D02*
D03*
Y1445000D02*
D03*
X600000Y1455000D02*
D03*
Y1445000D02*
D03*
X590000Y1455000D02*
D03*
Y1445000D02*
D03*
X580000Y1455000D02*
D03*
Y1445000D02*
D03*
X570000Y1455000D02*
D03*
Y1445000D02*
D03*
X560000Y1455000D02*
D03*
Y1445000D02*
D03*
X550000Y1455000D02*
D03*
Y1445000D02*
D03*
X540000Y1455000D02*
D03*
Y1445000D02*
D03*
X530000Y1455000D02*
D03*
Y1445000D02*
D03*
X520000Y1455000D02*
D03*
Y1445000D02*
D03*
X510000Y1455000D02*
D03*
Y1445000D02*
D03*
X500000Y1455000D02*
D03*
Y1445000D02*
D03*
X490000Y1455000D02*
D03*
Y1445000D02*
D03*
X480000Y1455000D02*
D03*
Y1445000D02*
D03*
X470000Y1455000D02*
D03*
Y1445000D02*
D03*
X460000Y1455000D02*
D03*
Y1445000D02*
D03*
X450000Y1455000D02*
D03*
Y1445000D02*
D03*
X440000Y1455000D02*
D03*
Y1445000D02*
D03*
X430000Y1455000D02*
D03*
Y1445000D02*
D03*
X420000Y1455000D02*
D03*
Y1445000D02*
D03*
X410000Y1455000D02*
D03*
Y1445000D02*
D03*
X400000Y1455000D02*
D03*
Y1445000D02*
D03*
X390000Y1455000D02*
D03*
Y1445000D02*
D03*
X380000Y1455000D02*
D03*
Y1445000D02*
D03*
X370000Y1455000D02*
D03*
Y1445000D02*
D03*
X360000Y1455000D02*
D03*
X670000Y1695000D02*
D03*
Y1685000D02*
D03*
X660000Y1695000D02*
D03*
Y1685000D02*
D03*
X650000Y1695000D02*
D03*
Y1685000D02*
D03*
X640000Y1695000D02*
D03*
Y1685000D02*
D03*
X630000Y1695000D02*
D03*
Y1685000D02*
D03*
X620000Y1695000D02*
D03*
Y1685000D02*
D03*
X610000Y1695000D02*
D03*
Y1685000D02*
D03*
X600000Y1695000D02*
D03*
Y1685000D02*
D03*
X590000Y1695000D02*
D03*
Y1685000D02*
D03*
X580000Y1695000D02*
D03*
Y1685000D02*
D03*
X570000Y1695000D02*
D03*
Y1685000D02*
D03*
X560000Y1695000D02*
D03*
Y1685000D02*
D03*
X550000Y1695000D02*
D03*
Y1685000D02*
D03*
X540000Y1695000D02*
D03*
Y1685000D02*
D03*
X530000Y1695000D02*
D03*
Y1685000D02*
D03*
X520000Y1695000D02*
D03*
Y1685000D02*
D03*
X510000Y1695000D02*
D03*
Y1685000D02*
D03*
X500000Y1695000D02*
D03*
Y1685000D02*
D03*
X490000Y1695000D02*
D03*
Y1685000D02*
D03*
X480000Y1695000D02*
D03*
Y1685000D02*
D03*
X470000Y1695000D02*
D03*
Y1685000D02*
D03*
X460000Y1695000D02*
D03*
Y1685000D02*
D03*
X450000Y1695000D02*
D03*
Y1685000D02*
D03*
X440000Y1695000D02*
D03*
Y1685000D02*
D03*
X430000Y1695000D02*
D03*
Y1685000D02*
D03*
X420000Y1695000D02*
D03*
Y1685000D02*
D03*
X410000Y1695000D02*
D03*
Y1685000D02*
D03*
X400000Y1695000D02*
D03*
Y1685000D02*
D03*
X390000Y1695000D02*
D03*
Y1685000D02*
D03*
X380000Y1695000D02*
D03*
Y1685000D02*
D03*
X370000Y1695000D02*
D03*
Y1685000D02*
D03*
X360000Y1695000D02*
D03*
X740000Y1630000D02*
D03*
X730000Y1640000D02*
D03*
Y1630000D02*
D03*
X720000Y1640000D02*
D03*
Y1630000D02*
D03*
X710000Y1640000D02*
D03*
Y1630000D02*
D03*
X630000Y1252500D02*
D03*
X620000Y1262500D02*
D03*
Y1252500D02*
D03*
X400000Y1262500D02*
D03*
Y1252500D02*
D03*
X390000Y1262500D02*
D03*
Y1252500D02*
D03*
X420000Y1262500D02*
D03*
Y1252500D02*
D03*
X410000Y1262500D02*
D03*
Y1252500D02*
D03*
X610000Y1262500D02*
D03*
Y1252500D02*
D03*
X600000Y1262500D02*
D03*
Y1252500D02*
D03*
X590000Y1262500D02*
D03*
Y1252500D02*
D03*
X580000Y1262500D02*
D03*
Y1252500D02*
D03*
X570000Y1262500D02*
D03*
Y1252500D02*
D03*
X560000Y1262500D02*
D03*
Y1252500D02*
D03*
X550000Y1262500D02*
D03*
Y1252500D02*
D03*
X540000Y1262500D02*
D03*
Y1252500D02*
D03*
X530000Y1262500D02*
D03*
Y1252500D02*
D03*
X520000Y1262500D02*
D03*
Y1252500D02*
D03*
X510000Y1262500D02*
D03*
Y1252500D02*
D03*
X500000Y1262500D02*
D03*
Y1252500D02*
D03*
X490000Y1262500D02*
D03*
Y1252500D02*
D03*
X480000Y1262500D02*
D03*
Y1252500D02*
D03*
X470000Y1262500D02*
D03*
Y1252500D02*
D03*
X460000Y1262500D02*
D03*
Y1252500D02*
D03*
X450000Y1262500D02*
D03*
Y1252500D02*
D03*
X440000Y1262500D02*
D03*
Y1252500D02*
D03*
X430000Y1262500D02*
D03*
Y1252500D02*
D03*
X267500Y1705000D02*
D03*
Y1695000D02*
D03*
Y1685000D02*
D03*
Y1675000D02*
D03*
Y1665000D02*
D03*
Y1655000D02*
D03*
Y1645000D02*
D03*
Y1635000D02*
D03*
Y1625000D02*
D03*
X337500Y1705000D02*
D03*
Y1695000D02*
D03*
Y1685000D02*
D03*
Y1675000D02*
D03*
Y1665000D02*
D03*
Y1655000D02*
D03*
Y1645000D02*
D03*
Y1635000D02*
D03*
Y1625000D02*
D03*
X287500Y1605000D02*
D03*
X297500D02*
D03*
X307500D02*
D03*
X410000Y1147500D02*
D03*
Y1137500D02*
D03*
X620000D02*
D03*
Y1147500D02*
D03*
X267500Y1577500D02*
D03*
Y1567500D02*
D03*
X410000Y1166378D02*
D03*
Y1190000D02*
D03*
X745000Y1365000D02*
D03*
Y1345000D02*
D03*
D82*
X360000Y1445000D02*
D03*
Y1685000D02*
D03*
X740000Y1640000D02*
D03*
X630000Y1262500D02*
D03*
X317500Y1605000D02*
D03*
D83*
X311595Y1462500D02*
D03*
X282067D02*
D03*
D84*
X666486Y1576910D02*
D03*
Y1494724D02*
D03*
D85*
X302500Y1700000D02*
D03*
X275000Y1232500D02*
D03*
X735000D02*
D03*
X735000Y1700000D02*
D03*
D86*
X277500Y1577500D02*
D03*
Y1567500D02*
D03*
D87*
X317500Y1530000D02*
D03*
X342500Y1490000D02*
D03*
X330000Y1477500D02*
D03*
X267500Y1472500D02*
D03*
X300000Y1540000D02*
D03*
X367500Y1537500D02*
D03*
Y1550000D02*
D03*
X397480Y1564980D02*
D03*
X410000Y1565000D02*
D03*
X272500Y1552500D02*
D03*
Y1507500D02*
D03*
X452500Y1515000D02*
D03*
X402500Y1500000D02*
D03*
X400000Y1505000D02*
D03*
X402500Y1490000D02*
D03*
X640118Y1517854D02*
D03*
X640039Y1537539D02*
D03*
X640118Y1547382D02*
D03*
X277500Y1392500D02*
D03*
X330000Y1427500D02*
D03*
X342500D02*
D03*
X317500D02*
D03*
X567500Y1377000D02*
D03*
X650000Y1374500D02*
D03*
X732500Y1377000D02*
D03*
X722500Y1377500D02*
D03*
X640000D02*
D03*
X557500D02*
D03*
X475000D02*
D03*
X566000Y1386000D02*
D03*
X445000Y1505000D02*
D03*
X395000Y1525000D02*
D03*
X445000D02*
D03*
X560000Y1365000D02*
D03*
X405000Y1410000D02*
D03*
X485000Y1380000D02*
D03*
X382500Y1505000D02*
D03*
X302500Y1637500D02*
D03*
X310000Y1662500D02*
D03*
X710000Y1362500D02*
D03*
X717500Y1325000D02*
D03*
X635000D02*
D03*
X552500D02*
D03*
X470000D02*
D03*
X387500Y1331878D02*
D03*
X330000D02*
D03*
X485000Y1337500D02*
D03*
X340000Y1350000D02*
D03*
X567500Y1337500D02*
D03*
X650000Y1335000D02*
D03*
X732500D02*
D03*
X715000Y1257500D02*
D03*
X316000D02*
D03*
X402500Y1349500D02*
D03*
X585000Y1562500D02*
D03*
X592500Y1545000D02*
D03*
X610000Y1547500D02*
D03*
X615000Y1560000D02*
D03*
X572500Y1482500D02*
D03*
Y1472500D02*
D03*
X300000Y1662500D02*
D03*
X315000Y1637500D02*
D03*
X477500Y1367500D02*
D03*
X402500Y1364500D02*
D03*
X343500Y1257500D02*
D03*
X687500D02*
D03*
X418250Y1525000D02*
D03*
X445000Y1495000D02*
D03*
X442500Y1490000D02*
D03*
X460000Y1387500D02*
D03*
X455000Y1390000D02*
D03*
X450000Y1387500D02*
D03*
X445000Y1390000D02*
D03*
X440000Y1387500D02*
D03*
X435000Y1390000D02*
D03*
X430000Y1387500D02*
D03*
X425000Y1390000D02*
D03*
X547500D02*
D03*
X542500Y1387500D02*
D03*
X537500Y1390000D02*
D03*
X532500Y1387500D02*
D03*
X527500Y1390000D02*
D03*
X522500Y1387500D02*
D03*
X517500Y1390000D02*
D03*
X512500Y1387500D02*
D03*
X507500Y1390000D02*
D03*
X630000Y1392500D02*
D03*
X625000Y1387500D02*
D03*
X620000Y1390000D02*
D03*
X615000Y1387500D02*
D03*
X610000Y1390000D02*
D03*
X605000Y1387500D02*
D03*
X600000Y1390000D02*
D03*
X595000Y1387500D02*
D03*
X590000Y1390000D02*
D03*
X712500Y1392500D02*
D03*
X707500Y1387500D02*
D03*
X702500Y1390000D02*
D03*
X697500Y1387500D02*
D03*
X692500Y1390000D02*
D03*
X687500Y1387500D02*
D03*
X682500Y1390000D02*
D03*
X677500Y1387500D02*
D03*
X672500Y1390000D02*
D03*
X300000Y1331878D02*
D03*
X315000Y1336878D02*
D03*
X575000Y1385000D02*
D03*
X405000D02*
D03*
X482500Y1392500D02*
D03*
X410000Y1377500D02*
D03*
X417500Y1387500D02*
D03*
X492500Y1377500D02*
D03*
X500000Y1387500D02*
D03*
X647500Y1392500D02*
D03*
X582500Y1387500D02*
D03*
X575000Y1377500D02*
D03*
X657500D02*
D03*
X665000Y1387500D02*
D03*
X730000Y1392500D02*
D03*
X732500Y1350000D02*
D03*
Y1362000D02*
D03*
X650000Y1359500D02*
D03*
Y1350000D02*
D03*
X567500Y1362000D02*
D03*
Y1352500D02*
D03*
X270000Y1382500D02*
D03*
X340000Y1365000D02*
D03*
X485000Y1330000D02*
D03*
X477500Y1332500D02*
D03*
X492500Y1345000D02*
D03*
X485000Y1352500D02*
D03*
X325000Y1336878D02*
D03*
X320000Y1331878D02*
D03*
X310000D02*
D03*
X305000Y1336878D02*
D03*
X300000Y1385000D02*
D03*
X305000Y1380000D02*
D03*
X310000Y1385000D02*
D03*
X315000Y1380000D02*
D03*
X320000Y1385000D02*
D03*
X330000D02*
D03*
X325000Y1380000D02*
D03*
X377500Y1385000D02*
D03*
X295000Y1392500D02*
D03*
X435000Y1277500D02*
D03*
X357500Y1385000D02*
D03*
X362500Y1380000D02*
D03*
X367500Y1385000D02*
D03*
X372500Y1380000D02*
D03*
X387500Y1385000D02*
D03*
X382500Y1380000D02*
D03*
X432500Y1292500D02*
D03*
X457500Y1297500D02*
D03*
X462500Y1302500D02*
D03*
X357500Y1331878D02*
D03*
X362500Y1336878D02*
D03*
X367500Y1331878D02*
D03*
X372500Y1336878D02*
D03*
X377500Y1331878D02*
D03*
X382500Y1336878D02*
D03*
X415000Y1330000D02*
D03*
X420000Y1325000D02*
D03*
X430000D02*
D03*
X435000Y1330000D02*
D03*
X440000Y1325000D02*
D03*
X445000Y1330000D02*
D03*
X450000Y1325000D02*
D03*
X455000Y1330000D02*
D03*
X460000Y1325000D02*
D03*
X465000Y1330000D02*
D03*
X497500D02*
D03*
X542500Y1325000D02*
D03*
X547500Y1330000D02*
D03*
X630000D02*
D03*
X625000Y1325000D02*
D03*
X712500Y1330000D02*
D03*
X707500Y1325000D02*
D03*
X702500Y1330000D02*
D03*
X697500Y1325000D02*
D03*
X692500Y1330000D02*
D03*
X687500Y1325000D02*
D03*
X682500Y1330000D02*
D03*
X677500Y1325000D02*
D03*
X672500Y1330000D02*
D03*
X667500Y1325000D02*
D03*
X662500Y1330000D02*
D03*
X580000D02*
D03*
X540000Y1662500D02*
D03*
X535000Y1652500D02*
D03*
X535197Y1632303D02*
D03*
X535000Y1622500D02*
D03*
X549000Y1643000D02*
D03*
X532500Y1615000D02*
D03*
X535610Y1575610D02*
D03*
X502500Y1575000D02*
D03*
Y1615000D02*
D03*
X505000Y1625000D02*
D03*
Y1632500D02*
D03*
Y1640000D02*
D03*
X507500Y1652500D02*
D03*
X500000Y1662500D02*
D03*
X510000Y1567500D02*
D03*
X527500D02*
D03*
X507500Y1600000D02*
D03*
X525000D02*
D03*
X557500Y1617500D02*
D03*
X472500Y1612500D02*
D03*
X710000Y1655000D02*
D03*
X735000Y1660000D02*
D03*
X710000Y1680000D02*
D03*
X735000D02*
D03*
X347500Y1567500D02*
D03*
X370000Y1590000D02*
D03*
X495500Y1474500D02*
D03*
X522500Y1502500D02*
D03*
X442480Y1552520D02*
D03*
X417500Y1560000D02*
D03*
X420000Y1552500D02*
D03*
X405000D02*
D03*
X615000Y1482500D02*
D03*
X612500Y1472500D02*
D03*
X585000Y1325000D02*
D03*
X590000Y1330000D02*
D03*
X595000Y1325000D02*
D03*
X600000Y1330000D02*
D03*
X605000Y1325000D02*
D03*
X610000Y1330000D02*
D03*
X615000Y1325000D02*
D03*
X620000Y1330000D02*
D03*
X502500Y1325000D02*
D03*
X507500Y1330000D02*
D03*
X512500Y1325000D02*
D03*
X517500Y1330000D02*
D03*
X522500Y1325000D02*
D03*
X527500Y1330000D02*
D03*
X532500Y1325000D02*
D03*
X537500Y1330000D02*
D03*
X352500Y1477500D02*
D03*
X502500Y1487500D02*
D03*
Y1507500D02*
D03*
X515500Y1474500D02*
D03*
X522500Y1487500D02*
D03*
D88*
X567500Y1317500D02*
D03*
X270000Y1345000D02*
D03*
X367500Y1565000D02*
D03*
M02*
