G04*
G04 #@! TF.GenerationSoftware,Altium Limited,CircuitStudio,1.5.2 (30)*
G04*
G04 Layer_Color=7318015*
%FSLAX25Y25*%
%MOIN*%
G70*
G01*
G75*
%ADD10R,0.03937X0.02756*%
%ADD11R,0.03600X0.03600*%
%ADD12R,0.03600X0.05000*%
%ADD13O,0.07874X0.01772*%
%ADD14R,0.07874X0.01772*%
%ADD15O,0.02362X0.09843*%
%ADD16R,0.02362X0.09843*%
%ADD17O,0.02400X0.11937*%
%ADD18O,0.09843X0.02362*%
%ADD19R,0.09843X0.02362*%
%ADD20R,0.09843X0.03937*%
%ADD21R,0.09843X0.02953*%
%ADD22R,0.11024X0.05906*%
%ADD23R,0.05000X0.50000*%
%ADD24O,0.05000X0.50000*%
%ADD25R,0.05000X0.06000*%
%ADD26R,0.03000X0.03000*%
%ADD27R,0.03000X0.03000*%
%ADD28R,0.06000X0.05000*%
%ADD30C,0.01000*%
D10*
X427500Y1560000D02*
D03*
Y1556260D02*
D03*
Y1552520D02*
D03*
X436949Y1560000D02*
D03*
Y1552520D02*
D03*
D11*
X282500Y1392500D02*
D03*
X290000D02*
D03*
D12*
X286200Y1384500D02*
D03*
D13*
X542244Y1575610D02*
D03*
Y1578760D02*
D03*
Y1581909D02*
D03*
Y1585059D02*
D03*
Y1588209D02*
D03*
Y1591358D02*
D03*
Y1594508D02*
D03*
Y1597657D02*
D03*
Y1600807D02*
D03*
Y1603957D02*
D03*
Y1607106D02*
D03*
Y1610256D02*
D03*
Y1613405D02*
D03*
Y1616555D02*
D03*
Y1619705D02*
D03*
Y1622854D02*
D03*
Y1626004D02*
D03*
Y1629153D02*
D03*
Y1632303D02*
D03*
Y1635453D02*
D03*
Y1638602D02*
D03*
Y1641752D02*
D03*
Y1644902D02*
D03*
Y1648051D02*
D03*
Y1651201D02*
D03*
Y1654350D02*
D03*
Y1657500D02*
D03*
X495000Y1575610D02*
D03*
Y1578760D02*
D03*
Y1581909D02*
D03*
Y1585059D02*
D03*
Y1588209D02*
D03*
Y1591358D02*
D03*
Y1594508D02*
D03*
Y1597657D02*
D03*
Y1600807D02*
D03*
Y1603957D02*
D03*
Y1607106D02*
D03*
Y1610256D02*
D03*
Y1613405D02*
D03*
Y1616555D02*
D03*
Y1619705D02*
D03*
Y1622854D02*
D03*
Y1626004D02*
D03*
Y1629153D02*
D03*
Y1632303D02*
D03*
Y1635453D02*
D03*
Y1638602D02*
D03*
Y1641752D02*
D03*
Y1644902D02*
D03*
Y1648051D02*
D03*
Y1651201D02*
D03*
Y1654350D02*
D03*
D14*
Y1657500D02*
D03*
D15*
X357500Y1346378D02*
D03*
X362500D02*
D03*
X367500D02*
D03*
X372500D02*
D03*
X377500D02*
D03*
X382500D02*
D03*
X387500D02*
D03*
X357500Y1370000D02*
D03*
X362500D02*
D03*
X367500D02*
D03*
X372500D02*
D03*
X377500D02*
D03*
X382500D02*
D03*
X300000Y1346378D02*
D03*
X305000D02*
D03*
X310000D02*
D03*
X315000D02*
D03*
X320000D02*
D03*
X325000D02*
D03*
X330000D02*
D03*
X300000Y1370000D02*
D03*
X305000D02*
D03*
X310000D02*
D03*
X315000D02*
D03*
X320000D02*
D03*
X325000D02*
D03*
D16*
X387500D02*
D03*
X330000D02*
D03*
D17*
X470000Y1377500D02*
D03*
X420000D02*
D03*
X415000D02*
D03*
Y1339500D02*
D03*
X465000Y1377500D02*
D03*
X460000D02*
D03*
X455000D02*
D03*
X450000D02*
D03*
X445000D02*
D03*
X440000D02*
D03*
X435000D02*
D03*
X430000D02*
D03*
X425000D02*
D03*
X460000Y1339500D02*
D03*
X465000D02*
D03*
X470000D02*
D03*
X455000D02*
D03*
X445000D02*
D03*
X450000D02*
D03*
X425000D02*
D03*
X440000D02*
D03*
X435000D02*
D03*
X430000D02*
D03*
X420000D02*
D03*
X585000D02*
D03*
X595000D02*
D03*
X600000D02*
D03*
X605000D02*
D03*
X590000D02*
D03*
X615000D02*
D03*
X610000D02*
D03*
X620000D02*
D03*
X635000D02*
D03*
X630000D02*
D03*
X625000D02*
D03*
X590000Y1377500D02*
D03*
X595000D02*
D03*
X600000D02*
D03*
X605000D02*
D03*
X610000D02*
D03*
X615000D02*
D03*
X620000D02*
D03*
X625000D02*
D03*
X630000D02*
D03*
X580000Y1339500D02*
D03*
Y1377500D02*
D03*
X585000D02*
D03*
X635000D02*
D03*
X552500D02*
D03*
X502500D02*
D03*
X497500D02*
D03*
Y1339500D02*
D03*
X547500Y1377500D02*
D03*
X542500D02*
D03*
X537500D02*
D03*
X532500D02*
D03*
X527500D02*
D03*
X522500D02*
D03*
X517500D02*
D03*
X512500D02*
D03*
X507500D02*
D03*
X542500Y1339500D02*
D03*
X547500D02*
D03*
X552500D02*
D03*
X537500D02*
D03*
X527500D02*
D03*
X532500D02*
D03*
X507500D02*
D03*
X522500D02*
D03*
X517500D02*
D03*
X512500D02*
D03*
X502500D02*
D03*
X667500D02*
D03*
X677500D02*
D03*
X682500D02*
D03*
X687500D02*
D03*
X672500D02*
D03*
X697500D02*
D03*
X692500D02*
D03*
X702500D02*
D03*
X717500D02*
D03*
X712500D02*
D03*
X707500D02*
D03*
X672500Y1377500D02*
D03*
X677500D02*
D03*
X682500D02*
D03*
X687500D02*
D03*
X692500D02*
D03*
X697500D02*
D03*
X702500D02*
D03*
X707500D02*
D03*
X712500D02*
D03*
X662500Y1339500D02*
D03*
Y1377500D02*
D03*
X667500D02*
D03*
X717500D02*
D03*
D18*
X433287Y1490000D02*
D03*
Y1495000D02*
D03*
Y1500000D02*
D03*
Y1505000D02*
D03*
X412500Y1490000D02*
D03*
Y1495000D02*
D03*
Y1500000D02*
D03*
D19*
Y1505000D02*
D03*
D20*
X653297Y1567067D02*
D03*
Y1557224D02*
D03*
Y1547382D02*
D03*
Y1537539D02*
D03*
Y1527697D02*
D03*
Y1517854D02*
D03*
Y1508287D02*
D03*
Y1501595D02*
D03*
Y1576910D02*
D03*
D21*
Y1491752D02*
D03*
Y1496476D02*
D03*
D22*
X666486Y1586260D02*
D03*
X746703Y1594232D02*
D03*
Y1485768D02*
D03*
X662057D02*
D03*
D23*
X410000Y1092500D02*
D03*
X500000D02*
D03*
X600000D02*
D03*
D24*
X420000D02*
D03*
X430000D02*
D03*
X440000D02*
D03*
X450000D02*
D03*
X460000D02*
D03*
X470000D02*
D03*
X480000D02*
D03*
X490000D02*
D03*
X510000D02*
D03*
X520000D02*
D03*
X530000D02*
D03*
X540000D02*
D03*
X550000D02*
D03*
X560000D02*
D03*
X570000D02*
D03*
X580000D02*
D03*
X590000D02*
D03*
X610000D02*
D03*
X620000D02*
D03*
D25*
X710000Y1662500D02*
D03*
Y1671500D02*
D03*
X592500Y1561500D02*
D03*
Y1552500D02*
D03*
X405000Y1401500D02*
D03*
Y1392500D02*
D03*
D26*
X550000Y1474500D02*
D03*
Y1480000D02*
D03*
X522500Y1474500D02*
D03*
Y1480000D02*
D03*
X502500Y1474500D02*
D03*
Y1480000D02*
D03*
X610000Y1554500D02*
D03*
Y1560000D02*
D03*
X452500Y1508000D02*
D03*
Y1502500D02*
D03*
X390000Y1499500D02*
D03*
Y1505000D02*
D03*
X330000Y1402000D02*
D03*
Y1407500D02*
D03*
X317500Y1402000D02*
D03*
Y1407500D02*
D03*
X342500Y1402000D02*
D03*
Y1407500D02*
D03*
X270000Y1372000D02*
D03*
Y1377500D02*
D03*
Y1354500D02*
D03*
Y1360000D02*
D03*
X340000Y1360500D02*
D03*
Y1355000D02*
D03*
X402500Y1360000D02*
D03*
Y1354500D02*
D03*
X732500Y1345500D02*
D03*
Y1340000D02*
D03*
Y1372500D02*
D03*
Y1367000D02*
D03*
X485000Y1348000D02*
D03*
Y1342500D02*
D03*
Y1372500D02*
D03*
Y1367000D02*
D03*
X567500Y1348000D02*
D03*
Y1342500D02*
D03*
Y1372500D02*
D03*
Y1367000D02*
D03*
X650000Y1345500D02*
D03*
Y1340000D02*
D03*
Y1370000D02*
D03*
Y1364500D02*
D03*
X735000Y1673000D02*
D03*
Y1667500D02*
D03*
X710000Y1305000D02*
D03*
Y1310500D02*
D03*
X702500Y1305000D02*
D03*
Y1310500D02*
D03*
X695000Y1305000D02*
D03*
Y1310500D02*
D03*
X687500Y1305000D02*
D03*
Y1310500D02*
D03*
X680000Y1305000D02*
D03*
Y1310500D02*
D03*
X672500Y1305000D02*
D03*
Y1310500D02*
D03*
X665000Y1305000D02*
D03*
Y1310500D02*
D03*
X657500Y1305000D02*
D03*
Y1310500D02*
D03*
D27*
X582000Y1472500D02*
D03*
X587500D02*
D03*
X582000Y1482500D02*
D03*
X587500D02*
D03*
X375500Y1490000D02*
D03*
X370000D02*
D03*
X352000Y1522500D02*
D03*
X357500D02*
D03*
X302000Y1670000D02*
D03*
X307500D02*
D03*
X408000Y1525000D02*
D03*
X402500D02*
D03*
X550500Y1312500D02*
D03*
X545000D02*
D03*
X733000Y1315000D02*
D03*
X727500D02*
D03*
X485000Y1325000D02*
D03*
X479500D02*
D03*
X640000Y1392500D02*
D03*
X634500D02*
D03*
X722500D02*
D03*
X717000D02*
D03*
X475000D02*
D03*
X469500D02*
D03*
X360500Y1577500D02*
D03*
X355000D02*
D03*
X360500Y1567500D02*
D03*
X355000D02*
D03*
D28*
X312500Y1645000D02*
D03*
X303500D02*
D03*
X428500Y1525000D02*
D03*
X437500D02*
D03*
X706500Y1257500D02*
D03*
X697500D02*
D03*
X326000D02*
D03*
X335000D02*
D03*
X566000Y1395000D02*
D03*
X575000D02*
D03*
D30*
X630000Y1112500D02*
X640000D01*
X630000Y1072500D02*
Y1112500D01*
X402500Y1070000D02*
X627500D01*
X400000Y1072500D02*
Y1112500D01*
X390000D02*
X400000D01*
X255000Y1720000D02*
X755000D01*
X255000Y1212500D02*
Y1720000D01*
X627500Y1070000D02*
X630000Y1072500D01*
X400000D02*
X402500Y1070000D01*
X255000Y1212500D02*
X390000D01*
X640000D02*
X755000D01*
X390000Y1112500D02*
Y1212500D01*
X640000Y1112500D02*
Y1212500D01*
X755000D02*
Y1720000D01*
M02*
